<svg width="11" height="14" viewBox="0 0 11 14" fill="none" xmlns="http://www.w3.org/2000/svg">
<path fill-rule="evenodd" clip-rule="evenodd" d="M0.25 1.75C0.25 1.28587 0.434374 0.840752 0.762563 0.512563C1.09075 0.184374 1.53587 0 2 0L6.63138 0C6.86342 4.95577e-05 7.08594 0.0922693 7.25 0.256375L10.4936 3.5C10.6577 3.66406 10.75 3.88658 10.75 4.11862V12.25C10.75 12.7141 10.5656 13.1592 10.2374 13.4874C9.90925 13.8156 9.46413 14 9 14H2C1.53587 14 1.09075 13.8156 0.762563 13.4874C0.434374 13.1592 0.25 12.7141 0.25 12.25V1.75ZM6.375 3.5L6.8125 1.3125L9.4375 3.9375L7.25 4.375C7.01794 4.375 6.79538 4.28281 6.63128 4.11872C6.46719 3.95462 6.375 3.73206 6.375 3.5ZM2.4375 7C2.32147 7 2.21019 7.04609 2.12814 7.12814C2.04609 7.21019 2 7.32147 2 7.4375C2 7.55353 2.04609 7.66481 2.12814 7.74686C2.21019 7.82891 2.32147 7.875 2.4375 7.875H8.5625C8.67853 7.875 8.78981 7.82891 8.87186 7.74686C8.95391 7.66481 9 7.55353 9 7.4375C9 7.32147 8.95391 7.21019 8.87186 7.12814C8.78981 7.04609 8.67853 7 8.5625 7H2.4375ZM2 9.1875C2 9.07147 2.04609 8.96019 2.12814 8.87814C2.21019 8.79609 2.32147 8.75 2.4375 8.75H8.5625C8.67853 8.75 8.78981 8.79609 8.87186 8.87814C8.95391 8.96019 9 9.07147 9 9.1875C9 9.30353 8.95391 9.41481 8.87186 9.49686C8.78981 9.57891 8.67853 9.625 8.5625 9.625H2.4375C2.32147 9.625 2.21019 9.57891 2.12814 9.49686C2.04609 9.41481 2 9.30353 2 9.1875ZM2 10.9375C2 10.8215 2.04609 10.7102 2.12814 10.6281C2.21019 10.5461 2.32147 10.5 2.4375 10.5H5.9375C6.05353 10.5 6.16481 10.5461 6.24686 10.6281C6.32891 10.7102 6.375 10.8215 6.375 10.9375C6.375 11.0535 6.32891 11.1648 6.24686 11.2469C6.16481 11.3289 6.05353 11.375 5.9375 11.375H2.4375C2.32147 11.375 2.21019 11.3289 2.12814 11.2469C2.04609 11.1648 2 11.0535 2 10.9375Z" fill="#F5F5F5"/>
</svg>
