<svg width="8" height="8" viewBox="0 0 8 8" fill="none" xmlns="http://www.w3.org/2000/svg">
<path fill-rule="evenodd" clip-rule="evenodd" d="M3.99989 1.47315C3.32976 1.47315 2.68707 1.73936 2.21321 2.21321C1.73935 2.68707 1.47314 3.32976 1.47314 3.9999C1.47314 4.67003 1.73935 5.31272 2.21321 5.78658C2.68707 6.26043 3.32976 6.52665 3.99989 6.52665C4.67003 6.52665 5.31272 6.26043 5.78658 5.78658C6.26043 5.31272 6.52665 4.67003 6.52665 3.9999C6.52665 3.32976 6.26043 2.68707 5.78658 2.21321C5.31272 1.73936 4.67003 1.47315 3.99989 1.47315ZM0.348145 3.9999C0.348145 3.52034 0.4426 3.04548 0.626117 2.60243C0.809635 2.15938 1.07862 1.75681 1.41772 1.41772C1.75681 1.07862 2.15938 0.809636 2.60243 0.626118C3.04548 0.4426 3.52034 0.348145 3.99989 0.348145C4.47945 0.348145 4.95431 0.4426 5.39736 0.626118C5.84041 0.809636 6.24298 1.07862 6.58207 1.41772C6.92117 1.75681 7.19015 2.15938 7.37367 2.60243C7.55719 3.04548 7.65165 3.52034 7.65165 3.9999C7.65165 4.9684 7.26691 5.89724 6.58207 6.58207C5.89724 7.26691 4.9684 7.65165 3.99989 7.65165C3.03139 7.65165 2.10255 7.26691 1.41772 6.58207C0.732881 5.89724 0.348145 4.9684 0.348145 3.9999Z" fill="#4D4D4D"/>
</svg>
