<svg width="6" height="6" viewBox="0 0 6 6" fill="none" xmlns="http://www.w3.org/2000/svg">
<path fill-rule="evenodd" clip-rule="evenodd" d="M0.635634 1.13694C0.716898 1.05558 0.8134 0.991043 0.919623 0.947009C1.02585 0.902975 1.13971 0.88031 1.2547 0.88031C1.36968 0.88031 1.48355 0.902975 1.58977 0.947009C1.69599 0.991043 1.7925 1.05558 1.87376 1.13694L5.24251 4.50569C5.40669 4.66976 5.49898 4.89233 5.49906 5.12444C5.49914 5.35655 5.40702 5.57919 5.24295 5.74337C5.07888 5.90756 4.85631 5.99984 4.62419 5.99993C4.39208 6.00001 4.16944 5.90788 4.00526 5.74381L0.636508 2.37506C0.555154 2.2938 0.490615 2.19729 0.446582 2.09107C0.402548 1.98485 0.379883 1.87099 0.379883 1.756C0.379883 1.64101 0.402548 1.52715 0.446582 1.42093C0.490615 1.3147 0.555154 1.2182 0.636508 1.13694H0.635634Z" fill="white"/>
</svg>
