<svg width="18" height="18" viewBox="0 0 18 18" fill="none" xmlns="http://www.w3.org/2000/svg">
<path fill-rule="evenodd" clip-rule="evenodd" d="M6.55645 11.4434C6.45097 11.3379 6.30792 11.2787 6.15876 11.2787C6.00961 11.2787 5.86656 11.3379 5.76108 11.4434L1.15308 16.0514V12.9374C1.15308 12.7882 1.09381 12.6451 0.988324 12.5396C0.882835 12.4342 0.73976 12.3749 0.590576 12.3749C0.441392 12.3749 0.298318 12.4342 0.192829 12.5396C0.0873394 12.6451 0.0280762 12.7882 0.0280762 12.9374V17.4093C0.0280762 17.5585 0.0873394 17.7015 0.192829 17.807C0.298318 17.9125 0.441392 17.9718 0.590576 17.9718H5.06245C5.21164 17.9718 5.35471 17.9125 5.4602 17.807C5.56569 17.7015 5.62495 17.5585 5.62495 17.4093C5.62495 17.2601 5.56569 17.117 5.4602 17.0115C5.35471 16.906 5.21164 16.8468 5.06245 16.8468H1.94845L6.55645 12.2388C6.6619 12.1333 6.72114 11.9902 6.72114 11.8411C6.72114 11.6919 6.6619 11.5489 6.55645 11.4434ZM11.4435 11.4434C11.5489 11.3379 11.692 11.2787 11.8411 11.2787C11.9903 11.2787 12.1333 11.3379 12.2388 11.4434L16.8468 16.0514V12.9374C16.8468 12.7882 16.9061 12.6451 17.0116 12.5396C17.1171 12.4342 17.2601 12.3749 17.4093 12.3749C17.5585 12.3749 17.7016 12.4342 17.8071 12.5396C17.9126 12.6451 17.9718 12.7882 17.9718 12.9374V17.4093C17.9718 17.5585 17.9126 17.7015 17.8071 17.807C17.7016 17.9125 17.5585 17.9718 17.4093 17.9718H12.9375C12.7883 17.9718 12.6452 17.9125 12.5397 17.807C12.4342 17.7015 12.375 17.5585 12.375 17.4093C12.375 17.2601 12.4342 17.117 12.5397 17.0115C12.6452 16.906 12.7883 16.8468 12.9375 16.8468H16.0515L11.4435 12.2388C11.338 12.1333 11.2788 11.9902 11.2788 11.8411C11.2788 11.6919 11.338 11.5489 11.4435 11.4434ZM11.4435 6.55639C11.5489 6.66184 11.692 6.72108 11.8411 6.72108C11.9903 6.72108 12.1333 6.66184 12.2388 6.55639L16.8468 1.94839V5.06239C16.8468 5.21157 16.9061 5.35465 17.0116 5.46014C17.1171 5.56563 17.2601 5.62489 17.4093 5.62489C17.5585 5.62489 17.7016 5.56563 17.8071 5.46014C17.9126 5.35465 17.9718 5.21157 17.9718 5.06239V0.590515C17.9718 0.441331 17.9126 0.298257 17.8071 0.192768C17.7016 0.0872784 17.5585 0.0280151 17.4093 0.0280151H12.9375C12.7883 0.0280151 12.6452 0.0872784 12.5397 0.192768C12.4342 0.298257 12.375 0.441331 12.375 0.590515C12.375 0.739699 12.4342 0.882774 12.5397 0.988263C12.6452 1.09375 12.7883 1.15302 12.9375 1.15302H16.0515L11.4435 5.76101C11.338 5.8665 11.2788 6.00955 11.2788 6.1587C11.2788 6.30786 11.338 6.45091 11.4435 6.55639ZM6.55645 6.55639C6.45097 6.66184 6.30792 6.72108 6.15876 6.72108C6.00961 6.72108 5.86656 6.66184 5.76108 6.55639L1.15308 1.94839V5.06239C1.15308 5.21157 1.09381 5.35465 0.988324 5.46014C0.882835 5.56563 0.73976 5.62489 0.590576 5.62489C0.441392 5.62489 0.298318 5.56563 0.192829 5.46014C0.0873394 5.35465 0.0280762 5.21157 0.0280762 5.06239V0.590515C0.0280762 0.441331 0.0873394 0.298257 0.192829 0.192768C0.298318 0.0872784 0.441392 0.0280151 0.590576 0.0280151H5.06245C5.21164 0.0280151 5.35471 0.0872784 5.4602 0.192768C5.56569 0.298257 5.62495 0.441331 5.62495 0.590515C5.62495 0.739699 5.56569 0.882774 5.4602 0.988263C5.35471 1.09375 5.21164 1.15302 5.06245 1.15302H1.94845L6.55645 5.76101C6.6619 5.8665 6.72114 6.00955 6.72114 6.1587C6.72114 6.30786 6.6619 6.45091 6.55645 6.55639Z" fill="#4D4D4D"/>
</svg>
