<svg width="7" height="7" viewBox="0 0 7 7" fill="none" xmlns="http://www.w3.org/2000/svg">
<path fill-rule="evenodd" clip-rule="evenodd" d="M0.745815 0.747429C0.850297 0.64283 0.974371 0.559851 1.11094 0.503236C1.24752 0.446621 1.39391 0.41748 1.54175 0.41748C1.68959 0.41748 1.83599 0.446621 1.97256 0.503236C2.10913 0.559851 2.23321 0.64283 2.33769 0.747429L6.66894 5.07868C6.88004 5.28962 6.99869 5.57579 6.99879 5.87422C6.9989 6.17265 6.88045 6.4589 6.6695 6.66999C6.45856 6.88109 6.17239 6.99974 5.87396 6.99984C5.57553 6.99995 5.28929 6.8815 5.07819 6.67055L0.746939 2.3393C0.642341 2.23482 0.559363 2.11075 0.502748 1.97417C0.446133 1.8376 0.416992 1.69121 0.416992 1.54337C0.416992 1.39552 0.446133 1.24913 0.502748 1.11256C0.559363 0.975985 0.642341 0.851911 0.746939 0.747429H0.745815Z" fill="#4D4D4D"/>
</svg>
