<svg width="12" height="12" viewBox="0 0 12 12" fill="none" xmlns="http://www.w3.org/2000/svg">
<path fill-rule="evenodd" clip-rule="evenodd" d="M6.1875 10.5C6.81949 10.5 7.44528 10.3755 8.02916 10.1337C8.61304 9.89182 9.14357 9.53733 9.59045 9.09045C10.0373 8.64357 10.3918 8.11304 10.6337 7.52916C10.8755 6.94528 11 6.31949 11 5.6875C11 5.05551 10.8755 4.42972 10.6337 3.84584C10.3918 3.26196 10.0373 2.73143 9.59045 2.28455C9.14357 1.83767 8.61304 1.48318 8.02916 1.24133C7.44528 0.999479 6.81949 0.875 6.1875 0.875C4.91115 0.875 3.68707 1.38203 2.78455 2.28455C1.88203 3.18707 1.375 4.41115 1.375 5.6875C1.375 6.96385 1.88203 8.18793 2.78455 9.09045C3.68707 9.99297 4.91115 10.5 6.1875 10.5V10.5ZM11.875 5.6875C11.875 7.19592 11.2758 8.64256 10.2092 9.70917C9.14256 10.7758 7.69592 11.375 6.1875 11.375C4.67908 11.375 3.23244 10.7758 2.16583 9.70917C1.09922 8.64256 0.5 7.19592 0.5 5.6875C0.5 4.17908 1.09922 2.73244 2.16583 1.66583C3.23244 0.599217 4.67908 0 6.1875 0C7.69592 0 9.14256 0.599217 10.2092 1.66583C11.2758 2.73244 11.875 4.17908 11.875 5.6875V5.6875Z" fill="white"/>
</svg>
