<svg width="16" height="13" viewBox="0 0 16 13" fill="none" xmlns="http://www.w3.org/2000/svg">
<path fill-rule="evenodd" clip-rule="evenodd" d="M8 9.24991C8.14918 9.24991 8.29226 9.19064 8.39775 9.08515C8.50324 8.97967 8.5625 8.83659 8.5625 8.68741V2.17028L10.9767 4.58566C11.029 4.63796 11.0911 4.67944 11.1595 4.70775C11.2278 4.73605 11.301 4.75062 11.375 4.75062C11.449 4.75062 11.5222 4.73605 11.5905 4.70775C11.6589 4.67944 11.721 4.63796 11.7733 4.58566C11.8255 4.53336 11.867 4.47127 11.8953 4.40294C11.9236 4.33461 11.9382 4.26137 11.9382 4.18741C11.9382 4.11345 11.9236 4.04021 11.8953 3.97188C11.867 3.90354 11.8255 3.84146 11.7733 3.78916L8.39825 0.414157C8.346 0.361773 8.28393 0.320213 8.21559 0.291855C8.14725 0.263498 8.07399 0.248901 8 0.248901C7.92601 0.248901 7.85275 0.263498 7.78441 0.291855C7.71607 0.320213 7.654 0.361773 7.60175 0.414157L4.22675 3.78916C4.12113 3.89478 4.06179 4.03803 4.06179 4.18741C4.06179 4.33678 4.12113 4.48003 4.22675 4.58566C4.33237 4.69128 4.47563 4.75062 4.625 4.75062C4.77437 4.75062 4.91763 4.69128 5.02325 4.58566L7.4375 2.17028V8.68741C7.4375 8.83659 7.49676 8.97967 7.60225 9.08515C7.70774 9.19064 7.85082 9.24991 8 9.24991ZM0.125 12.0624C0.125 11.9132 0.184263 11.7701 0.289752 11.6647C0.395242 11.5592 0.538316 11.4999 0.6875 11.4999H15.3125C15.4617 11.4999 15.6048 11.5592 15.7102 11.6647C15.8157 11.7701 15.875 11.9132 15.875 12.0624C15.875 12.2116 15.8157 12.3547 15.7102 12.4602C15.6048 12.5656 15.4617 12.6249 15.3125 12.6249H0.6875C0.538316 12.6249 0.395242 12.5656 0.289752 12.4602C0.184263 12.3547 0.125 12.2116 0.125 12.0624Z" fill="#4D4D4D"/>
</svg>
