<svg width="16" height="10" viewBox="0 0 16 10" fill="none" xmlns="http://www.w3.org/2000/svg">
<path fill-rule="evenodd" clip-rule="evenodd" d="M3.10175 0.664157C3.154 0.611773 3.21607 0.570212 3.28441 0.541855C3.35275 0.513498 3.42601 0.498901 3.5 0.498901C3.57399 0.498901 3.64725 0.513498 3.71559 0.541855C3.78393 0.570212 3.846 0.611773 3.89825 0.664157L8 4.76703L12.1017 0.664157C12.2074 0.558534 12.3506 0.499196 12.5 0.499196C12.6494 0.499196 12.7926 0.558534 12.8983 0.664157C13.0039 0.769779 13.0632 0.913034 13.0632 1.06241C13.0632 1.21178 13.0039 1.35503 12.8983 1.46066L8.39825 5.96066C8.346 6.01304 8.28393 6.0546 8.21559 6.08296C8.14725 6.11132 8.07399 6.12591 8 6.12591C7.92601 6.12591 7.85275 6.11132 7.78441 6.08296C7.71607 6.0546 7.654 6.01304 7.60175 5.96066L3.10175 1.46066C3.04937 1.40841 3.00781 1.34633 2.97945 1.27799C2.95109 1.20966 2.93649 1.1364 2.93649 1.06241C2.93649 0.988419 2.95109 0.915157 2.97945 0.846819C3.00781 0.778481 3.04937 0.716408 3.10175 0.664157ZM0.125 8.93741C0.125 8.78822 0.184263 8.64515 0.289752 8.53966C0.395242 8.43417 0.538316 8.37491 0.6875 8.37491H15.3125C15.4617 8.37491 15.6048 8.43417 15.7102 8.53966C15.8157 8.64515 15.875 8.78822 15.875 8.93741C15.875 9.08659 15.8157 9.22967 15.7102 9.33515C15.6048 9.44064 15.4617 9.49991 15.3125 9.49991H0.6875C0.538316 9.49991 0.395242 9.44064 0.289752 9.33515C0.184263 9.22967 0.125 9.08659 0.125 8.93741Z" fill="#4D4D4D"/>
</svg>
