<svg width="15" height="16" viewBox="0 0 15 16" fill="none" xmlns="http://www.w3.org/2000/svg">
<path fill-rule="evenodd" clip-rule="evenodd" d="M0.1875 0.6875C0.1875 0.538316 0.246763 0.395242 0.352252 0.289752C0.457742 0.184263 0.600816 0.125 0.75 0.125H14.25C14.3992 0.125 14.5423 0.184263 14.6477 0.289752C14.7532 0.395242 14.8125 0.538316 14.8125 0.6875V2.9375C14.8125 3.07622 14.7612 3.21004 14.6685 3.31325L9.75 8.7785V14.1875C9.74991 14.3055 9.71271 14.4205 9.64366 14.5162C9.57461 14.6119 9.47721 14.6835 9.36525 14.7207L5.99025 15.8457C5.90573 15.8739 5.81574 15.8816 5.72768 15.8681C5.63961 15.8547 5.556 15.8205 5.48372 15.7685C5.41144 15.7164 5.35256 15.6479 5.31192 15.5686C5.27129 15.4894 5.25007 15.4016 5.25 15.3125V8.7785L0.3315 3.31325C0.238809 3.21004 0.187525 3.07622 0.1875 2.9375V0.6875Z" fill="#2F2F2F"/>
</svg>
