<svg width="8" height="11" viewBox="0 0 8 11" fill="none" xmlns="http://www.w3.org/2000/svg">
<path fill-rule="evenodd" clip-rule="evenodd" d="M4 10.375C4.89511 10.375 5.75355 10.0194 6.38649 9.38649C7.01942 8.75355 7.375 7.89511 7.375 7C7.375 6.10489 7.01942 5.24645 6.38649 4.61351C5.75355 3.98058 4.89511 3.625 4 3.625C3.10489 3.625 2.24645 3.98058 1.61351 4.61351C0.980579 5.24645 0.625 6.10489 0.625 7C0.625 7.89511 0.980579 8.75355 1.61351 9.38649C2.24645 10.0194 3.10489 10.375 4 10.375ZM1.75 0.8125C1.75 0.663316 1.80926 0.520242 1.91475 0.414753C2.02024 0.309263 2.16332 0.25 2.3125 0.25H5.6875C5.83668 0.25 5.97976 0.309263 6.08525 0.414753C6.19074 0.520242 6.25 0.663316 6.25 0.8125C6.25 0.961684 6.19074 1.10476 6.08525 1.21025C5.97976 1.31574 5.83668 1.375 5.6875 1.375H2.3125C2.16332 1.375 2.02024 1.31574 1.91475 1.21025C1.80926 1.10476 1.75 0.961684 1.75 0.8125Z" fill="white"/>
</svg>
