<svg width="19" height="18" viewBox="0 0 19 18" fill="none" xmlns="http://www.w3.org/2000/svg">
<path fill-rule="evenodd" clip-rule="evenodd" d="M4.4375 0C4.58668 0 4.72976 0.0592632 4.83525 0.164752C4.94074 0.270242 5 0.413316 5 0.5625V1.125H14V0.5625C14 0.413316 14.0593 0.270242 14.1648 0.164752C14.2702 0.0592632 14.4133 0 14.5625 0C14.7117 0 14.8548 0.0592632 14.9602 0.164752C15.0657 0.270242 15.125 0.413316 15.125 0.5625V1.125H16.25C16.8467 1.125 17.419 1.36205 17.841 1.78401C18.2629 2.20597 18.5 2.77826 18.5 3.375V15.75C18.5 16.3467 18.2629 16.919 17.841 17.341C17.419 17.7629 16.8467 18 16.25 18H2.75C2.15326 18 1.58097 17.7629 1.15901 17.341C0.737053 16.919 0.5 16.3467 0.5 15.75V3.375C0.5 2.77826 0.737053 2.20597 1.15901 1.78401C1.58097 1.36205 2.15326 1.125 2.75 1.125H3.875V0.5625C3.875 0.413316 3.93426 0.270242 4.03975 0.164752C4.14524 0.0592632 4.28832 0 4.4375 0V0ZM1.625 4.5V15.75C1.625 16.0484 1.74353 16.3345 1.9545 16.5455C2.16548 16.7565 2.45163 16.875 2.75 16.875H16.25C16.5484 16.875 16.8345 16.7565 17.0455 16.5455C17.2565 16.3345 17.375 16.0484 17.375 15.75V4.5H1.625Z" fill="#2F2F2F"/>
</svg>
