<svg width="10" height="8" viewBox="0 0 10 8" fill="none" xmlns="http://www.w3.org/2000/svg">
<path fill-rule="evenodd" clip-rule="evenodd" d="M8.341 0.591321C8.49844 0.435252 8.71099 0.347417 8.93267 0.346805C9.15436 0.346193 9.36738 0.432854 9.52569 0.588053C9.68399 0.743251 9.77485 0.954516 9.77863 1.17617C9.78241 1.39783 9.6988 1.61207 9.54588 1.77257L5.05487 7.38632C4.97769 7.46946 4.88453 7.53617 4.78097 7.58248C4.67741 7.62879 4.56558 7.65375 4.45216 7.65585C4.33874 7.65795 4.22605 7.63715 4.12085 7.59471C4.01565 7.55226 3.92009 7.48904 3.83988 7.40882L0.86425 4.43207C0.781352 4.35483 0.714862 4.26168 0.668747 4.15818C0.622631 4.05468 0.597833 3.94295 0.595834 3.82966C0.593836 3.71637 0.614676 3.60384 0.657112 3.49877C0.699548 3.39371 0.762711 3.29827 0.842832 3.21815C0.922953 3.13803 1.01839 3.07487 1.12345 3.03243C1.22851 2.99 1.34105 2.96916 1.45434 2.97116C1.56763 2.97315 1.67936 2.99795 1.78286 3.04407C1.88635 3.09018 1.97951 3.15667 2.05675 3.23957L4.4125 5.5942L8.31963 0.616071C8.3266 0.607357 8.33411 0.59909 8.34212 0.591321H8.341Z" fill="#66CC99"/>
</svg>
