<svg width="8" height="15" viewBox="0 0 8 15" fill="none" xmlns="http://www.w3.org/2000/svg">
<path fill-rule="evenodd" clip-rule="evenodd" d="M5.875 1.25H2.125C1.95924 1.25 1.80027 1.31585 1.68306 1.43306C1.56585 1.55027 1.5 1.70924 1.5 1.875V3.125C1.5 3.29076 1.56585 3.44973 1.68306 3.56694C1.80027 3.68415 1.95924 3.75 2.125 3.75H5.875C6.04076 3.75 6.19973 3.68415 6.31694 3.56694C6.43415 3.44973 6.5 3.29076 6.5 3.125V1.875C6.5 1.70924 6.43415 1.55027 6.31694 1.43306C6.19973 1.31585 6.04076 1.25 5.875 1.25ZM2.125 0C1.62772 0 1.15081 0.197544 0.799175 0.549175C0.447544 0.900805 0.25 1.37772 0.25 1.875V3.125C0.25 3.62228 0.447544 4.09919 0.799175 4.45083C1.15081 4.80246 1.62772 5 2.125 5H5.875C6.37228 5 6.84919 4.80246 7.20083 4.45083C7.55246 4.09919 7.75 3.62228 7.75 3.125V1.875C7.75 1.37772 7.55246 0.900805 7.20083 0.549175C6.84919 0.197544 6.37228 0 5.875 0L2.125 0ZM4 8.75C4.16576 8.75 4.32473 8.81585 4.44194 8.93306C4.55915 9.05027 4.625 9.20924 4.625 9.375V11.25H6.5C6.66576 11.25 6.82473 11.3158 6.94194 11.4331C7.05915 11.5503 7.125 11.7092 7.125 11.875C7.125 12.0408 7.05915 12.1997 6.94194 12.3169C6.82473 12.4342 6.66576 12.5 6.5 12.5H4.625V14.375C4.625 14.5408 4.55915 14.6997 4.44194 14.8169C4.32473 14.9342 4.16576 15 4 15C3.83424 15 3.67527 14.9342 3.55806 14.8169C3.44085 14.6997 3.375 14.5408 3.375 14.375V12.5H1.5C1.33424 12.5 1.17527 12.4342 1.05806 12.3169C0.940848 12.1997 0.875 12.0408 0.875 11.875C0.875 11.7092 0.940848 11.5503 1.05806 11.4331C1.17527 11.3158 1.33424 11.25 1.5 11.25H3.375V9.375C3.375 9.20924 3.44085 9.05027 3.55806 8.93306C3.67527 8.81585 3.83424 8.75 4 8.75Z" fill="#2F2F2F"/>
</svg>
