<svg width="18" height="19" viewBox="0 0 18 19" fill="none" xmlns="http://www.w3.org/2000/svg">
<path fill-rule="evenodd" clip-rule="evenodd" d="M4 0.875H2.75C2.08696 0.875 1.45107 1.13839 0.982233 1.60723C0.513392 2.07607 0.25 2.71196 0.25 3.375V16.5C0.25 17.163 0.513392 17.7989 0.982233 18.2678C1.45107 18.7366 2.08696 19 2.75 19H15.25C15.913 19 16.5489 18.7366 17.0178 18.2678C17.4866 17.7989 17.75 17.163 17.75 16.5V3.375C17.75 2.71196 17.4866 2.07607 17.0178 1.60723C16.5489 1.13839 15.913 0.875 15.25 0.875H14V2.125H15.25C15.5815 2.125 15.8995 2.2567 16.1339 2.49112C16.3683 2.72554 16.5 3.04348 16.5 3.375V16.5C16.5 16.8315 16.3683 17.1495 16.1339 17.3839C15.8995 17.6183 15.5815 17.75 15.25 17.75H2.75C2.41848 17.75 2.10054 17.6183 1.86612 17.3839C1.6317 17.1495 1.5 16.8315 1.5 16.5V3.375C1.5 3.04348 1.6317 2.72554 1.86612 2.49112C2.10054 2.2567 2.41848 2.125 2.75 2.125H4V0.875Z" fill="#2F2F2F"/>
</svg>
