<svg width="10" height="7" viewBox="0 0 10 7" fill="none" xmlns="http://www.w3.org/2000/svg">
<path d="M1.2695 6.96345V4.37595H3.81313V3.6897H1.2695V1.6512H4.0415V0.964949H0.5V6.96345H1.2695ZM4.9775 6.96345H5.738V4.10257C5.738 3.47932 5.99338 2.9697 6.81013 2.9697C6.95075 2.9697 7.10038 2.9742 7.18025 2.98657V2.29695C7.08565 2.28273 6.99016 2.27521 6.8945 2.27445C6.23975 2.27445 5.89213 2.63445 5.756 2.91232H5.7335V2.34532H4.9775V6.96345ZM8.13313 1.23382C8.13313 1.50157 8.34913 1.71195 8.61688 1.71195C8.68199 1.7151 8.74707 1.70499 8.80816 1.68225C8.86925 1.6595 8.92509 1.62458 8.97229 1.57961C9.01948 1.53464 9.05706 1.48056 9.08273 1.42064C9.10841 1.36071 9.12164 1.2962 9.12164 1.23101C9.12164 1.16582 9.10841 1.10131 9.08273 1.04139C9.05706 0.981465 9.01948 0.92738 8.97229 0.882411C8.92509 0.837442 8.86925 0.802525 8.80816 0.779777C8.74707 0.757029 8.68199 0.746924 8.61688 0.750074C8.55318 0.749473 8.49001 0.761576 8.43104 0.785674C8.37208 0.809772 8.31851 0.845381 8.27347 0.890422C8.22843 0.935463 8.19282 0.98903 8.16873 1.04799C8.14463 1.10696 8.13252 1.17013 8.13313 1.23382ZM8.23888 6.96345H8.99488V2.34532H8.23888V6.96345Z" fill="#2F2F2F"/>
</svg>
