<svg width="7" height="7" viewBox="0 0 7 7" fill="none" xmlns="http://www.w3.org/2000/svg">
<path fill-rule="evenodd" clip-rule="evenodd" d="M0.745815 0.74749C0.850297 0.642891 0.974371 0.559912 1.11094 0.503297C1.24752 0.446682 1.39391 0.417542 1.54175 0.417542C1.68959 0.417542 1.83599 0.446682 1.97256 0.503297C2.10913 0.559912 2.23321 0.642891 2.33769 0.74749L6.66894 5.07874C6.88004 5.28969 6.99869 5.57585 6.99879 5.87428C6.9989 6.17271 6.88045 6.45896 6.6695 6.67005C6.45856 6.88115 6.17239 6.9998 5.87396 6.9999C5.57553 7.00001 5.28929 6.88156 5.07819 6.67061L0.746939 2.33936C0.642341 2.23488 0.559363 2.11081 0.502748 1.97423C0.446133 1.83766 0.416992 1.69127 0.416992 1.54343C0.416992 1.39558 0.446133 1.24919 0.502748 1.11262C0.559363 0.976046 0.642341 0.851972 0.746939 0.74749H0.745815Z" fill="#4D4D4D"/>
</svg>
