<svg width="18" height="18" viewBox="0 0 18 18" fill="none" xmlns="http://www.w3.org/2000/svg">
<path fill-rule="evenodd" clip-rule="evenodd" d="M2.25 0C1.65326 0 1.08097 0.237053 0.65901 0.65901C0.237053 1.08097 0 1.65326 0 2.25L0 15.75C0 16.3467 0.237053 16.919 0.65901 17.341C1.08097 17.7629 1.65326 18 2.25 18H15.75C16.3467 18 16.919 17.7629 17.341 17.341C17.7629 16.919 18 16.3467 18 15.75V2.25C18 1.65326 17.7629 1.08097 17.341 0.65901C16.919 0.237053 16.3467 0 15.75 0L2.25 0ZM9.5625 5.0625C9.5625 4.91332 9.50324 4.77024 9.39775 4.66475C9.29226 4.55926 9.14918 4.5 9 4.5C8.85082 4.5 8.70774 4.55926 8.60225 4.66475C8.49676 4.77024 8.4375 4.91332 8.4375 5.0625V8.4375H5.0625C4.91332 8.4375 4.77024 8.49676 4.66475 8.60225C4.55926 8.70774 4.5 8.85082 4.5 9C4.5 9.14918 4.55926 9.29226 4.66475 9.39775C4.77024 9.50324 4.91332 9.5625 5.0625 9.5625H8.4375V12.9375C8.4375 13.0867 8.49676 13.2298 8.60225 13.3352C8.70774 13.4407 8.85082 13.5 9 13.5C9.14918 13.5 9.29226 13.4407 9.39775 13.3352C9.50324 13.2298 9.5625 13.0867 9.5625 12.9375V9.5625H12.9375C13.0867 9.5625 13.2298 9.50324 13.3352 9.39775C13.4407 9.29226 13.5 9.14918 13.5 9C13.5 8.85082 13.4407 8.70774 13.3352 8.60225C13.2298 8.49676 13.0867 8.4375 12.9375 8.4375H9.5625V5.0625Z" fill="#C5C5C5"/>
</svg>
