<svg width="24" height="16" viewBox="0 0 24 16" fill="none" xmlns="http://www.w3.org/2000/svg">
<path fill-rule="evenodd" clip-rule="evenodd" d="M16.5 2C18.0913 2 19.6174 2.63214 20.7426 3.75736C21.8679 4.88258 22.5 6.4087 22.5 8C22.5 9.5913 21.8679 11.1174 20.7426 12.2426C19.6174 13.3679 18.0913 14 16.5 14H12C12.9322 13.302 13.6887 12.3963 14.2095 11.3547C14.7303 10.3132 15.0009 9.1645 15 8C15.0009 6.8355 14.7303 5.68683 14.2095 4.64526C13.6887 3.6037 12.9322 2.69795 12 2H16.5ZM7.5 14C5.9087 14 4.38258 13.3679 3.25736 12.2426C2.13214 11.1174 1.5 9.5913 1.5 8C1.5 6.4087 2.13214 4.88258 3.25736 3.75736C4.38258 2.63214 5.9087 2 7.5 2C9.0913 2 10.6174 2.63214 11.7426 3.75736C12.8679 4.88258 13.5 6.4087 13.5 8C13.5 9.5913 12.8679 11.1174 11.7426 12.2426C10.6174 13.3679 9.0913 14 7.5 14ZM0 8C0 9.98912 0.790176 11.8968 2.1967 13.3033C3.60322 14.7098 5.51088 15.5 7.5 15.5H16.5C18.4891 15.5 20.3968 14.7098 21.8033 13.3033C23.2098 11.8968 24 9.98912 24 8C24 6.01088 23.2098 4.10322 21.8033 2.6967C20.3968 1.29018 18.4891 0.5 16.5 0.5H7.5C5.51088 0.5 3.60322 1.29018 2.1967 2.6967C0.790176 4.10322 0 6.01088 0 8H0Z" fill="#C5C5C5"/>
</svg>
