<svg width="16" height="17" viewBox="0 0 16 17" fill="none" xmlns="http://www.w3.org/2000/svg">
<path fill-rule="evenodd" clip-rule="evenodd" d="M15.3125 3.375C15.3125 3.67337 15.194 3.95952 14.983 4.1705C14.772 4.38147 14.4859 4.5 14.1875 4.5H13.625V14.625C13.625 15.2217 13.3879 15.794 12.966 16.216C12.544 16.6379 11.9717 16.875 11.375 16.875H4.625C4.02826 16.875 3.45597 16.6379 3.03401 16.216C2.61205 15.794 2.375 15.2217 2.375 14.625V4.5H1.8125C1.51413 4.5 1.22798 4.38147 1.017 4.1705C0.806026 3.95952 0.6875 3.67337 0.6875 3.375V2.25C0.6875 1.95163 0.806026 1.66548 1.017 1.4545C1.22798 1.24353 1.51413 1.125 1.8125 1.125H5.75C5.75 0.826631 5.86853 0.540483 6.0795 0.329505C6.29048 0.118526 6.57663 0 6.875 0L9.125 0C9.42337 0 9.70952 0.118526 9.9205 0.329505C10.1315 0.540483 10.25 0.826631 10.25 1.125H14.1875C14.4859 1.125 14.772 1.24353 14.983 1.4545C15.194 1.66548 15.3125 1.95163 15.3125 2.25V3.375ZM3.63275 4.5L3.5 4.56637V14.625C3.5 14.9234 3.61853 15.2095 3.8295 15.4205C4.04048 15.6315 4.32663 15.75 4.625 15.75H11.375C11.6734 15.75 11.9595 15.6315 12.1705 15.4205C12.3815 15.2095 12.5 14.9234 12.5 14.625V4.56637L12.3673 4.5H3.63275ZM1.8125 3.375V2.25H14.1875V3.375H1.8125Z" fill="#FF3E3E"/>
</svg>
