<svg width="8" height="8" viewBox="0 0 8 8" fill="none" xmlns="http://www.w3.org/2000/svg">
<path fill-rule="evenodd" clip-rule="evenodd" d="M0.227755 0.226657C0.280007 0.174273 0.342079 0.132712 0.410417 0.104355C0.478756 0.0759975 0.552017 0.0614014 0.626005 0.0614014C0.699993 0.0614014 0.773255 0.0759975 0.841593 0.104355C0.909931 0.132712 0.972004 0.174273 1.02426 0.226657L4.001 3.20453L6.97775 0.226657C7.03005 0.174358 7.09214 0.132872 7.16047 0.104568C7.2288 0.0762638 7.30204 0.0616959 7.376 0.0616959C7.44997 0.0616959 7.5232 0.0762638 7.59154 0.104568C7.65987 0.132872 7.72196 0.174358 7.77425 0.226657C7.82655 0.278955 7.86804 0.341043 7.89634 0.409375C7.92465 0.477707 7.93921 0.550945 7.93921 0.624907C7.93921 0.698868 7.92465 0.772106 7.89634 0.840438C7.86804 0.90877 7.82655 0.970858 7.77425 1.02316L4.79638 3.99991L7.77425 6.97666C7.82655 7.02895 7.86804 7.09104 7.89634 7.15937C7.92465 7.22771 7.93921 7.30094 7.93921 7.37491C7.93921 7.44887 7.92465 7.52211 7.89634 7.59044C7.86804 7.65877 7.82655 7.72086 7.77425 7.77316C7.72196 7.82545 7.65987 7.86694 7.59154 7.89524C7.5232 7.92355 7.44997 7.93812 7.376 7.93812C7.30204 7.93812 7.2288 7.92355 7.16047 7.89524C7.09214 7.86694 7.03005 7.82545 6.97775 7.77316L4.001 4.79528L1.02426 7.77316C0.971956 7.82545 0.909869 7.86694 0.841537 7.89524C0.773205 7.92355 0.699967 7.93812 0.626005 7.93812C0.552043 7.93812 0.478806 7.92355 0.410474 7.89524C0.342142 7.86694 0.280054 7.82545 0.227755 7.77316C0.175456 7.72086 0.13397 7.65877 0.105666 7.59044C0.0773624 7.52211 0.0627945 7.44887 0.0627945 7.37491C0.0627945 7.30094 0.0773624 7.22771 0.105666 7.15937C0.13397 7.09104 0.175456 7.02895 0.227755 6.97666L3.20563 3.99991L0.227755 1.02316C0.175372 0.970905 0.133811 0.908833 0.105453 0.840495C0.0770962 0.772156 0.0625 0.698895 0.0625 0.624907C0.0625 0.550918 0.0770962 0.477657 0.105453 0.409319C0.133811 0.34098 0.175372 0.278908 0.227755 0.226657Z" fill="#0F85EC"/>
</svg>
