<svg width="10" height="18" viewBox="0 0 10 18" fill="none" xmlns="http://www.w3.org/2000/svg">
<path fill-rule="evenodd" clip-rule="evenodd" d="M0.556664 1.0574C0.614721 0.999193 0.68369 0.953014 0.759622 0.921506C0.835553 0.889998 0.916955 0.873779 0.999164 0.873779C1.08137 0.873779 1.16277 0.889998 1.23871 0.921506C1.31464 0.953014 1.38361 0.999193 1.44166 1.0574L8.94167 8.5574C8.99987 8.61545 9.04605 8.68442 9.07756 8.76035C9.10906 8.83629 9.12528 8.91769 9.12528 8.9999C9.12528 9.08211 9.10906 9.16351 9.07756 9.23944C9.04605 9.31537 8.99987 9.38434 8.94167 9.4424L1.44166 16.9424C1.32431 17.0598 1.16513 17.1257 0.999164 17.1257C0.833194 17.1257 0.674022 17.0598 0.556664 16.9424C0.439305 16.825 0.373374 16.6659 0.373374 16.4999C0.373374 16.3339 0.439305 16.1748 0.556664 16.0574L7.61542 8.9999L0.556664 1.9424C0.49846 1.88434 0.452281 1.81537 0.420773 1.73944C0.389265 1.66351 0.373047 1.58211 0.373047 1.4999C0.373047 1.41769 0.389265 1.33629 0.420773 1.26035C0.452281 1.18442 0.49846 1.11545 0.556664 1.0574Z" fill="#4D4D4D"/>
</svg>
