<svg width="6" height="11" viewBox="0 0 6 11" fill="none" xmlns="http://www.w3.org/2000/svg">
<path fill-rule="evenodd" clip-rule="evenodd" d="M0.38625 1.26425C0.257719 1.25476 0.128881 1.25001 0 1.25V0.5C0.147403 0.500072 0.294752 0.505576 0.44175 0.5165L0.38625 1.26425ZM1.88925 1.60175C1.64883 1.50898 1.40192 1.43403 1.1505 1.3775L1.31475 0.6455C1.602 0.71 1.88475 0.7955 2.15925 0.902L1.88925 1.60175ZM2.91675 2.13425C2.80952 2.06274 2.69969 1.99519 2.5875 1.93175L2.95725 1.27925C3.21368 1.42455 3.45909 1.58849 3.6915 1.76975L3.23025 2.3615C3.12857 2.28217 3.024 2.20662 2.91675 2.135V2.13425ZM4.29225 3.47675C4.1439 3.26598 3.9802 3.06644 3.8025 2.87975L4.3455 2.36225C4.548 2.576 4.7355 2.80475 4.90575 3.04475L4.29225 3.47675ZM4.85025 4.49075C4.80102 4.37184 4.74749 4.25477 4.68975 4.13975L5.3595 3.80225C5.49195 4.06556 5.60476 4.33831 5.697 4.61825L4.9845 4.853C4.94419 4.73065 4.89941 4.60982 4.85025 4.49075ZM5.24775 6.371C5.24168 6.11326 5.21662 5.85631 5.17275 5.60225L5.9115 5.47475C5.96175 5.76425 5.991 6.05825 5.9985 6.35225L5.2485 6.371H5.24775ZM5.1495 7.5245C5.17425 7.397 5.1945 7.27025 5.21025 7.142L5.955 7.23425C5.91898 7.52687 5.86132 7.81641 5.7825 8.1005L5.0595 7.90025C5.094 7.7765 5.124 7.65125 5.1495 7.5245ZM4.4355 9.30875C4.5735 9.09125 4.695 8.86325 4.8 8.62775L5.4855 8.9315C5.3655 9.2015 5.22675 9.461 5.06925 9.71L4.4355 9.30875ZM3.7125 10.2125C3.804 10.121 3.89175 10.0265 3.975 9.929L4.5435 10.4188C4.44723 10.5304 4.34691 10.6384 4.24275 10.7428L3.7125 10.2125Z" fill="#4D4D4D"/>
</svg>
