<svg width="18" height="18" viewBox="0 0 18 18" fill="none" xmlns="http://www.w3.org/2000/svg">
<path fill-rule="evenodd" clip-rule="evenodd" d="M18 8.5C18 12.8492 13.9703 16.375 9 16.375C8.10861 16.3762 7.22091 16.2605 6.35962 16.0308C5.70262 16.3638 4.194 17.0028 1.656 17.419C1.431 17.455 1.26 17.221 1.34888 17.0117C1.74713 16.0712 2.10713 14.818 2.21513 13.675C0.837 12.2913 0 10.48 0 8.5C0 4.15075 4.02975 0.625 9 0.625C13.9703 0.625 18 4.15075 18 8.5ZM5.625 8.5C5.625 8.79837 5.50647 9.08452 5.2955 9.2955C5.08452 9.50647 4.79837 9.625 4.5 9.625C4.20163 9.625 3.91548 9.50647 3.7045 9.2955C3.49353 9.08452 3.375 8.79837 3.375 8.5C3.375 8.20163 3.49353 7.91548 3.7045 7.7045C3.91548 7.49353 4.20163 7.375 4.5 7.375C4.79837 7.375 5.08452 7.49353 5.2955 7.7045C5.50647 7.91548 5.625 8.20163 5.625 8.5ZM10.125 8.5C10.125 8.79837 10.0065 9.08452 9.7955 9.2955C9.58452 9.50647 9.29837 9.625 9 9.625C8.70163 9.625 8.41548 9.50647 8.2045 9.2955C7.99353 9.08452 7.875 8.79837 7.875 8.5C7.875 8.20163 7.99353 7.91548 8.2045 7.7045C8.41548 7.49353 8.70163 7.375 9 7.375C9.29837 7.375 9.58452 7.49353 9.7955 7.7045C10.0065 7.91548 10.125 8.20163 10.125 8.5ZM13.5 9.625C13.7984 9.625 14.0845 9.50647 14.2955 9.2955C14.5065 9.08452 14.625 8.79837 14.625 8.5C14.625 8.20163 14.5065 7.91548 14.2955 7.7045C14.0845 7.49353 13.7984 7.375 13.5 7.375C13.2016 7.375 12.9155 7.49353 12.7045 7.7045C12.4935 7.91548 12.375 8.20163 12.375 8.5C12.375 8.79837 12.4935 9.08452 12.7045 9.2955C12.9155 9.50647 13.2016 9.625 13.5 9.625Z" fill="#4D4D4D"/>
</svg>
