<svg width="12" height="16" viewBox="0 0 12 16" fill="none" xmlns="http://www.w3.org/2000/svg">
<path fill-rule="evenodd" clip-rule="evenodd" d="M2 0H10C10.5304 0 11.0391 0.210714 11.4142 0.585786C11.7893 0.960859 12 1.46957 12 2V14C12 14.5304 11.7893 15.0391 11.4142 15.4142C11.0391 15.7893 10.5304 16 10 16H2C1.46957 16 0.960859 15.7893 0.585786 15.4142C0.210714 15.0391 0 14.5304 0 14V2C0 1.46957 0.210714 0.960859 0.585786 0.585786C0.960859 0.210714 1.46957 0 2 0V0ZM2 1C1.73478 1 1.48043 1.10536 1.29289 1.29289C1.10536 1.48043 1 1.73478 1 2V12L3.224 9.776C3.30282 9.69737 3.40562 9.6473 3.51612 9.63371C3.62661 9.62012 3.73849 9.64381 3.834 9.701L6 11L8.157 7.98C8.19921 7.92098 8.25375 7.87184 8.31685 7.83602C8.37996 7.80019 8.4501 7.77853 8.52241 7.77253C8.59473 7.76654 8.66748 7.77636 8.73562 7.8013C8.80376 7.82625 8.86565 7.86573 8.917 7.917L11 10V2C11 1.73478 10.8946 1.48043 10.7071 1.29289C10.5196 1.10536 10.2652 1 10 1H2Z" fill="#2F2F2F"/>
</svg>
