<svg width="11" height="13" viewBox="0 0 11 13" fill="none" xmlns="http://www.w3.org/2000/svg">
<path fill-rule="evenodd" clip-rule="evenodd" d="M6.00039 1.25C5.13705 1.25006 4.28705 1.46304 3.52567 1.87005C2.7643 2.27707 2.11505 2.86558 1.63543 3.58344C1.15582 4.3013 0.860635 5.12636 0.776035 5.98555C0.691436 6.84473 0.820028 7.71152 1.15042 8.50914C1.48082 9.30676 2.00282 10.0106 2.67018 10.5583C3.33755 11.106 4.12969 11.4807 4.97644 11.6491C5.82319 11.8175 6.69841 11.7746 7.52458 11.524C8.35076 11.2734 9.10238 10.8229 9.71289 10.2125L10.2431 10.7428C9.54544 11.4408 8.68633 11.956 7.74192 12.2427C6.79751 12.5294 5.79697 12.5788 4.82894 12.3864C3.86091 12.1939 2.95528 11.7657 2.1923 11.1397C1.42932 10.5136 0.832541 9.709 0.45484 8.79717C0.0771399 7.88533 -0.0698205 6.89441 0.0269803 5.9122C0.123781 4.92999 0.461354 3.98683 1.00979 3.16626C1.55823 2.3457 2.30059 1.67308 3.17111 1.208C4.04163 0.742921 5.01342 0.499738 6.00039 0.5V1.25Z" fill="#4D4D4D"/>
</svg>
