<svg width="9" height="6" viewBox="0 0 9 6" fill="none" xmlns="http://www.w3.org/2000/svg">
<path d="M3.58341 0.3125C3.16334 0.31228 2.74936 0.412874 2.37623 0.605832C2.00311 0.79879 1.68174 1.07848 1.43913 1.42139C1.19651 1.76431 1.03974 2.16045 0.98197 2.57652C0.924205 2.9926 0.967136 3.41646 1.10716 3.8125H2.06791C1.91432 3.54647 1.83345 3.2447 1.83345 2.93751C1.83345 2.63033 1.91431 2.32855 2.0679 2.06252C2.22149 1.79649 2.4424 1.57557 2.70842 1.42197C2.97445 1.26837 3.27622 1.18751 3.58341 1.1875H6.20841C6.67254 1.1875 7.11766 1.37187 7.44584 1.70006C7.77403 2.02825 7.95841 2.47337 7.95841 2.9375C7.95841 3.40163 7.77403 3.84675 7.44584 4.17494C7.11766 4.50313 6.67254 4.6875 6.20841 4.6875H4.86528C4.67491 5.01598 4.4326 5.31147 4.14778 5.5625H6.20841C6.55313 5.5625 6.89447 5.4946 7.21295 5.36268C7.53143 5.23077 7.82081 5.03741 8.06456 4.79366C8.30832 4.5499 8.50167 4.26052 8.63359 3.94204C8.76551 3.62356 8.83341 3.28222 8.83341 2.9375C8.83341 2.59278 8.76551 2.25144 8.63359 1.93296C8.50167 1.61448 8.30832 1.3251 8.06456 1.08135C7.82081 0.837591 7.53143 0.644235 7.21295 0.512317C6.89447 0.380398 6.55313 0.3125 6.20841 0.3125H3.58341Z" fill="#4D4D4D"/>
</svg>
