<svg width="9" height="6" viewBox="0 0 9 6" fill="none" xmlns="http://www.w3.org/2000/svg">
<path d="M5.26776 0.3125H3.20801C2.51181 0.3125 1.84414 0.589062 1.35185 1.08134C0.859569 1.57363 0.583008 2.24131 0.583008 2.9375C0.583008 3.63369 0.859569 4.30137 1.35185 4.79366C1.84414 5.28594 2.51181 5.5625 3.20801 5.5625H5.83301C6.25307 5.56272 6.66706 5.46213 7.04018 5.26917C7.41331 5.07621 7.73468 4.79652 7.97729 4.45361C8.2199 4.11069 8.37668 3.71455 8.43445 3.29848C8.49221 2.8824 8.44928 2.45854 8.30926 2.0625H7.58301C7.50776 2.0625 7.43426 2.07125 7.36426 2.08963C7.51183 2.35607 7.5873 2.65641 7.58322 2.96096C7.57913 3.26551 7.49563 3.56373 7.34097 3.82612C7.18632 4.08851 6.96585 4.30599 6.70138 4.45706C6.43691 4.60813 6.13759 4.68756 5.83301 4.6875H3.20801C2.74388 4.6875 2.29876 4.50312 1.97057 4.17494C1.64238 3.84675 1.45801 3.40163 1.45801 2.9375C1.45801 2.47337 1.64238 2.02825 1.97057 1.70006C2.29876 1.37187 2.74388 1.1875 3.20801 1.1875H4.55113C4.74188 0.8585 4.98426 0.56275 5.26863 0.3125H5.26776Z" fill="#4D4D4D"/>
</svg>
