<svg width="24" height="25" viewBox="0 0 24 25" fill="none" xmlns="http://www.w3.org/2000/svg">
<g clip-path="url(#clip0_68_823)">
<path d="M7.5 5C7.5 3.80653 7.97411 2.66193 8.81802 1.81802C9.66193 0.974106 10.8065 0.5 12 0.5C13.1935 0.5 14.3381 0.974106 15.182 1.81802C16.0259 2.66193 16.5 3.80653 16.5 5V12.5C16.5 13.6935 16.0259 14.8381 15.182 15.682C14.3381 16.5259 13.1935 17 12 17C10.8065 17 9.66193 16.5259 8.81802 15.682C7.97411 14.8381 7.5 13.6935 7.5 12.5V5Z" fill="#4D4D4D"/>
<path fill-rule="evenodd" clip-rule="evenodd" d="M5.25 10.25C5.44891 10.25 5.63968 10.329 5.78033 10.4697C5.92098 10.6103 6 10.8011 6 11V12.5C6 14.0913 6.63214 15.6174 7.75736 16.7426C8.88258 17.8679 10.4087 18.5 12 18.5C13.5913 18.5 15.1174 17.8679 16.2426 16.7426C17.3679 15.6174 18 14.0913 18 12.5V11C18 10.8011 18.079 10.6103 18.2197 10.4697C18.3603 10.329 18.5511 10.25 18.75 10.25C18.9489 10.25 19.1397 10.329 19.2803 10.4697C19.421 10.6103 19.5 10.8011 19.5 11V12.5C19.5 14.3593 18.8094 16.1523 17.5622 17.5312C16.3149 18.9101 14.6 19.7766 12.75 19.9625V23H17.25C17.4489 23 17.6397 23.079 17.7803 23.2197C17.921 23.3603 18 23.5511 18 23.75C18 23.9489 17.921 24.1397 17.7803 24.2803C17.6397 24.421 17.4489 24.5 17.25 24.5H6.75C6.55109 24.5 6.36032 24.421 6.21967 24.2803C6.07902 24.1397 6 23.9489 6 23.75C6 23.5511 6.07902 23.3603 6.21967 23.2197C6.36032 23.079 6.55109 23 6.75 23H11.25V19.9625C9.40003 19.7766 7.68506 18.9101 6.43782 17.5312C5.19058 16.1523 4.49998 14.3593 4.5 12.5V11C4.5 10.8011 4.57902 10.6103 4.71967 10.4697C4.86032 10.329 5.05109 10.25 5.25 10.25Z" fill="#4D4D4D"/>
</g>
<defs>
<clipPath id="clip0_68_823">
<rect width="24" height="24" fill="white" transform="translate(0 0.5)"/>
</clipPath>
</defs>
</svg>
