<svg width="16" height="15" viewBox="0 0 16 15" fill="none" xmlns="http://www.w3.org/2000/svg">
<path fill-rule="evenodd" clip-rule="evenodd" d="M1.25 0.25C1.44891 0.25 1.63968 0.329018 1.78033 0.46967C1.92098 0.610322 2 0.801088 2 1V2.5C2 4.0913 2.63214 5.61742 3.75736 6.74264C4.88258 7.86786 6.4087 8.5 8 8.5C9.5913 8.5 11.1174 7.86786 12.2426 6.74264C13.3679 5.61742 14 4.0913 14 2.5V1C14 0.801088 14.079 0.610322 14.2197 0.46967C14.3603 0.329018 14.5511 0.25 14.75 0.25C14.9489 0.25 15.1397 0.329018 15.2803 0.46967C15.421 0.610322 15.5 0.801088 15.5 1V2.5C15.5 4.35929 14.8094 6.15232 13.5622 7.53121C12.3149 8.91011 10.6 9.77657 8.75 9.9625V13H13.25C13.4489 13 13.6397 13.079 13.7803 13.2197C13.921 13.3603 14 13.5511 14 13.75C14 13.9489 13.921 14.1397 13.7803 14.2803C13.6397 14.421 13.4489 14.5 13.25 14.5H2.75C2.55109 14.5 2.36032 14.421 2.21967 14.2803C2.07902 14.1397 2 13.9489 2 13.75C2 13.5511 2.07902 13.3603 2.21967 13.2197C2.36032 13.079 2.55109 13 2.75 13H7.25V9.9625C5.40003 9.77657 3.68506 8.91011 2.43782 7.53121C1.19058 6.15232 0.499977 4.35929 0.5 2.5V1C0.5 0.801088 0.579018 0.610322 0.71967 0.46967C0.860322 0.329018 1.05109 0.25 1.25 0.25Z" fill="#4D4D4D"/>
</svg>
