<svg width="18" height="18" viewBox="0 0 18 18" fill="none" xmlns="http://www.w3.org/2000/svg">
<path fill-rule="evenodd" clip-rule="evenodd" d="M18 2.3772C18 1.78046 17.7629 1.20816 17.341 0.786207C16.919 0.36425 16.3467 0.127197 15.75 0.127197L2.25 0.127197C1.65326 0.127197 1.08097 0.36425 0.65901 0.786207C0.237053 1.20816 0 1.78046 0 2.3772L0 11.3772C0 11.9739 0.237053 12.5462 0.65901 12.9682C1.08097 13.3901 1.65326 13.6272 2.25 13.6272H13.0343C13.3326 13.6273 13.6187 13.7458 13.8296 13.9568L17.0392 17.1664C17.1179 17.2452 17.2181 17.299 17.3272 17.3208C17.4364 17.3426 17.5495 17.3316 17.6524 17.289C17.7552 17.2465 17.8432 17.1744 17.9051 17.0819C17.9669 16.9894 18 16.8806 18 16.7693V2.3772ZM3.9375 3.5022C3.78832 3.5022 3.64524 3.56146 3.53975 3.66695C3.43426 3.77244 3.375 3.91551 3.375 4.0647C3.375 4.21388 3.43426 4.35696 3.53975 4.46244C3.64524 4.56793 3.78832 4.6272 3.9375 4.6272H14.0625C14.2117 4.6272 14.3548 4.56793 14.4602 4.46244C14.5657 4.35696 14.625 4.21388 14.625 4.0647C14.625 3.91551 14.5657 3.77244 14.4602 3.66695C14.3548 3.56146 14.2117 3.5022 14.0625 3.5022H3.9375ZM3.9375 6.3147C3.78832 6.3147 3.64524 6.37396 3.53975 6.47945C3.43426 6.58494 3.375 6.72801 3.375 6.8772C3.375 7.02638 3.43426 7.16946 3.53975 7.27494C3.64524 7.38043 3.78832 7.4397 3.9375 7.4397H14.0625C14.2117 7.4397 14.3548 7.38043 14.4602 7.27494C14.5657 7.16946 14.625 7.02638 14.625 6.8772C14.625 6.72801 14.5657 6.58494 14.4602 6.47945C14.3548 6.37396 14.2117 6.3147 14.0625 6.3147H3.9375ZM3.9375 9.1272C3.78832 9.1272 3.64524 9.18646 3.53975 9.29195C3.43426 9.39744 3.375 9.54051 3.375 9.6897C3.375 9.83888 3.43426 9.98196 3.53975 10.0874C3.64524 10.1929 3.78832 10.2522 3.9375 10.2522H9.5625C9.71168 10.2522 9.85476 10.1929 9.96025 10.0874C10.0657 9.98196 10.125 9.83888 10.125 9.6897C10.125 9.54051 10.0657 9.39744 9.96025 9.29195C9.85476 9.18646 9.71168 9.1272 9.5625 9.1272H3.9375Z" fill="white"/>
</svg>
