<svg width="18" height="19" viewBox="0 0 18 19" fill="none" xmlns="http://www.w3.org/2000/svg">
<path fill-rule="evenodd" clip-rule="evenodd" d="M0 9.51367C0 7.12672 0.948212 4.83754 2.63604 3.14971C4.32387 1.46188 6.61305 0.513672 9 0.513672C11.3869 0.513672 13.6761 1.46188 15.364 3.14971C17.0518 4.83754 18 7.12672 18 9.51367C18 11.9006 17.0518 14.1898 15.364 15.8776C13.6761 17.5655 11.3869 18.5137 9 18.5137C6.61305 18.5137 4.32387 17.5655 2.63604 15.8776C0.948212 14.1898 0 11.9006 0 9.51367ZM8.4375 1.7253C7.68375 1.9548 6.93563 2.6478 6.31462 3.81217C6.11002 4.19928 5.93405 4.60085 5.78813 5.01367H8.4375V1.7253ZM4.60125 5.01367H2.53688C3.39976 3.77575 4.599 2.81073 5.99288 2.23267C5.74041 2.56341 5.51577 2.91448 5.32125 3.2823C5.04338 3.8043 4.8015 4.3848 4.60125 5.01367ZM3.9465 8.95117H1.14525C1.215 7.94992 1.47263 7.00155 1.88325 6.13867H4.2975C4.09406 7.06335 3.97656 8.00486 3.9465 8.95117ZM5.45288 6.13867H8.4375V8.95117H5.07375C5.10459 8.00332 5.23124 7.06103 5.45175 6.13867H5.45288ZM9.5625 6.13867V8.95117H12.9262C12.8951 8.00328 12.7681 7.06098 12.5471 6.13867H9.5625ZM5.07375 10.0762H8.4375V12.8887H5.45288C5.2316 11.9664 5.10421 11.0241 5.07262 10.0762H5.07375ZM9.5625 10.0762V12.8887H12.5471C12.7575 12.028 12.8914 11.0797 12.9274 10.0762H9.5625ZM5.78813 14.0137H8.4375V17.302C7.68375 17.0725 6.93563 16.3795 6.31462 15.2152C6.11002 14.8281 5.93405 14.4265 5.78813 14.0137ZM5.99288 16.7947C5.7404 16.4639 5.51575 16.1129 5.32125 15.745C5.02974 15.1907 4.78876 14.6112 4.60125 14.0137H2.53688C3.39971 15.2516 4.59897 16.2167 5.99288 16.7947ZM4.2975 12.8887H1.88325C1.46376 12.0055 1.21344 11.0515 1.14525 10.0762H3.9465C3.98025 11.0628 4.10175 12.0089 4.2975 12.8887ZM12.0071 16.7947C13.401 16.2167 14.6003 15.2516 15.4631 14.0137H13.3988C13.2112 14.6112 12.9703 15.1907 12.6788 15.745C12.4843 16.1129 12.2596 16.464 12.0071 16.7947ZM9.5625 14.0137H12.2119C12.066 14.4265 11.89 14.8281 11.6854 15.2152C11.0644 16.3795 10.3151 17.0714 9.5625 17.302V14.0137ZM13.7025 12.8887H16.1168C16.5274 12.0258 16.785 11.0774 16.8547 10.0762H14.0535C14.0235 11.0225 13.906 11.964 13.7025 12.8887ZM16.8547 8.95117H14.0535C14.0235 8.00486 13.906 7.06335 13.7025 6.13867H16.1168C16.5274 7.00155 16.785 7.94992 16.8547 8.95117ZM12.6788 3.2823C12.9566 3.8043 13.1985 4.3848 13.3988 5.01367H15.4631C14.6003 3.7757 13.401 2.81067 12.0071 2.23267C12.2524 2.55217 12.4774 2.90542 12.6788 3.2823ZM12.2119 5.01367H9.5625V1.7253C10.3162 1.9548 11.0644 2.6478 11.6854 3.81217C11.88 4.17667 12.0566 4.57942 12.2119 5.01367Z" fill="white"/>
</svg>
