<svg width="14" height="19" viewBox="0 0 14 19" fill="none" xmlns="http://www.w3.org/2000/svg">
<path fill-rule="evenodd" clip-rule="evenodd" d="M11.5 0.127197H2.5C1.90326 0.127197 1.33097 0.36425 0.90901 0.786207C0.487053 1.20816 0.25 1.78046 0.25 2.3772V15.8772C0.25 16.4739 0.487053 17.0462 0.90901 17.4682C1.33097 17.8901 1.90326 18.1272 2.5 18.1272H11.5C12.0967 18.1272 12.669 17.8901 13.091 17.4682C13.5129 17.0462 13.75 16.4739 13.75 15.8772V2.3772C13.75 1.78046 13.5129 1.20816 13.091 0.786207C12.669 0.36425 12.0967 0.127197 11.5 0.127197V0.127197ZM10.375 8.0022C10.375 8.8973 10.0194 9.75575 9.38649 10.3887C8.75355 11.0216 7.89511 11.3772 7 11.3772C6.10489 11.3772 5.24645 11.0216 4.61351 10.3887C3.98058 9.75575 3.625 8.8973 3.625 8.0022C3.625 7.10709 3.98058 6.24865 4.61351 5.61571C5.24645 4.98278 6.10489 4.6272 7 4.6272C7.89511 4.6272 8.75355 4.98278 9.38649 5.61571C10.0194 6.24865 10.375 7.10709 10.375 8.0022ZM7 12.5022C9.95087 12.5022 11.6643 13.4314 12.625 14.4766V15.8772C12.625 16.1756 12.5065 16.4617 12.2955 16.6727C12.0845 16.8837 11.7984 17.0022 11.5 17.0022H2.5C2.20163 17.0022 1.91548 16.8837 1.7045 16.6727C1.49353 16.4617 1.375 16.1756 1.375 15.8772V14.4766C2.33575 13.4303 4.04913 12.5022 7 12.5022Z" fill="white"/>
</svg>
