<svg width="10" height="12" viewBox="0 0 10 12" fill="none" xmlns="http://www.w3.org/2000/svg">
<path d="M1.875 0.375C2.37228 0.375 2.84919 0.572544 3.20083 0.924175C3.55246 1.27581 3.75 1.75272 3.75 2.25V9.75C3.75 10.2473 3.55246 10.7242 3.20083 11.0758C2.84919 11.4275 2.37228 11.625 1.875 11.625C1.37772 11.625 0.900805 11.4275 0.549175 11.0758C0.197544 10.7242 1.04794e-08 10.2473 0 9.75V2.25C0 1.75272 0.197544 1.27581 0.549175 0.924175C0.900805 0.572544 1.37772 0.375 1.875 0.375ZM8.125 0.375C8.62228 0.375 9.09919 0.572544 9.45083 0.924175C9.80246 1.27581 10 1.75272 10 2.25V9.75C10 10.2473 9.80246 10.7242 9.45083 11.0758C9.09919 11.4275 8.62228 11.625 8.125 11.625C7.62772 11.625 7.15081 11.4275 6.79917 11.0758C6.44754 10.7242 6.25 10.2473 6.25 9.75V2.25C6.25 1.75272 6.44754 1.27581 6.79917 0.924175C7.15081 0.572544 7.62772 0.375 8.125 0.375Z" fill="#4D4D4D"/>
</svg>
