<svg width="12" height="13" viewBox="0 0 12 13" fill="none" xmlns="http://www.w3.org/2000/svg">
<path d="M11.5017 1.93991C11.5951 2.03363 11.6476 2.16057 11.6476 2.2929C11.6476 2.42524 11.5951 2.55218 11.5017 2.6459L10.4587 3.6899L8.45872 1.68991L9.50172 0.645905C9.59548 0.552169 9.72263 0.499512 9.85522 0.499512C9.9878 0.499512 10.115 0.552169 10.2087 0.645905L11.5017 1.93891V1.93991ZM9.75172 4.3959L7.75172 2.3959L0.938716 9.2099C0.883678 9.26493 0.842245 9.33204 0.817716 9.4059L0.0127158 11.8199C-0.00188341 11.8639 -0.00395628 11.9111 0.0067291 11.9562C0.0174145 12.0014 0.0404372 12.0426 0.0732236 12.0754C0.10601 12.1082 0.147268 12.1312 0.192387 12.1419C0.237506 12.1526 0.284707 12.1505 0.328716 12.1359L2.74272 11.3309C2.81648 11.3067 2.88359 11.2656 2.93872 11.2109L9.75172 4.3969V4.3959Z" fill="#2F2F2F"/>
</svg>
