<svg width="16" height="4" viewBox="0 0 16 4" fill="none" xmlns="http://www.w3.org/2000/svg">
<path fill-rule="evenodd" clip-rule="evenodd" d="M2.375 3.6875C1.92745 3.6875 1.49822 3.50971 1.18176 3.19324C0.86529 2.87678 0.6875 2.44755 0.6875 2C0.6875 1.55245 0.86529 1.12322 1.18176 0.806757C1.49822 0.490289 1.92745 0.3125 2.375 0.3125C2.82255 0.3125 3.25178 0.490289 3.56824 0.806757C3.88471 1.12322 4.0625 1.55245 4.0625 2C4.0625 2.44755 3.88471 2.87678 3.56824 3.19324C3.25178 3.50971 2.82255 3.6875 2.375 3.6875ZM8 3.6875C7.55245 3.6875 7.12322 3.50971 6.80676 3.19324C6.49029 2.87678 6.3125 2.44755 6.3125 2C6.3125 1.55245 6.49029 1.12322 6.80676 0.806757C7.12322 0.490289 7.55245 0.3125 8 0.3125C8.44755 0.3125 8.87678 0.490289 9.19324 0.806757C9.50971 1.12322 9.6875 1.55245 9.6875 2C9.6875 2.44755 9.50971 2.87678 9.19324 3.19324C8.87678 3.50971 8.44755 3.6875 8 3.6875ZM13.625 3.6875C13.1774 3.6875 12.7482 3.50971 12.4318 3.19324C12.1153 2.87678 11.9375 2.44755 11.9375 2C11.9375 1.55245 12.1153 1.12322 12.4318 0.806757C12.7482 0.490289 13.1774 0.3125 13.625 0.3125C14.0726 0.3125 14.5018 0.490289 14.8182 0.806757C15.1347 1.12322 15.3125 1.55245 15.3125 2C15.3125 2.44755 15.1347 2.87678 14.8182 3.19324C14.5018 3.50971 14.0726 3.6875 13.625 3.6875Z" fill="#4D4D4D"/>
</svg>
