<svg width="17" height="19" viewBox="0 0 17 19" fill="none" xmlns="http://www.w3.org/2000/svg">
<path fill-rule="evenodd" clip-rule="evenodd" d="M6.81198 0.5C6.66279 0.5 6.51972 0.559263 6.41423 0.664752C6.30874 0.770242 6.24948 0.913316 6.24948 1.0625C6.24948 1.21168 6.30874 1.35476 6.41423 1.46025C6.51972 1.56574 6.66279 1.625 6.81198 1.625H7.37448V2.82875C5.40398 3.11355 3.61447 4.13406 2.36598 5.68493C1.11749 7.23581 0.50267 9.20197 0.64523 11.1878C0.787789 13.1737 1.67715 15.0319 3.13436 16.3885C4.59157 17.7452 6.50851 18.4996 8.49948 18.5C10.4929 18.5036 12.4135 17.7511 13.8739 16.3942C15.3342 15.0374 16.2257 13.1772 16.3684 11.1889C16.5112 9.20059 15.8946 7.23214 14.643 5.68061C13.3914 4.12908 11.598 3.10993 9.62447 2.82875V1.625H10.187C10.3362 1.625 10.4792 1.56574 10.5847 1.46025C10.6902 1.35476 10.7495 1.21168 10.7495 1.0625C10.7495 0.913316 10.6902 0.770242 10.5847 0.664752C10.4792 0.559263 10.3362 0.5 10.187 0.5H6.81198ZM9.06198 6.8C9.06198 6.65082 9.00271 6.50774 8.89722 6.40225C8.79173 6.29676 8.64866 6.2375 8.49948 6.2375C8.35029 6.2375 8.20722 6.29676 8.10173 6.40225C7.99624 6.50774 7.93698 6.65082 7.93698 6.8V10.0625H4.56198C4.41279 10.0625 4.26972 10.1218 4.16423 10.2273C4.05874 10.3327 3.99948 10.4758 3.99948 10.625C3.99948 10.7742 4.05874 10.9173 4.16423 11.0227C4.26972 11.1282 4.41279 11.1875 4.56198 11.1875H8.49948C8.64866 11.1875 8.79173 11.1282 8.89722 11.0227C9.00271 10.9173 9.06198 10.7742 9.06198 10.625V6.8Z" fill="#4D4D4D"/>
</svg>
