<svg width="10" height="9" viewBox="0 0 10 9" fill="none" xmlns="http://www.w3.org/2000/svg">
<path fill-rule="evenodd" clip-rule="evenodd" d="M0.808617 0.307396C0.866674 0.249192 0.935643 0.203013 1.01157 0.171505C1.08751 0.139997 1.16891 0.123779 1.25112 0.123779C1.33333 0.123779 1.41473 0.139997 1.49066 0.171505C1.56659 0.203013 1.63556 0.249192 1.69362 0.307396L5.00112 3.61615L8.30862 0.307396C8.36673 0.249286 8.43571 0.203191 8.51164 0.171742C8.58756 0.140293 8.66894 0.124107 8.75112 0.124107C8.8333 0.124107 8.91467 0.140293 8.9906 0.171742C9.06652 0.203191 9.13551 0.249286 9.19362 0.307396C9.25173 0.365506 9.29782 0.434492 9.32927 0.510417C9.36072 0.586341 9.37691 0.667716 9.37691 0.749896C9.37691 0.832076 9.36072 0.913451 9.32927 0.989376C9.29782 1.0653 9.25173 1.13429 9.19362 1.1924L5.88487 4.4999L9.19362 7.8074C9.25173 7.86551 9.29782 7.93449 9.32927 8.01042C9.36072 8.08634 9.37691 8.16772 9.37691 8.2499C9.37691 8.33208 9.36072 8.41345 9.32927 8.48938C9.29782 8.5653 9.25173 8.63429 9.19362 8.6924C9.13551 8.75051 9.06652 8.7966 8.9906 8.82805C8.91467 8.8595 8.8333 8.87568 8.75112 8.87568C8.66894 8.87568 8.58756 8.8595 8.51164 8.82805C8.43571 8.7966 8.36673 8.75051 8.30862 8.6924L5.00112 5.38365L1.69362 8.6924C1.63551 8.75051 1.56652 8.7966 1.4906 8.82805C1.41467 8.8595 1.3333 8.87568 1.25112 8.87568C1.16894 8.87568 1.08756 8.8595 1.01164 8.82805C0.935713 8.7966 0.866727 8.75051 0.808617 8.6924C0.750507 8.63429 0.704412 8.5653 0.672963 8.48938C0.641514 8.41345 0.625327 8.33208 0.625327 8.2499C0.625327 8.16772 0.641514 8.08634 0.672963 8.01042C0.704412 7.93449 0.750507 7.86551 0.808617 7.8074L4.11737 4.4999L0.808617 1.1924C0.750413 1.13434 0.704234 1.06537 0.672726 0.989438C0.641218 0.913507 0.625 0.832105 0.625 0.749896C0.625 0.667687 0.641218 0.586286 0.672726 0.510354C0.704234 0.434423 0.750413 0.365453 0.808617 0.307396Z" fill="#4D4D4D"/>
</svg>
