<svg width="13" height="9" viewBox="0 0 13 9" fill="none" xmlns="http://www.w3.org/2000/svg">
<path d="M7.94413 6.91234L11.9411 4.04147C12.0353 3.98583 12.1133 3.90662 12.1675 3.81164C12.2217 3.71666 12.2502 3.60919 12.2502 3.49984C12.2502 3.39049 12.2217 3.28302 12.1675 3.18804C12.1133 3.09306 12.0353 3.01385 11.9411 2.95822L7.94413 0.0873401C7.84885 0.0312979 7.74043 0.00146304 7.6299 0.000863704C7.51936 0.000264365 7.41063 0.0289219 7.31474 0.0839276C7.21886 0.138933 7.13924 0.218329 7.08396 0.314054C7.02868 0.409779 6.99972 0.518426 7 0.628965V1.74984C5.6875 1.74984 1.75 1.74984 0.875 8.74984C3.0625 4.81234 7 5.24984 7 5.24984V6.37072C7 6.86072 7.53025 7.15647 7.94413 6.91322V6.91234Z" fill="#4D4D4D"/>
</svg>
