<svg width="12" height="13" viewBox="0 0 12 13" fill="none" xmlns="http://www.w3.org/2000/svg">
<path fill-rule="evenodd" clip-rule="evenodd" d="M1.70065 1.23498C1.82365 1.11197 1.97141 1.01651 2.13411 0.95495C2.29681 0.893389 2.47074 0.867127 2.64436 0.877908C2.81799 0.888688 2.98734 0.936265 3.14117 1.01748C3.29501 1.0987 3.42982 1.21169 3.53665 1.34898L4.7974 2.97048C5.02915 3.26748 5.1109 3.65523 5.0194 4.02048L4.63465 5.56023C4.61465 5.64013 4.61566 5.72384 4.63761 5.80323C4.65956 5.88261 4.70169 5.95496 4.7599 6.01323L6.4879 7.74048C6.54617 7.79869 6.61852 7.84082 6.69791 7.86277C6.77729 7.88472 6.86101 7.88574 6.9409 7.86573L8.4799 7.48098C8.66042 7.4359 8.84882 7.43245 9.03086 7.47092C9.2129 7.50938 9.3838 7.58873 9.53065 7.70298L11.1522 8.96373C11.7349 9.41673 11.7889 10.2785 11.2669 10.7997L10.5394 11.5272C10.0197 12.047 9.2419 12.2757 8.51665 12.0207C6.66146 11.3677 4.97707 10.3055 3.5884 8.91273C2.19538 7.52414 1.13286 5.83974 0.479654 3.98448C0.224654 3.25923 0.453404 2.48148 0.973154 1.96098L1.70065 1.23423V1.23498Z" fill="#4D4D4D"/>
</svg>
