<svg width="13" height="13" viewBox="0 0 13 13" fill="none" xmlns="http://www.w3.org/2000/svg">
<path fill-rule="evenodd" clip-rule="evenodd" d="M10.1433 0.605034C10.073 0.534733 9.9776 0.495239 9.87816 0.495239C9.77872 0.495239 9.68336 0.534733 9.61304 0.605034L8.37778 1.84028L11.158 4.62053L12.3933 3.38603C12.4282 3.3512 12.4559 3.30982 12.4748 3.26426C12.4937 3.2187 12.5035 3.16986 12.5035 3.12053C12.5035 3.07121 12.4937 3.02237 12.4748 2.97681C12.4559 2.93125 12.4282 2.88987 12.3933 2.85503L10.1433 0.605034ZM10.6278 5.15078L7.84753 2.37053L2.97253 7.24553H3.12778C3.22724 7.24553 3.32262 7.28504 3.39295 7.35537C3.46328 7.42569 3.50278 7.52108 3.50278 7.62053V7.99553H3.87778C3.97724 7.99553 4.07262 8.03504 4.14295 8.10537C4.21328 8.17569 4.25278 8.27108 4.25278 8.37053V8.74553H4.62778C4.72724 8.74553 4.82262 8.78504 4.89295 8.85537C4.96328 8.92569 5.00278 9.02108 5.00278 9.12053V9.49553H5.37778C5.47724 9.49553 5.57262 9.53504 5.64295 9.60537C5.71328 9.67569 5.75278 9.77108 5.75278 9.87053V10.0258L10.6278 5.15078ZM5.02678 10.7518C5.011 10.7098 5.00287 10.6654 5.00278 10.6205V10.2455H4.62778C4.52833 10.2455 4.43295 10.206 4.36262 10.1357C4.29229 10.0654 4.25278 9.96999 4.25278 9.87053V9.49553H3.87778C3.77833 9.49553 3.68295 9.45603 3.61262 9.3857C3.54229 9.31537 3.50278 9.21999 3.50278 9.12053V8.74553H3.12778C3.02833 8.74553 2.93295 8.70603 2.86262 8.6357C2.79229 8.56537 2.75278 8.46999 2.75278 8.37053V7.99553H2.37778C2.33295 7.99546 2.28849 7.98733 2.24653 7.97153L2.11228 8.10503C2.07655 8.14102 2.04848 8.18389 2.02978 8.23103L0.529784 11.981C0.502506 12.0492 0.495829 12.1238 0.510579 12.1957C0.52533 12.2677 0.56086 12.3336 0.612765 12.3856C0.66467 12.4375 0.730667 12.473 0.802574 12.4877C0.874481 12.5025 0.949136 12.4958 1.01728 12.4685L4.76728 10.9685C4.81443 10.9498 4.8573 10.9218 4.89328 10.886L5.02678 10.7525V10.7518Z" fill="#4D4D4D"/>
</svg>
