<svg width="8" height="9" viewBox="0 0 8 9" fill="none" xmlns="http://www.w3.org/2000/svg">
<path fill-rule="evenodd" clip-rule="evenodd" d="M2.5 1.125C2.5 0.826631 2.61853 0.540483 2.8295 0.329505C3.04048 0.118526 3.32663 0 3.625 0H4.375C4.67337 0 4.95952 0.118526 5.1705 0.329505C5.38147 0.540483 5.5 0.826631 5.5 1.125V1.875C5.5 2.17337 5.38147 2.45952 5.1705 2.6705C4.95952 2.88147 4.67337 3 4.375 3V3.75H6.25C6.34946 3.75 6.44484 3.78951 6.51517 3.85984C6.58549 3.93016 6.625 4.02554 6.625 4.125V4.875C6.625 4.97446 6.58549 5.06984 6.51517 5.14017C6.44484 5.21049 6.34946 5.25 6.25 5.25C6.15054 5.25 6.05516 5.21049 5.98483 5.14017C5.91451 5.06984 5.875 4.97446 5.875 4.875V4.5H2.125V4.875C2.125 4.97446 2.08549 5.06984 2.01516 5.14017C1.94484 5.21049 1.84946 5.25 1.75 5.25C1.65054 5.25 1.55516 5.21049 1.48484 5.14017C1.41451 5.06984 1.375 4.97446 1.375 4.875V4.125C1.375 4.02554 1.41451 3.93016 1.48484 3.85984C1.55516 3.78951 1.65054 3.75 1.75 3.75H3.625V3C3.32663 3 3.04048 2.88147 2.8295 2.6705C2.61853 2.45952 2.5 2.17337 2.5 1.875V1.125ZM0.25 7.125C0.25 6.82663 0.368526 6.54048 0.579505 6.3295C0.790483 6.11853 1.07663 6 1.375 6H2.125C2.42337 6 2.70952 6.11853 2.9205 6.3295C3.13147 6.54048 3.25 6.82663 3.25 7.125V7.875C3.25 8.17337 3.13147 8.45952 2.9205 8.6705C2.70952 8.88147 2.42337 9 2.125 9H1.375C1.07663 9 0.790483 8.88147 0.579505 8.6705C0.368526 8.45952 0.25 8.17337 0.25 7.875V7.125ZM4.75 7.125C4.75 6.82663 4.86853 6.54048 5.0795 6.3295C5.29048 6.11853 5.57663 6 5.875 6H6.625C6.92337 6 7.20952 6.11853 7.4205 6.3295C7.63147 6.54048 7.75 6.82663 7.75 7.125V7.875C7.75 8.17337 7.63147 8.45952 7.4205 8.6705C7.20952 8.88147 6.92337 9 6.625 9H5.875C5.57663 9 5.29048 8.88147 5.0795 8.6705C4.86853 8.45952 4.75 8.17337 4.75 7.875V7.125Z" fill="#4D4D4D"/>
</svg>
