<svg width="12" height="13" viewBox="0 0 12 13" fill="none" xmlns="http://www.w3.org/2000/svg">
<g clip-path="url(#clip0_68_962)">
<path fill-rule="evenodd" clip-rule="evenodd" d="M6.38625 1.26425C6.25772 1.25476 6.12888 1.25001 6 1.25V0.5C6.1474 0.500072 6.29475 0.505576 6.44175 0.5165L6.38625 1.26425ZM7.88925 1.60175C7.64883 1.50898 7.40192 1.43403 7.1505 1.3775L7.31475 0.6455C7.602 0.71 7.88475 0.7955 8.15925 0.902L7.88925 1.60175ZM8.91675 2.13425C8.80952 2.06274 8.69969 1.99519 8.5875 1.93175L8.95725 1.27925C9.21368 1.42455 9.45909 1.58849 9.6915 1.76975L9.23025 2.3615C9.12857 2.28217 9.024 2.20662 8.91675 2.135V2.13425ZM10.2922 3.47675C10.1439 3.26598 9.9802 3.06644 9.8025 2.87975L10.3455 2.36225C10.548 2.576 10.7355 2.80475 10.9057 3.04475L10.2922 3.47675ZM10.8502 4.49075C10.801 4.37184 10.7475 4.25477 10.6897 4.13975L11.3595 3.80225C11.4919 4.06556 11.6048 4.33831 11.697 4.61825L10.9845 4.853C10.9442 4.73065 10.8994 4.60982 10.8502 4.49075ZM11.2477 6.371C11.2417 6.11326 11.2166 5.85631 11.1727 5.60225L11.9115 5.47475C11.9617 5.76425 11.991 6.05825 11.9985 6.35225L11.2485 6.371H11.2477ZM11.1495 7.5245C11.1742 7.397 11.1945 7.27025 11.2102 7.142L11.955 7.23425C11.919 7.52687 11.8613 7.81641 11.7825 8.1005L11.0595 7.90025C11.094 7.7765 11.124 7.65125 11.1495 7.5245ZM10.4355 9.30875C10.5735 9.09125 10.695 8.86325 10.8 8.62775L11.4855 8.9315C11.3655 9.2015 11.2267 9.461 11.0692 9.71L10.4355 9.30875ZM9.7125 10.2125C9.804 10.121 9.89175 10.0265 9.975 9.929L10.5435 10.4188C10.4472 10.5304 10.3469 10.6384 10.2427 10.7428L9.7125 10.2125Z" fill="#4D4D4D"/>
<path fill-rule="evenodd" clip-rule="evenodd" d="M6.00039 1.25C5.13705 1.25006 4.28705 1.46304 3.52567 1.87005C2.7643 2.27707 2.11505 2.86558 1.63543 3.58344C1.15582 4.3013 0.860635 5.12636 0.776035 5.98555C0.691436 6.84473 0.820028 7.71152 1.15042 8.50914C1.48082 9.30676 2.00282 10.0106 2.67018 10.5583C3.33755 11.106 4.12969 11.4807 4.97644 11.6491C5.82319 11.8175 6.69841 11.7746 7.52458 11.524C8.35076 11.2734 9.10238 10.8229 9.71289 10.2125L10.2431 10.7428C9.54544 11.4408 8.68633 11.956 7.74192 12.2427C6.79751 12.5294 5.79697 12.5788 4.82894 12.3864C3.86091 12.1939 2.95528 11.7657 2.1923 11.1397C1.42932 10.5136 0.832541 9.709 0.45484 8.79717C0.0771399 7.88533 -0.0698205 6.89441 0.0269803 5.9122C0.123781 4.92999 0.461354 3.98683 1.00979 3.16626C1.55823 2.3457 2.30059 1.67308 3.17111 1.208C4.04163 0.742921 5.01342 0.499738 6.00039 0.5V1.25Z" fill="#4D4D4D"/>
<path fill-rule="evenodd" clip-rule="evenodd" d="M5.625 2.75C5.72446 2.75 5.81984 2.78951 5.89017 2.85984C5.96049 2.93016 6 3.02554 6 3.125V7.0325L8.436 8.4245C8.51984 8.47508 8.58058 8.55645 8.60522 8.65122C8.62987 8.74598 8.61647 8.84663 8.56789 8.93165C8.5193 9.01667 8.4394 9.07931 8.34524 9.10619C8.25108 9.13307 8.15014 9.12206 8.064 9.0755L5.439 7.5755C5.3816 7.54271 5.33389 7.49534 5.3007 7.43818C5.26751 7.38102 5.25002 7.3161 5.25 7.25V3.125C5.25 3.02554 5.28951 2.93016 5.35984 2.85984C5.43016 2.78951 5.52554 2.75 5.625 2.75Z" fill="#4D4D4D"/>
</g>
<defs>
<clipPath id="clip0_68_962">
<rect width="12" height="12" fill="white" transform="translate(0 0.5)"/>
</clipPath>
</defs>
</svg>
