<svg width="14" height="15" viewBox="0 0 14 15" fill="none" xmlns="http://www.w3.org/2000/svg">
<path d="M5.26776 5.3125H3.20801C2.51181 5.3125 1.84414 5.58906 1.35185 6.08134C0.859569 6.57363 0.583008 7.24131 0.583008 7.9375C0.583008 8.63369 0.859569 9.30137 1.35185 9.79366C1.84414 10.2859 2.51181 10.5625 3.20801 10.5625H5.83301C6.25307 10.5627 6.66706 10.4621 7.04018 10.2692C7.41331 10.0762 7.73468 9.79652 7.97729 9.45361C8.2199 9.11069 8.37668 8.71455 8.43445 8.29848C8.49221 7.8824 8.44928 7.45854 8.30926 7.0625H7.58301C7.50776 7.0625 7.43426 7.07125 7.36426 7.08963C7.51183 7.35607 7.5873 7.65641 7.58322 7.96096C7.57913 8.26551 7.49563 8.56373 7.34097 8.82612C7.18632 9.08851 6.96585 9.30599 6.70138 9.45706C6.43691 9.60813 6.13759 9.68756 5.83301 9.6875H3.20801C2.74388 9.6875 2.29876 9.50312 1.97057 9.17494C1.64238 8.84675 1.45801 8.40163 1.45801 7.9375C1.45801 7.47337 1.64238 7.02825 1.97057 6.70006C2.29876 6.37187 2.74388 6.1875 3.20801 6.1875H4.55113C4.74188 5.8585 4.98426 5.56275 5.26863 5.3125H5.26776Z" fill="#4D4D4D"/>
<path d="M7.58341 5.3125C7.16334 5.31228 6.74936 5.41287 6.37623 5.60583C6.00311 5.79879 5.68174 6.07848 5.43913 6.42139C5.19651 6.76431 5.03974 7.16045 4.98197 7.57652C4.9242 7.9926 4.96714 8.41646 5.10716 8.8125H6.06791C5.91432 8.54647 5.83345 8.2447 5.83345 7.93751C5.83345 7.63033 5.91431 7.32855 6.0679 7.06252C6.22149 6.79649 6.4424 6.57557 6.70842 6.42197C6.97445 6.26837 7.27622 6.18751 7.58341 6.1875H10.2084C10.6725 6.1875 11.1177 6.37187 11.4458 6.70006C11.774 7.02825 11.9584 7.47337 11.9584 7.9375C11.9584 8.40163 11.774 8.84675 11.4458 9.17494C11.1177 9.50313 10.6725 9.6875 10.2084 9.6875H8.86528C8.67491 10.016 8.4326 10.3115 8.14778 10.5625H10.2084C10.5531 10.5625 10.8945 10.4946 11.213 10.3627C11.5314 10.2308 11.8208 10.0374 12.0646 9.79366C12.3083 9.5499 12.5017 9.26052 12.6336 8.94204C12.7655 8.62356 12.8334 8.28222 12.8334 7.9375C12.8334 7.59278 12.7655 7.25144 12.6336 6.93296C12.5017 6.61448 12.3083 6.3251 12.0646 6.08135C11.8208 5.83759 11.5314 5.64424 11.213 5.51232C10.8945 5.3804 10.5531 5.3125 10.2084 5.3125H7.58341Z" fill="#4D4D4D"/>
</svg>
