<svg width="12" height="8" viewBox="0 0 12 8" fill="none" xmlns="http://www.w3.org/2000/svg">
<path fill-rule="evenodd" clip-rule="evenodd" d="M0.375 0.9375C0.375 0.788316 0.434263 0.645242 0.539753 0.539753C0.645242 0.434263 0.788316 0.375 0.9375 0.375H11.0625C11.2117 0.375 11.3548 0.434263 11.4602 0.539753C11.5657 0.645242 11.625 0.788316 11.625 0.9375C11.625 1.08668 11.5657 1.22976 11.4602 1.33525C11.3548 1.44074 11.2117 1.5 11.0625 1.5H0.9375C0.788316 1.5 0.645242 1.44074 0.539753 1.33525C0.434263 1.22976 0.375 1.08668 0.375 0.9375ZM0.375 3.75C0.375 3.60082 0.434263 3.45774 0.539753 3.35225C0.645242 3.24676 0.788316 3.1875 0.9375 3.1875H11.0625C11.2117 3.1875 11.3548 3.24676 11.4602 3.35225C11.5657 3.45774 11.625 3.60082 11.625 3.75C11.625 3.89918 11.5657 4.04226 11.4602 4.14775C11.3548 4.25324 11.2117 4.3125 11.0625 4.3125H0.9375C0.788316 4.3125 0.645242 4.25324 0.539753 4.14775C0.434263 4.04226 0.375 3.89918 0.375 3.75ZM0.375 6.5625C0.375 6.41332 0.434263 6.27024 0.539753 6.16475C0.645242 6.05926 0.788316 6 0.9375 6H6.5625C6.71168 6 6.85476 6.05926 6.96025 6.16475C7.06574 6.27024 7.125 6.41332 7.125 6.5625C7.125 6.71168 7.06574 6.85476 6.96025 6.96025C6.85476 7.06574 6.71168 7.125 6.5625 7.125H0.9375C0.788316 7.125 0.645242 7.06574 0.539753 6.96025C0.434263 6.85476 0.375 6.71168 0.375 6.5625Z" fill="#4D4D4D"/>
</svg>
