<svg width="24" height="25" viewBox="0 0 24 25" fill="none" xmlns="http://www.w3.org/2000/svg">
<path d="M6 15.5H3C2.17157 15.5 1.5 16.1716 1.5 17V21.5C1.5 22.3284 2.17157 23 3 23H6C6.82843 23 7.5 22.3284 7.5 21.5V17C7.5 16.1716 6.82843 15.5 6 15.5Z" fill="#4D4D4D"/>
<path d="M13.5 9.5H10.5C9.67157 9.5 9 10.1716 9 11V21.5C9 22.3284 9.67157 23 10.5 23H13.5C14.3284 23 15 22.3284 15 21.5V11C15 10.1716 14.3284 9.5 13.5 9.5Z" fill="#4D4D4D"/>
<path d="M21 2H18C17.1716 2 16.5 2.67157 16.5 3.5V21.5C16.5 22.3284 17.1716 23 18 23H21C21.8284 23 22.5 22.3284 22.5 21.5V3.5C22.5 2.67157 21.8284 2 21 2Z" fill="#4D4D4D"/>
</svg>
