<svg width="25" height="24" viewBox="0 0 25 24" fill="none" xmlns="http://www.w3.org/2000/svg">
<path fill-rule="evenodd" clip-rule="evenodd" d="M0.5 3.5C0.5 2.70435 0.816071 1.94129 1.37868 1.37868C1.94129 0.816071 2.70435 0.5 3.5 0.5L21.5 0.5C22.2956 0.5 23.0587 0.816071 23.6213 1.37868C24.1839 1.94129 24.5 2.70435 24.5 3.5V15.5C24.5 16.2957 24.1839 17.0587 23.6213 17.6213C23.0587 18.1839 22.2956 18.5 21.5 18.5H7.121C6.72321 18.5001 6.34174 18.6582 6.0605 18.9395L1.781 23.219C1.6762 23.3241 1.54258 23.3957 1.39705 23.4248C1.25153 23.4539 1.10065 23.4392 0.963499 23.3825C0.82635 23.3258 0.709103 23.2297 0.626596 23.1063C0.544089 22.983 0.500032 22.8379 0.5 22.6895V3.5ZM8 9.5C8 9.89783 7.84196 10.2794 7.56066 10.5607C7.27936 10.842 6.89782 11 6.5 11C6.10218 11 5.72064 10.842 5.43934 10.5607C5.15804 10.2794 5 9.89783 5 9.5C5 9.10218 5.15804 8.72064 5.43934 8.43934C5.72064 8.15804 6.10218 8 6.5 8C6.89782 8 7.27936 8.15804 7.56066 8.43934C7.84196 8.72064 8 9.10218 8 9.5ZM14 9.5C14 9.89783 13.842 10.2794 13.5607 10.5607C13.2794 10.842 12.8978 11 12.5 11C12.1022 11 11.7206 10.842 11.4393 10.5607C11.158 10.2794 11 9.89783 11 9.5C11 9.10218 11.158 8.72064 11.4393 8.43934C11.7206 8.15804 12.1022 8 12.5 8C12.8978 8 13.2794 8.15804 13.5607 8.43934C13.842 8.72064 14 9.10218 14 9.5ZM18.5 11C18.8978 11 19.2794 10.842 19.5607 10.5607C19.842 10.2794 20 9.89783 20 9.5C20 9.10218 19.842 8.72064 19.5607 8.43934C19.2794 8.15804 18.8978 8 18.5 8C18.1022 8 17.7206 8.15804 17.4393 8.43934C17.158 8.72064 17 9.10218 17 9.5C17 9.89783 17.158 10.2794 17.4393 10.5607C17.7206 10.842 18.1022 11 18.5 11Z" fill="#F5F5F5"/>
</svg>
