<svg width="18" height="18" viewBox="0 0 18 18" fill="none" xmlns="http://www.w3.org/2000/svg">
<g clip-path="url(#clip0_79_1366)">
<path fill-rule="evenodd" clip-rule="evenodd" d="M6.75 14.0625C6.75 14.2117 6.80926 14.3548 6.91475 14.4602C7.02024 14.5657 7.16332 14.625 7.3125 14.625H16.3125C16.4617 14.625 16.6048 14.5657 16.7102 14.4602C16.8157 14.3548 16.875 14.2117 16.875 14.0625V3.9375C16.875 3.78832 16.8157 3.64524 16.7102 3.53975C16.6048 3.43426 16.4617 3.375 16.3125 3.375H7.3125C7.16332 3.375 7.02024 3.43426 6.91475 3.53975C6.80926 3.64524 6.75 3.78832 6.75 3.9375V6.1875C6.75 6.33668 6.69074 6.47976 6.58525 6.58525C6.47976 6.69074 6.33668 6.75 6.1875 6.75C6.03832 6.75 5.89524 6.69074 5.78975 6.58525C5.68426 6.47976 5.625 6.33668 5.625 6.1875V3.9375C5.625 3.48995 5.80279 3.06072 6.11926 2.74426C6.43572 2.42779 6.86495 2.25 7.3125 2.25H16.3125C16.7601 2.25 17.1893 2.42779 17.5057 2.74426C17.8222 3.06072 18 3.48995 18 3.9375V14.0625C18 14.5101 17.8222 14.9393 17.5057 15.2557C17.1893 15.5722 16.7601 15.75 16.3125 15.75H7.3125C6.86495 15.75 6.43572 15.5722 6.11926 15.2557C5.80279 14.9393 5.625 14.5101 5.625 14.0625V11.8125C5.625 11.6633 5.68426 11.5202 5.78975 11.4148C5.89524 11.3093 6.03832 11.25 6.1875 11.25C6.33668 11.25 6.47976 11.3093 6.58525 11.4148C6.69074 11.5202 6.75 11.6633 6.75 11.8125V14.0625Z" fill="#4D4D4D"/>
<path fill-rule="evenodd" clip-rule="evenodd" d="M0.164157 9.39811C0.111773 9.34586 0.0702125 9.28378 0.0418553 9.21544C0.013498 9.14711 -0.00109863 9.07384 -0.00109863 8.99986C-0.00109863 8.92587 0.013498 8.85261 0.0418553 8.78427C0.0702125 8.71593 0.111773 8.65386 0.164157 8.60161L3.53916 5.22661C3.59146 5.17431 3.65354 5.13282 3.72188 5.10452C3.79021 5.07621 3.86345 5.06165 3.93741 5.06165C4.01137 5.06165 4.08461 5.07621 4.15294 5.10452C4.22127 5.13282 4.28336 5.17431 4.33566 5.22661C4.38796 5.27891 4.42944 5.34099 4.45775 5.40932C4.48605 5.47766 4.50062 5.55089 4.50062 5.62486C4.50062 5.69882 4.48605 5.77206 4.45775 5.84039C4.42944 5.90872 4.38796 5.97081 4.33566 6.02311L1.92028 8.43736H11.8124C11.9616 8.43736 12.1047 8.49662 12.2102 8.60211C12.3156 8.7076 12.3749 8.85067 12.3749 8.99986C12.3749 9.14904 12.3156 9.29212 12.2102 9.3976C12.1047 9.50309 11.9616 9.56236 11.8124 9.56236H1.92028L4.33566 11.9766C4.38796 12.0289 4.42944 12.091 4.45775 12.1593C4.48605 12.2277 4.50062 12.3009 4.50062 12.3749C4.50062 12.4488 4.48605 12.5221 4.45775 12.5904C4.42944 12.6587 4.38796 12.7208 4.33566 12.7731C4.28336 12.8254 4.22127 12.8669 4.15294 12.8952C4.08461 12.9235 4.01137 12.9381 3.93741 12.9381C3.86345 12.9381 3.79021 12.9235 3.72188 12.8952C3.65354 12.8669 3.59146 12.8254 3.53916 12.7731L0.164157 9.39811Z" fill="#4D4D4D"/>
</g>
<defs>
<clipPath id="clip0_79_1366">
<rect width="18" height="18" fill="white"/>
</clipPath>
</defs>
</svg>
