<svg width="21" height="24" viewBox="0 0 21 24" fill="none" xmlns="http://www.w3.org/2000/svg">
<path fill-rule="evenodd" clip-rule="evenodd" d="M5.0325 0.282999C5.22266 0.225518 5.42786 0.24583 5.60306 0.339476C5.77826 0.433123 5.90915 0.592453 5.967 0.782499L6.4035 2.2165C7.62137 1.42066 9.04516 0.997851 10.5 0.999999C12.0105 0.999999 13.419 1.447 14.5965 2.2165L15.0315 0.782499C15.0595 0.687607 15.106 0.599195 15.1684 0.522359C15.2307 0.445522 15.3076 0.381779 15.3947 0.334802C15.4818 0.287824 15.5773 0.258541 15.6757 0.248639C15.7742 0.238736 15.8736 0.248411 15.9683 0.277105C16.063 0.305799 16.1511 0.352945 16.2275 0.415828C16.3039 0.47871 16.367 0.556086 16.4134 0.643498C16.4598 0.730909 16.4884 0.826629 16.4976 0.925143C16.5068 1.02366 16.4964 1.12302 16.467 1.2175L15.852 3.2455C17.2308 4.64657 18.0025 6.53425 18 8.5H18.75C18.9489 8.5 19.1397 8.42098 19.2803 8.28033C19.421 8.13968 19.5 7.94891 19.5 7.75V7C19.5 6.80109 19.579 6.61032 19.7197 6.46967C19.8603 6.32902 20.0511 6.25 20.25 6.25C20.4489 6.25 20.6397 6.32902 20.7803 6.46967C20.921 6.61032 21 6.80109 21 7V7.75C21 8.34674 20.7629 8.91903 20.341 9.34099C19.919 9.76295 19.3467 10 18.75 10H18V11.5H20.25C20.4489 11.5 20.6397 11.579 20.7803 11.7197C20.921 11.8603 21 12.0511 21 12.25C21 12.4489 20.921 12.6397 20.7803 12.7803C20.6397 12.921 20.4489 13 20.25 13H18V14.5H18.75C19.3467 14.5 19.919 14.7371 20.341 15.159C20.7629 15.581 21 16.1533 21 16.75V17.5C21 17.6989 20.921 17.8897 20.7803 18.0303C20.6397 18.171 20.4489 18.25 20.25 18.25C20.0511 18.25 19.8603 18.171 19.7197 18.0303C19.579 17.8897 19.5 17.6989 19.5 17.5V16.75C19.5 16.5511 19.421 16.3603 19.2803 16.2197C19.1397 16.079 18.9489 16 18.75 16H18C18 17.9891 17.2098 19.8968 15.8033 21.3033C14.3968 22.7098 12.4891 23.5 10.5 23.5C8.51088 23.5 6.60322 22.7098 5.1967 21.3033C3.79018 19.8968 3 17.9891 3 16H2.25C2.05109 16 1.86032 16.079 1.71967 16.2197C1.57902 16.3603 1.5 16.5511 1.5 16.75V17.5C1.5 17.6989 1.42098 17.8897 1.28033 18.0303C1.13968 18.171 0.948912 18.25 0.75 18.25C0.551088 18.25 0.360322 18.171 0.21967 18.0303C0.0790176 17.8897 0 17.6989 0 17.5V16.75C0 16.1533 0.237053 15.581 0.65901 15.159C1.08097 14.7371 1.65326 14.5 2.25 14.5H3V13H0.75C0.551088 13 0.360322 12.921 0.21967 12.7803C0.0790176 12.6397 0 12.4489 0 12.25C0 12.0511 0.0790176 11.8603 0.21967 11.7197C0.360322 11.579 0.551088 11.5 0.75 11.5H3V10H2.25C1.65326 10 1.08097 9.76295 0.65901 9.34099C0.237053 8.91903 0 8.34674 0 7.75V7C0 6.80109 0.0790176 6.61032 0.21967 6.46967C0.360322 6.32902 0.551088 6.25 0.75 6.25C0.948912 6.25 1.13968 6.32902 1.28033 6.46967C1.42098 6.61032 1.5 6.80109 1.5 7V7.75C1.5 7.94891 1.57902 8.13968 1.71967 8.28033C1.86032 8.42098 2.05109 8.5 2.25 8.5H3C3 6.454 3.8205 4.5985 5.148 3.2455L4.533 1.2175C4.47552 1.02734 4.49583 0.822143 4.58948 0.646943C4.68312 0.471743 4.84245 0.340853 5.0325 0.282999ZM4.5 10V16C4.4995 17.4618 5.03264 18.8734 5.99932 19.9699C6.96599 21.0664 8.2997 21.7723 9.75 21.955V10H4.5ZM11.25 10V21.955C12.7003 21.7723 14.034 21.0664 15.0007 19.9699C15.9674 18.8734 16.5005 17.4618 16.5 16V10H11.25ZM16.5 8.5H4.5C4.49887 7.65556 4.67644 6.82044 5.02106 6.04952C5.36567 5.27859 5.86952 4.58932 6.4995 4.027C7.59853 3.0412 9.02363 2.49723 10.5 2.5C12.0375 2.5 13.4385 3.0775 14.499 4.027C15.1293 4.58913 15.6335 5.27833 15.9784 6.04927C16.3233 6.82021 16.501 7.65543 16.5 8.5Z" fill="#4D4D4D"/>
</svg>
