<svg width="25" height="24" viewBox="0 0 25 24" fill="none" xmlns="http://www.w3.org/2000/svg">
<g clip-path="url(#clip0_26_543)">
<path d="M15.242 6C14.0491 5.99935 12.9053 5.5251 12.062 4.6815L10.817 3.4395C10.5365 3.15891 10.1563 3.00088 9.7595 3H4.25C3.85706 2.99993 3.47979 3.15405 3.19929 3.42922C2.91879 3.70439 2.75747 4.07864 2.75 4.4715L2.819 6H1.319L1.25 4.5C1.25 3.70435 1.56607 2.94129 2.12868 2.37868C2.69129 1.81607 3.45435 1.5 4.25 1.5H9.758C10.5536 1.50017 11.3165 1.81635 11.879 2.379L13.121 3.621C13.6835 4.18365 14.4464 4.49983 15.242 4.5V6Z" fill="#4D4D4D"/>
<path fill-rule="evenodd" clip-rule="evenodd" d="M21.2145 6H3.78452C3.57615 5.99999 3.37006 6.04339 3.17939 6.12744C2.98873 6.21149 2.81766 6.33434 2.6771 6.48816C2.53654 6.64199 2.42958 6.82341 2.36302 7.02086C2.29646 7.21832 2.27177 7.42747 2.29052 7.635L3.24602 18.135C3.2797 18.5077 3.45147 18.8543 3.72761 19.1069C4.00375 19.3594 4.36431 19.4996 4.73852 19.5H20.2605C20.6347 19.4996 20.9953 19.3594 21.2714 19.1069C21.5476 18.8543 21.7193 18.5077 21.753 18.135L22.7085 7.635C22.7273 7.42747 22.7026 7.21832 22.636 7.02086C22.5695 6.82341 22.4625 6.64199 22.3219 6.48816C22.1814 6.33434 22.0103 6.21149 21.8196 6.12744C21.629 6.04339 21.4229 5.99999 21.2145 6ZM3.78452 4.5C3.36764 4.49996 2.95533 4.5868 2.57388 4.75499C2.19243 4.92317 1.85022 5.16902 1.56908 5.47683C1.28794 5.78465 1.07404 6.14768 0.941026 6.54276C0.808008 6.93785 0.758793 7.35633 0.796521 7.7715L1.75202 18.2715C1.81976 19.0169 2.16366 19.71 2.71622 20.2148C3.26877 20.7197 3.99008 20.9997 4.73852 21H20.2605C21.009 20.9997 21.7303 20.7197 22.2828 20.2148C22.8354 19.71 23.1793 19.0169 23.247 18.2715L24.2025 7.7715C24.2402 7.35633 24.191 6.93785 24.058 6.54276C23.925 6.14768 23.7111 5.78465 23.43 5.47683C23.1488 5.16902 22.8066 4.92317 22.4252 4.75499C22.0437 4.5868 21.6314 4.49996 21.2145 4.5H3.78452Z" fill="#111111"/>
</g>
<defs>
<clipPath id="clip0_26_543">
<rect width="24" height="24" fill="white" transform="translate(0.5)"/>
</clipPath>
</defs>
</svg>
