<svg width="24" height="20" viewBox="0 0 24 20" fill="none" xmlns="http://www.w3.org/2000/svg">
<path fill-rule="evenodd" clip-rule="evenodd" d="M14.7417 3H20.7147C21.1316 2.99996 21.5439 3.0868 21.9254 3.25499C22.3068 3.42317 22.649 3.66902 22.9302 3.97683C23.2113 4.28465 23.4252 4.64768 23.5582 5.04276C23.6912 5.43785 23.7405 5.85633 23.7027 6.2715L22.7472 16.7715C22.6795 17.5169 22.3356 18.21 21.783 18.7148C21.2305 19.2197 20.5092 19.4997 19.7607 19.5H4.23874C3.49029 19.4997 2.76899 19.2197 2.21643 18.7148C1.66387 18.21 1.31997 17.5169 1.25224 16.7715L0.296736 6.2715C0.232815 5.57667 0.414327 4.88141 0.809736 4.3065L0.749736 3C0.749736 2.20435 1.06581 1.44129 1.62842 0.87868C2.19102 0.316071 2.95409 0 3.74974 0H9.25774C10.0533 0.000169912 10.8163 0.316352 11.3787 0.879L12.6207 2.121C13.1832 2.68365 13.9462 2.99983 14.7417 3ZM2.25874 3.18C2.57974 3.063 2.92474 3 3.28474 3H11.3787L10.3182 1.9395C10.037 1.65818 9.65553 1.50008 9.25774 1.5H3.74974C3.3568 1.49993 2.97953 1.65405 2.69903 1.92922C2.41853 2.20439 2.2572 2.57864 2.24974 2.9715L2.25874 3.18Z" fill="#F5F5F5"/>
</svg>
