<svg width="20" height="21" viewBox="0 0 20 21" fill="none" xmlns="http://www.w3.org/2000/svg">
<path fill-rule="evenodd" clip-rule="evenodd" d="M0 0.5H1.25V19.25H20V20.5H0V0.5ZM12.5 4.875C12.5 4.70924 12.5658 4.55027 12.6831 4.43306C12.8003 4.31585 12.9592 4.25 13.125 4.25H18.125C18.2908 4.25 18.4497 4.31585 18.5669 4.43306C18.6842 4.55027 18.75 4.70924 18.75 4.875V9.875C18.75 10.0408 18.6842 10.1997 18.5669 10.3169C18.4497 10.4342 18.2908 10.5 18.125 10.5C17.9592 10.5 17.8003 10.4342 17.6831 10.3169C17.5658 10.1997 17.5 10.0408 17.5 9.875V6.625L12.9838 12.1463C12.9285 12.2137 12.8597 12.2689 12.7818 12.3082C12.7039 12.3475 12.6186 12.37 12.5315 12.3744C12.4444 12.3787 12.3573 12.3648 12.2759 12.3335C12.1945 12.3022 12.1205 12.2541 12.0588 12.1925L8.825 8.95875L4.255 15.2425C4.15503 15.3696 4.00967 15.453 3.84948 15.4752C3.68929 15.4974 3.52673 15.4567 3.39596 15.3615C3.2652 15.2663 3.17641 15.1242 3.14826 14.9649C3.12011 14.8057 3.15479 14.6417 3.245 14.5075L8.245 7.6325C8.29807 7.55939 8.36636 7.49866 8.44516 7.45448C8.52396 7.41031 8.61141 7.38374 8.70146 7.37661C8.79152 7.36948 8.88205 7.38196 8.96682 7.41319C9.05159 7.44442 9.12859 7.49365 9.1925 7.5575L12.4538 10.82L16.8062 5.5H13.125C12.9592 5.5 12.8003 5.43415 12.6831 5.31694C12.5658 5.19973 12.5 5.04076 12.5 4.875Z" fill="#4D4D4D"/>
</svg>
