<svg width="25" height="19" viewBox="0 0 25 19" fill="none" xmlns="http://www.w3.org/2000/svg">
<path fill-rule="evenodd" clip-rule="evenodd" d="M9.5 2.75C9.5 2.15326 9.73705 1.58097 10.159 1.15901C10.581 0.737053 11.1533 0.5 11.75 0.5H13.25C13.8467 0.5 14.419 0.737053 14.841 1.15901C15.2629 1.58097 15.5 2.15326 15.5 2.75V4.25C15.5 4.84674 15.2629 5.41903 14.841 5.84099C14.419 6.26295 13.8467 6.5 13.25 6.5V8H21.5C21.6989 8 21.8897 8.07902 22.0303 8.21967C22.171 8.36032 22.25 8.55109 22.25 8.75V10.25C22.25 10.4489 22.171 10.6397 22.0303 10.7803C21.8897 10.921 21.6989 11 21.5 11C21.3011 11 21.1103 10.921 20.9697 10.7803C20.829 10.6397 20.75 10.4489 20.75 10.25V9.5H13.25V10.25C13.25 10.4489 13.171 10.6397 13.0303 10.7803C12.8897 10.921 12.6989 11 12.5 11C12.3011 11 12.1103 10.921 11.9697 10.7803C11.829 10.6397 11.75 10.4489 11.75 10.25V9.5H4.25V10.25C4.25 10.4489 4.17098 10.6397 4.03033 10.7803C3.88968 10.921 3.69891 11 3.5 11C3.30109 11 3.11032 10.921 2.96967 10.7803C2.82902 10.6397 2.75 10.4489 2.75 10.25V8.75C2.75 8.55109 2.82902 8.36032 2.96967 8.21967C3.11032 8.07902 3.30109 8 3.5 8H11.75V6.5C11.1533 6.5 10.581 6.26295 10.159 5.84099C9.73705 5.41903 9.5 4.84674 9.5 4.25V2.75ZM13.25 5C13.4489 5 13.6397 4.92098 13.7803 4.78033C13.921 4.63968 14 4.44891 14 4.25V2.75C14 2.55109 13.921 2.36032 13.7803 2.21967C13.6397 2.07902 13.4489 2 13.25 2H11.75C11.5511 2 11.3603 2.07902 11.2197 2.21967C11.079 2.36032 11 2.55109 11 2.75V4.25C11 4.44891 11.079 4.63968 11.2197 4.78033C11.3603 4.92098 11.5511 5 11.75 5H13.25ZM0.5 14.75C0.5 14.1533 0.737053 13.581 1.15901 13.159C1.58097 12.7371 2.15326 12.5 2.75 12.5H4.25C4.84674 12.5 5.41903 12.7371 5.84099 13.159C6.26295 13.581 6.5 14.1533 6.5 14.75V16.25C6.5 16.8467 6.26295 17.419 5.84099 17.841C5.41903 18.2629 4.84674 18.5 4.25 18.5H2.75C2.15326 18.5 1.58097 18.2629 1.15901 17.841C0.737053 17.419 0.5 16.8467 0.5 16.25L0.5 14.75ZM2.75 14C2.55109 14 2.36032 14.079 2.21967 14.2197C2.07902 14.3603 2 14.5511 2 14.75V16.25C2 16.4489 2.07902 16.6397 2.21967 16.7803C2.36032 16.921 2.55109 17 2.75 17H4.25C4.44891 17 4.63968 16.921 4.78033 16.7803C4.92098 16.6397 5 16.4489 5 16.25V14.75C5 14.5511 4.92098 14.3603 4.78033 14.2197C4.63968 14.079 4.44891 14 4.25 14H2.75ZM9.5 14.75C9.5 14.1533 9.73705 13.581 10.159 13.159C10.581 12.7371 11.1533 12.5 11.75 12.5H13.25C13.8467 12.5 14.419 12.7371 14.841 13.159C15.2629 13.581 15.5 14.1533 15.5 14.75V16.25C15.5 16.8467 15.2629 17.419 14.841 17.841C14.419 18.2629 13.8467 18.5 13.25 18.5H11.75C11.1533 18.5 10.581 18.2629 10.159 17.841C9.73705 17.419 9.5 16.8467 9.5 16.25V14.75ZM11.75 14C11.5511 14 11.3603 14.079 11.2197 14.2197C11.079 14.3603 11 14.5511 11 14.75V16.25C11 16.4489 11.079 16.6397 11.2197 16.7803C11.3603 16.921 11.5511 17 11.75 17H13.25C13.4489 17 13.6397 16.921 13.7803 16.7803C13.921 16.6397 14 16.4489 14 16.25V14.75C14 14.5511 13.921 14.3603 13.7803 14.2197C13.6397 14.079 13.4489 14 13.25 14H11.75ZM18.5 14.75C18.5 14.1533 18.7371 13.581 19.159 13.159C19.581 12.7371 20.1533 12.5 20.75 12.5H22.25C22.8467 12.5 23.419 12.7371 23.841 13.159C24.2629 13.581 24.5 14.1533 24.5 14.75V16.25C24.5 16.8467 24.2629 17.419 23.841 17.841C23.419 18.2629 22.8467 18.5 22.25 18.5H20.75C20.1533 18.5 19.581 18.2629 19.159 17.841C18.7371 17.419 18.5 16.8467 18.5 16.25V14.75ZM20.75 14C20.5511 14 20.3603 14.079 20.2197 14.2197C20.079 14.3603 20 14.5511 20 14.75V16.25C20 16.4489 20.079 16.6397 20.2197 16.7803C20.3603 16.921 20.5511 17 20.75 17H22.25C22.4489 17 22.6397 16.921 22.7803 16.7803C22.921 16.6397 23 16.4489 23 16.25V14.75C23 14.5511 22.921 14.3603 22.7803 14.2197C22.6397 14.079 22.4489 14 22.25 14H20.75Z" fill="#4D4D4D"/>
</svg>
