<svg width="18" height="19" viewBox="0 0 18 19" fill="none" xmlns="http://www.w3.org/2000/svg">
<path d="M17.2526 2.90986C17.3927 3.05044 17.4714 3.24085 17.4714 3.43936C17.4714 3.63786 17.3927 3.82827 17.2526 3.96886L15.6881 5.53486L12.6881 2.53486L14.2526 0.968857C14.3932 0.828254 14.584 0.749268 14.7828 0.749268C14.9817 0.749268 15.1724 0.828254 15.3131 0.968857L17.2526 2.90836V2.90986ZM14.6276 6.59386L11.6276 3.59386L1.40807 13.8149C1.32552 13.8974 1.26337 13.9981 1.22657 14.1089L0.0190737 17.7299C-0.00282512 17.7959 -0.00593442 17.8667 0.0100937 17.9344C0.0261217 18.002 0.0606558 18.0639 0.109835 18.1131C0.159015 18.1623 0.220902 18.1968 0.288581 18.2128C0.356259 18.2289 0.427061 18.2258 0.493074 18.2039L4.11407 16.9964C4.22472 16.96 4.32538 16.8984 4.40807 16.8164L14.6276 6.59536V6.59386Z" fill="#4D4D4D"/>
</svg>
