<svg width="20" height="16" viewBox="0 0 20 16" fill="none" xmlns="http://www.w3.org/2000/svg">
<path d="M12.1185 12.3497L18.9705 7.42823C19.1319 7.33286 19.2656 7.19706 19.3585 7.03424C19.4515 6.87142 19.5003 6.68719 19.5003 6.49973C19.5003 6.31226 19.4515 6.12803 19.3585 5.96521C19.2656 5.80239 19.1319 5.6666 18.9705 5.57123L12.1185 0.649726C11.9552 0.553654 11.7693 0.502508 11.5798 0.501481C11.3903 0.500453 11.2039 0.54958 11.0396 0.643876C10.8752 0.738171 10.7387 0.874278 10.6439 1.03838C10.5492 1.20248 10.4995 1.38873 10.5 1.57823V3.49973C8.25 3.49973 1.5 3.49973 0 15.4997C3.75 8.74973 10.5 9.49973 10.5 9.49973V11.4212C10.5 12.2612 11.409 12.7682 12.1185 12.3512V12.3497Z" fill="#F5F5F5"/>
</svg>
