<svg width="25" height="25" viewBox="0 0 25 25" fill="none" xmlns="http://www.w3.org/2000/svg">
<g clip-path="url(#clip0_25_517)">
<path fill-rule="evenodd" clip-rule="evenodd" d="M7.0325 1.283C7.22266 1.22552 7.42786 1.24583 7.60306 1.33948C7.77826 1.43312 7.90915 1.59245 7.967 1.7825L8.4035 3.2165C9.62137 2.42066 11.0452 1.99785 12.5 2C14.0105 2 15.419 2.447 16.5965 3.2165L17.0315 1.7825C17.0595 1.68761 17.106 1.5992 17.1684 1.52236C17.2307 1.44552 17.3076 1.38178 17.3947 1.3348C17.4818 1.28782 17.5773 1.25854 17.6757 1.24864C17.7742 1.23874 17.8736 1.24841 17.9683 1.2771C18.063 1.3058 18.1511 1.35295 18.2275 1.41583C18.3039 1.47871 18.367 1.55609 18.4134 1.6435C18.4598 1.73091 18.4884 1.82663 18.4976 1.92514C18.5068 2.02366 18.4964 2.12302 18.467 2.2175L17.852 4.2455C19.2308 5.64657 20.0025 7.53425 20 9.5H20.75C20.9489 9.5 21.1397 9.42098 21.2803 9.28033C21.421 9.13968 21.5 8.94891 21.5 8.75V8C21.5 7.80109 21.579 7.61032 21.7197 7.46967C21.8603 7.32902 22.0511 7.25 22.25 7.25C22.4489 7.25 22.6397 7.32902 22.7803 7.46967C22.921 7.61032 23 7.80109 23 8V8.75C23 9.34674 22.7629 9.91903 22.341 10.341C21.919 10.7629 21.3467 11 20.75 11H20V12.5H22.25C22.4489 12.5 22.6397 12.579 22.7803 12.7197C22.921 12.8603 23 13.0511 23 13.25C23 13.4489 22.921 13.6397 22.7803 13.7803C22.6397 13.921 22.4489 14 22.25 14H20V15.5H20.75C21.3467 15.5 21.919 15.7371 22.341 16.159C22.7629 16.581 23 17.1533 23 17.75V18.5C23 18.6989 22.921 18.8897 22.7803 19.0303C22.6397 19.171 22.4489 19.25 22.25 19.25C22.0511 19.25 21.8603 19.171 21.7197 19.0303C21.579 18.8897 21.5 18.6989 21.5 18.5V17.75C21.5 17.5511 21.421 17.3603 21.2803 17.2197C21.1397 17.079 20.9489 17 20.75 17H20C20 18.9891 19.2098 20.8968 17.8033 22.3033C16.3968 23.7098 14.4891 24.5 12.5 24.5C10.5109 24.5 8.60322 23.7098 7.1967 22.3033C5.79018 20.8968 5 18.9891 5 17H4.25C4.05109 17 3.86032 17.079 3.71967 17.2197C3.57902 17.3603 3.5 17.5511 3.5 17.75V18.5C3.5 18.6989 3.42098 18.8897 3.28033 19.0303C3.13968 19.171 2.94891 19.25 2.75 19.25C2.55109 19.25 2.36032 19.171 2.21967 19.0303C2.07902 18.8897 2 18.6989 2 18.5V17.75C2 17.1533 2.23705 16.581 2.65901 16.159C3.08097 15.7371 3.65326 15.5 4.25 15.5H5V14H2.75C2.55109 14 2.36032 13.921 2.21967 13.7803C2.07902 13.6397 2 13.4489 2 13.25C2 13.0511 2.07902 12.8603 2.21967 12.7197C2.36032 12.579 2.55109 12.5 2.75 12.5H5V11H4.25C3.65326 11 3.08097 10.7629 2.65901 10.341C2.23705 9.91903 2 9.34674 2 8.75V8C2 7.80109 2.07902 7.61032 2.21967 7.46967C2.36032 7.32902 2.55109 7.25 2.75 7.25C2.94891 7.25 3.13968 7.32902 3.28033 7.46967C3.42098 7.61032 3.5 7.80109 3.5 8V8.75C3.5 8.94891 3.57902 9.13968 3.71967 9.28033C3.86032 9.42098 4.05109 9.5 4.25 9.5H5C5 7.454 5.8205 5.5985 7.148 4.2455L6.533 2.2175C6.47552 2.02734 6.49583 1.82214 6.58948 1.64694C6.68312 1.47174 6.84245 1.34085 7.0325 1.283ZM6.5 11V17C6.4995 18.4618 7.03264 19.8734 7.99932 20.9699C8.96599 22.0664 10.2997 22.7723 11.75 22.955V11H6.5ZM13.25 11V22.955C14.7003 22.7723 16.034 22.0664 17.0007 20.9699C17.9674 19.8734 18.5005 18.4618 18.5 17V11H13.25ZM18.5 9.5H6.5C6.49887 8.65556 6.67644 7.82044 7.02106 7.04952C7.36567 6.27859 7.86952 5.58932 8.4995 5.027C9.59853 4.0412 11.0236 3.49723 12.5 3.5C14.0375 3.5 15.4385 4.0775 16.499 5.027C17.1293 5.58913 17.6335 6.27833 17.9784 7.04927C18.3233 7.82021 18.501 8.65543 18.5 9.5Z" fill="#4D4D4D"/>
</g>
<defs>
<clipPath id="clip0_25_517">
<rect width="24" height="24" fill="white" transform="translate(0.5 0.5)"/>
</clipPath>
</defs>
</svg>
