<svg width="25" height="25" viewBox="0 0 25 25" fill="none" xmlns="http://www.w3.org/2000/svg">
<g clip-path="url(#clip0_24_486)">
<path fill-rule="evenodd" clip-rule="evenodd" d="M7.967 1.78245C7.94192 1.68431 7.89722 1.59227 7.83561 1.51188C7.77399 1.43149 7.69672 1.36441 7.60847 1.3147C7.52022 1.26498 7.42282 1.23366 7.32213 1.22261C7.22145 1.21157 7.11957 1.22103 7.02264 1.25043C6.92571 1.27984 6.83574 1.32857 6.75816 1.39369C6.68058 1.45881 6.61699 1.53897 6.57124 1.62934C6.52548 1.71971 6.4985 1.8184 6.49193 1.91948C6.48536 2.02056 6.49933 2.12192 6.533 2.21745L7.148 4.24545C5.76916 5.64651 4.99749 7.53419 5 9.49995H20C20.0025 7.53419 19.2308 5.64651 17.852 4.24545L18.467 2.21745C18.5007 2.12192 18.5146 2.02056 18.5081 1.91948C18.5015 1.8184 18.4745 1.71971 18.4288 1.62934C18.383 1.53897 18.3194 1.45881 18.2418 1.39369C18.1643 1.32857 18.0743 1.27984 17.9774 1.25043C17.8804 1.22103 17.7786 1.21157 17.6779 1.22261C17.5772 1.23366 17.4798 1.26498 17.3915 1.3147C17.3033 1.36441 17.226 1.43149 17.1644 1.51188C17.1028 1.59227 17.0581 1.68431 17.033 1.78245L16.5965 3.21645C15.3787 2.42053 13.9549 1.99771 12.5 1.99995C11.0452 1.9978 9.62137 2.42061 8.4035 3.21645L7.9685 1.78245H7.967ZM20 9.49995V10.9999H13.25V24.4624C15.1 24.2765 16.8149 23.4101 18.0622 22.0312C19.3094 20.6523 20 18.8592 20 16.9999H20.75C20.9489 16.9999 21.1397 17.079 21.2803 17.2196C21.421 17.3603 21.5 17.551 21.5 17.7499V18.4999C21.5 18.6989 21.579 18.8896 21.7197 19.0303C21.8603 19.1709 22.0511 19.2499 22.25 19.2499C22.4489 19.2499 22.6397 19.1709 22.7803 19.0303C22.921 18.8896 23 18.6989 23 18.4999V17.7499C23 17.1532 22.7629 16.5809 22.341 16.159C21.919 15.737 21.3467 15.4999 20.75 15.4999H20V13.9999H22.25C22.4489 13.9999 22.6397 13.9209 22.7803 13.7803C22.921 13.6396 23 13.4489 23 13.2499C23 13.051 22.921 12.8603 22.7803 12.7196C22.6397 12.579 22.4489 12.4999 22.25 12.4999H20V10.9999H20.75C21.3467 10.9999 21.919 10.7629 22.341 10.3409C22.7629 9.91898 23 9.34668 23 8.74995V7.99995C23 7.80103 22.921 7.61027 22.7803 7.46962C22.6397 7.32896 22.4489 7.24995 22.25 7.24995C22.0511 7.24995 21.8603 7.32896 21.7197 7.46962C21.579 7.61027 21.5 7.80103 21.5 7.99995V8.74995C21.5 8.94886 21.421 9.13962 21.2803 9.28028C21.1397 9.42093 20.9489 9.49995 20.75 9.49995H20ZM11.75 24.4624V10.9999H5V9.49995H4.25C4.05109 9.49995 3.86032 9.42093 3.71967 9.28028C3.57902 9.13962 3.5 8.94886 3.5 8.74995V7.99995C3.5 7.80103 3.42098 7.61027 3.28033 7.46962C3.13968 7.32896 2.94891 7.24995 2.75 7.24995C2.55109 7.24995 2.36032 7.32896 2.21967 7.46962C2.07902 7.61027 2 7.80103 2 7.99995V8.74995C2 9.34668 2.23705 9.91898 2.65901 10.3409C3.08097 10.7629 3.65326 10.9999 4.25 10.9999H5V12.4999H2.75C2.55109 12.4999 2.36032 12.579 2.21967 12.7196C2.07902 12.8603 2 13.051 2 13.2499C2 13.4489 2.07902 13.6396 2.21967 13.7803C2.36032 13.9209 2.55109 13.9999 2.75 13.9999H5V15.4999H4.25C3.65326 15.4999 3.08097 15.737 2.65901 16.159C2.23705 16.5809 2 17.1532 2 17.7499V18.4999C2 18.6989 2.07902 18.8896 2.21967 19.0303C2.36032 19.1709 2.55109 19.2499 2.75 19.2499C2.94891 19.2499 3.13968 19.1709 3.28033 19.0303C3.42098 18.8896 3.5 18.6989 3.5 18.4999V17.7499C3.5 17.551 3.57902 17.3603 3.71967 17.2196C3.86032 17.079 4.05109 16.9999 4.25 16.9999H5C4.99998 18.8592 5.69058 20.6523 6.93782 22.0312C8.18506 23.4101 9.90003 24.2765 11.75 24.4624Z" fill="#F5F5F5"/>
</g>
<defs>
<clipPath id="clip0_24_486">
<rect width="24" height="24" fill="white" transform="translate(0.5 0.5)"/>
</clipPath>
</defs>
</svg>
