<svg width="25" height="25" viewBox="0 0 25 25" fill="none" xmlns="http://www.w3.org/2000/svg">
<g clip-path="url(#clip0_27_579)">
<path fill-rule="evenodd" clip-rule="evenodd" d="M9.5 5.75C9.5 5.15326 9.73705 4.58097 10.159 4.15901C10.581 3.73705 11.1533 3.5 11.75 3.5H13.25C13.8467 3.5 14.419 3.73705 14.841 4.15901C15.2629 4.58097 15.5 5.15326 15.5 5.75V7.25C15.5 7.84674 15.2629 8.41903 14.841 8.84099C14.419 9.26295 13.8467 9.5 13.25 9.5V11H21.5C21.6989 11 21.8897 11.079 22.0303 11.2197C22.171 11.3603 22.25 11.5511 22.25 11.75V13.25C22.25 13.4489 22.171 13.6397 22.0303 13.7803C21.8897 13.921 21.6989 14 21.5 14C21.3011 14 21.1103 13.921 20.9697 13.7803C20.829 13.6397 20.75 13.4489 20.75 13.25V12.5H13.25V13.25C13.25 13.4489 13.171 13.6397 13.0303 13.7803C12.8897 13.921 12.6989 14 12.5 14C12.3011 14 12.1103 13.921 11.9697 13.7803C11.829 13.6397 11.75 13.4489 11.75 13.25V12.5H4.25V13.25C4.25 13.4489 4.17098 13.6397 4.03033 13.7803C3.88968 13.921 3.69891 14 3.5 14C3.30109 14 3.11032 13.921 2.96967 13.7803C2.82902 13.6397 2.75 13.4489 2.75 13.25V11.75C2.75 11.5511 2.82902 11.3603 2.96967 11.2197C3.11032 11.079 3.30109 11 3.5 11H11.75V9.5C11.1533 9.5 10.581 9.26295 10.159 8.84099C9.73705 8.41903 9.5 7.84674 9.5 7.25V5.75ZM13.25 8C13.4489 8 13.6397 7.92098 13.7803 7.78033C13.921 7.63968 14 7.44891 14 7.25V5.75C14 5.55109 13.921 5.36032 13.7803 5.21967C13.6397 5.07902 13.4489 5 13.25 5H11.75C11.5511 5 11.3603 5.07902 11.2197 5.21967C11.079 5.36032 11 5.55109 11 5.75V7.25C11 7.44891 11.079 7.63968 11.2197 7.78033C11.3603 7.92098 11.5511 8 11.75 8H13.25ZM0.5 17.75C0.5 17.1533 0.737053 16.581 1.15901 16.159C1.58097 15.7371 2.15326 15.5 2.75 15.5H4.25C4.84674 15.5 5.41903 15.7371 5.84099 16.159C6.26295 16.581 6.5 17.1533 6.5 17.75V19.25C6.5 19.8467 6.26295 20.419 5.84099 20.841C5.41903 21.2629 4.84674 21.5 4.25 21.5H2.75C2.15326 21.5 1.58097 21.2629 1.15901 20.841C0.737053 20.419 0.5 19.8467 0.5 19.25L0.5 17.75ZM2.75 17C2.55109 17 2.36032 17.079 2.21967 17.2197C2.07902 17.3603 2 17.5511 2 17.75V19.25C2 19.4489 2.07902 19.6397 2.21967 19.7803C2.36032 19.921 2.55109 20 2.75 20H4.25C4.44891 20 4.63968 19.921 4.78033 19.7803C4.92098 19.6397 5 19.4489 5 19.25V17.75C5 17.5511 4.92098 17.3603 4.78033 17.2197C4.63968 17.079 4.44891 17 4.25 17H2.75ZM9.5 17.75C9.5 17.1533 9.73705 16.581 10.159 16.159C10.581 15.7371 11.1533 15.5 11.75 15.5H13.25C13.8467 15.5 14.419 15.7371 14.841 16.159C15.2629 16.581 15.5 17.1533 15.5 17.75V19.25C15.5 19.8467 15.2629 20.419 14.841 20.841C14.419 21.2629 13.8467 21.5 13.25 21.5H11.75C11.1533 21.5 10.581 21.2629 10.159 20.841C9.73705 20.419 9.5 19.8467 9.5 19.25V17.75ZM11.75 17C11.5511 17 11.3603 17.079 11.2197 17.2197C11.079 17.3603 11 17.5511 11 17.75V19.25C11 19.4489 11.079 19.6397 11.2197 19.7803C11.3603 19.921 11.5511 20 11.75 20H13.25C13.4489 20 13.6397 19.921 13.7803 19.7803C13.921 19.6397 14 19.4489 14 19.25V17.75C14 17.5511 13.921 17.3603 13.7803 17.2197C13.6397 17.079 13.4489 17 13.25 17H11.75ZM18.5 17.75C18.5 17.1533 18.7371 16.581 19.159 16.159C19.581 15.7371 20.1533 15.5 20.75 15.5H22.25C22.8467 15.5 23.419 15.7371 23.841 16.159C24.2629 16.581 24.5 17.1533 24.5 17.75V19.25C24.5 19.8467 24.2629 20.419 23.841 20.841C23.419 21.2629 22.8467 21.5 22.25 21.5H20.75C20.1533 21.5 19.581 21.2629 19.159 20.841C18.7371 20.419 18.5 19.8467 18.5 19.25V17.75ZM20.75 17C20.5511 17 20.3603 17.079 20.2197 17.2197C20.079 17.3603 20 17.5511 20 17.75V19.25C20 19.4489 20.079 19.6397 20.2197 19.7803C20.3603 19.921 20.5511 20 20.75 20H22.25C22.4489 20 22.6397 19.921 22.7803 19.7803C22.921 19.6397 23 19.4489 23 19.25V17.75C23 17.5511 22.921 17.3603 22.7803 17.2197C22.6397 17.079 22.4489 17 22.25 17H20.75Z" fill="#4D4D4D"/>
</g>
<defs>
<clipPath id="clip0_27_579">
<rect width="24" height="24" fill="white" transform="translate(0.5 0.5)"/>
</clipPath>
</defs>
</svg>
