<svg width="25" height="19" viewBox="0 0 25 19" fill="none" xmlns="http://www.w3.org/2000/svg">
<path fill-rule="evenodd" clip-rule="evenodd" d="M11 18.5C11 18.5 9.5 18.5 9.5 17C9.5 15.5 11 11 17 11C23 11 24.5 15.5 24.5 17C24.5 18.5 23 18.5 23 18.5H11ZM17 9.5C18.1935 9.5 19.3381 9.02589 20.182 8.18198C21.0259 7.33807 21.5 6.19347 21.5 5C21.5 3.80653 21.0259 2.66193 20.182 1.81802C19.3381 0.974106 18.1935 0.5 17 0.5C15.8065 0.5 14.6619 0.974106 13.818 1.81802C12.9741 2.66193 12.5 3.80653 12.5 5C12.5 6.19347 12.9741 7.33807 13.818 8.18198C14.6619 9.02589 15.8065 9.5 17 9.5ZM8.324 18.5C8.10163 18.0317 7.99074 17.5183 8 17C8 14.9675 9.02 12.875 10.904 11.42C9.96364 11.1303 8.98392 10.9886 8 11C2 11 0.5 15.5 0.5 17C0.5 18.5 2 18.5 2 18.5H8.324ZM7.25 9.5C8.24456 9.5 9.19839 9.10491 9.90165 8.40165C10.6049 7.69839 11 6.74456 11 5.75C11 4.75544 10.6049 3.80161 9.90165 3.09835C9.19839 2.39509 8.24456 2 7.25 2C6.25544 2 5.30161 2.39509 4.59835 3.09835C3.89509 3.80161 3.5 4.75544 3.5 5.75C3.5 6.74456 3.89509 7.69839 4.59835 8.40165C5.30161 9.10491 6.25544 9.5 7.25 9.5Z" fill="#F5F5F5"/>
</svg>
