<svg width="19" height="19" viewBox="0 0 19 19" fill="none" xmlns="http://www.w3.org/2000/svg">
<path fill-rule="evenodd" clip-rule="evenodd" d="M2 18.5C2 18.5 0.5 18.5 0.5 17C0.5 15.5 2 11 9.5 11C17 11 18.5 15.5 18.5 17C18.5 18.5 17 18.5 17 18.5H2ZM9.5 9.5C10.6935 9.5 11.8381 9.02589 12.682 8.18198C13.5259 7.33807 14 6.19347 14 5C14 3.80653 13.5259 2.66193 12.682 1.81802C11.8381 0.974106 10.6935 0.5 9.5 0.5C8.30653 0.5 7.16193 0.974106 6.31802 1.81802C5.47411 2.66193 5 3.80653 5 5C5 6.19347 5.47411 7.33807 6.31802 8.18198C7.16193 9.02589 8.30653 9.5 9.5 9.5Z" fill="#F5F5F5"/>
</svg>
