<svg width="20" height="15" viewBox="0 0 20 15" fill="none" xmlns="http://www.w3.org/2000/svg">
<path d="M12.1185 11.8497L18.9705 6.92823C19.1319 6.83286 19.2656 6.69706 19.3585 6.53424C19.4515 6.37142 19.5003 6.18719 19.5003 5.99973C19.5003 5.81226 19.4515 5.62803 19.3585 5.46521C19.2656 5.30239 19.1319 5.1666 18.9705 5.07123L12.1185 0.149726C11.9552 0.0536536 11.7693 0.00250807 11.5798 0.00148063C11.3903 0.000453196 11.2039 0.0495804 11.0396 0.143876C10.8752 0.238171 10.7387 0.374278 10.6439 0.538378C10.5492 0.702478 10.4995 0.88873 10.5 1.07823V2.99973C8.25 2.99973 1.5 2.99973 0 14.9997C3.75 8.24973 10.5 8.99973 10.5 8.99973V10.9212C10.5 11.7612 11.409 12.2682 12.1185 11.8512V11.8497Z" fill="#F5F5F5"/>
</svg>
