<svg width="18" height="18" viewBox="0 0 18 18" fill="none" xmlns="http://www.w3.org/2000/svg">
<g clip-path="url(#clip0_79_1354)">
<path fill-rule="evenodd" clip-rule="evenodd" d="M9.94985 1.83772C9.6731 0.898346 8.34335 0.898346 8.0666 1.83772L7.96085 2.1966C7.87191 2.49803 7.71667 2.77576 7.5065 3.00943C7.29632 3.2431 7.03654 3.4268 6.74618 3.54706C6.45581 3.66733 6.14222 3.72112 5.82838 3.70449C5.51453 3.68787 5.20838 3.60124 4.93235 3.45097L4.60385 3.27097C3.74435 2.8041 2.80385 3.74347 3.27185 4.6041L3.45073 4.9326C3.601 5.20863 3.68762 5.51478 3.70425 5.82862C3.72088 6.14247 3.66709 6.45606 3.54682 6.74642C3.42655 7.03679 3.24286 7.29657 3.00919 7.50674C2.77552 7.71692 2.49779 7.87216 2.19635 7.9611L1.83748 8.06685C0.898102 8.3436 0.898102 9.67335 1.83748 9.9501L2.19635 10.0558C2.49795 10.1447 2.77583 10.3 3.00961 10.5103C3.2434 10.7205 3.42717 10.9804 3.54745 11.2709C3.66773 11.5614 3.72148 11.8752 3.70474 12.1892C3.688 12.5031 3.60121 12.8094 3.45073 13.0855L3.27073 13.4128C2.80385 14.2723 3.74323 15.2128 4.60385 14.7448L4.93235 14.566C5.20846 14.4157 5.51468 14.3291 5.82859 14.3126C6.1425 14.296 6.45613 14.3499 6.74651 14.4703C7.03689 14.5907 7.29665 14.7745 7.50677 15.0083C7.71689 15.2421 7.87204 15.5199 7.96085 15.8215L8.0666 16.1792C8.34335 17.1186 9.6731 17.1186 9.94985 16.1792L10.0556 15.8203C10.1445 15.5188 10.2998 15.2409 10.51 15.0071C10.7203 14.7733 10.9802 14.5895 11.2707 14.4692C11.5612 14.349 11.8749 14.2952 12.1889 14.312C12.5029 14.3287 12.8092 14.4155 13.0852 14.566L13.4126 14.746C14.2721 15.2128 15.2126 14.2735 14.7446 13.4128L14.5657 13.0855C14.4153 12.8093 14.3285 12.503 14.3118 12.189C14.2952 11.8749 14.349 11.5611 14.4694 11.2706C14.5898 10.9801 14.7737 10.7202 15.0076 10.51C15.2415 10.2998 15.5195 10.1446 15.8212 10.0558L16.179 9.9501C17.1184 9.67335 17.1184 8.3436 16.179 8.06685L15.8201 7.9611C15.5187 7.87216 15.2409 7.71692 15.0073 7.50674C14.7736 7.29657 14.5899 7.03679 14.4696 6.74642C14.3494 6.45606 14.2956 6.14247 14.3122 5.82862C14.3288 5.51478 14.4155 5.20863 14.5657 4.9326L14.7457 4.6041C15.2126 3.7446 14.2732 2.8041 13.4126 3.2721L13.0852 3.45097C12.8091 3.60167 12.5028 3.68863 12.1886 3.70548C11.8745 3.72232 11.5606 3.66863 11.27 3.54833C10.9793 3.42804 10.7193 3.24419 10.509 3.01028C10.2986 2.77638 10.1433 2.49835 10.0545 2.1966L9.94873 1.83772H9.94985ZM6.98773 1.51935C7.5806 -0.494404 10.4359 -0.494404 11.0287 1.51935L11.1345 1.87822C11.1759 2.01879 11.2482 2.14832 11.3462 2.2573C11.4441 2.36628 11.5653 2.45196 11.7006 2.50805C11.836 2.56415 11.9822 2.58924 12.1286 2.58148C12.2749 2.57372 12.4177 2.53331 12.5464 2.46322L12.8749 2.28322C14.7199 1.27972 16.7381 3.29685 15.7324 5.14185L15.5535 5.47035C15.4834 5.59904 15.443 5.74178 15.4352 5.88812C15.4275 6.03446 15.4525 6.18067 15.5086 6.31605C15.5647 6.45144 15.6504 6.57255 15.7594 6.67051C15.8684 6.76848 15.9979 6.84082 16.1385 6.88222L16.4974 6.98797C18.5111 7.58085 18.5111 10.4361 16.4974 11.029L16.1385 11.1347C15.9979 11.1761 15.8684 11.2485 15.7594 11.3464C15.6504 11.4444 15.5647 11.5655 15.5086 11.7009C15.4525 11.8363 15.4275 11.9825 15.4352 12.1288C15.443 12.2752 15.4834 12.4179 15.5535 12.5466L15.7335 12.8751C16.7381 14.7201 14.7187 16.7383 12.8749 15.7326L12.5464 15.5537C12.4177 15.4836 12.2749 15.4432 12.1286 15.4355C11.9822 15.4277 11.836 15.4528 11.7006 15.5089C11.5653 15.565 11.4441 15.6507 11.3462 15.7596C11.2482 15.8686 11.1759 15.9981 11.1345 16.1387L11.0287 16.4976C10.4359 18.5113 7.5806 18.5113 6.98773 16.4976L6.88198 16.1387C6.84057 15.9981 6.76824 15.8686 6.67027 15.7596C6.5723 15.6507 6.45119 15.565 6.31581 15.5089C6.18043 15.4528 6.03421 15.4277 5.88788 15.4355C5.74154 15.4432 5.59879 15.4836 5.4701 15.5537L5.1416 15.7337C3.2966 16.7383 1.27948 14.719 2.2841 12.8751L2.46298 12.5466C2.53307 12.4179 2.57348 12.2752 2.58123 12.1288C2.58899 11.9825 2.5639 11.8363 2.50781 11.7009C2.45172 11.5655 2.36604 11.4444 2.25705 11.3464C2.14807 11.2485 2.01855 11.1761 1.87798 11.1347L1.5191 11.029C-0.494648 10.4361 -0.494648 7.58085 1.5191 6.98797L1.87798 6.88222C2.01855 6.84082 2.14807 6.76848 2.25705 6.67051C2.36604 6.57255 2.45172 6.45144 2.50781 6.31605C2.5639 6.18067 2.58899 6.03446 2.58123 5.88812C2.57348 5.74178 2.53307 5.59904 2.46298 5.47035L2.28298 5.14185C1.27948 3.29685 3.29773 1.27972 5.1416 2.28435L5.4701 2.46322C5.59879 2.53331 5.74154 2.57372 5.88788 2.58148C6.03421 2.58924 6.18043 2.56415 6.31581 2.50805C6.45119 2.45196 6.5723 2.36628 6.67027 2.2573C6.76824 2.14832 6.84057 2.01879 6.88198 1.87822L6.98773 1.51935Z" fill="#4D4D4D"/>
<path fill-rule="evenodd" clip-rule="evenodd" d="M8.99989 6.47315C8.32976 6.47315 7.68707 6.73936 7.21321 7.21321C6.73935 7.68707 6.47314 8.32976 6.47314 8.9999C6.47314 9.67003 6.73935 10.3127 7.21321 10.7866C7.68707 11.2604 8.32976 11.5266 8.99989 11.5266C9.67003 11.5266 10.3127 11.2604 10.7866 10.7866C11.2604 10.3127 11.5266 9.67003 11.5266 8.9999C11.5266 8.32976 11.2604 7.68707 10.7866 7.21321C10.3127 6.73936 9.67003 6.47315 8.99989 6.47315ZM5.34814 8.9999C5.34814 8.52034 5.4426 8.04548 5.62612 7.60243C5.80964 7.15938 6.07862 6.75681 6.41772 6.41772C6.75681 6.07862 7.15938 5.80964 7.60243 5.62612C8.04548 5.4426 8.52034 5.34814 8.99989 5.34814C9.47945 5.34814 9.95431 5.4426 10.3974 5.62612C10.8404 5.80964 11.243 6.07862 11.5821 6.41772C11.9212 6.75681 12.1902 7.15938 12.3737 7.60243C12.5572 8.04548 12.6516 8.52034 12.6516 8.9999C12.6516 9.9684 12.2669 10.8972 11.5821 11.5821C10.8972 12.2669 9.9684 12.6516 8.99989 12.6516C8.03139 12.6516 7.10255 12.2669 6.41772 11.5821C5.73288 10.8972 5.34814 9.9684 5.34814 8.9999Z" fill="#4D4D4D"/>
</g>
<defs>
<clipPath id="clip0_79_1354">
<rect width="18" height="18" fill="white"/>
</clipPath>
</defs>
</svg>
