<svg width="18" height="18" viewBox="0 0 18 18" fill="none" xmlns="http://www.w3.org/2000/svg">
<g clip-path="url(#clip0_79_1344)">
<path fill-rule="evenodd" clip-rule="evenodd" d="M2.25 1.125H15.75C16.0484 1.125 16.3345 1.24353 16.5455 1.4545C16.7565 1.66548 16.875 1.95163 16.875 2.25V15.2843L14.625 13.0343C14.2031 12.6123 13.6309 12.3751 13.0343 12.375H2.25C1.95163 12.375 1.66548 12.2565 1.4545 12.0455C1.24353 11.8345 1.125 11.5484 1.125 11.25V2.25C1.125 1.95163 1.24353 1.66548 1.4545 1.4545C1.66548 1.24353 1.95163 1.125 2.25 1.125ZM15.75 0C16.3467 0 16.919 0.237053 17.341 0.65901C17.7629 1.08097 18 1.65326 18 2.25V16.6421C18 16.7534 17.9669 16.8622 17.9051 16.9547C17.8432 17.0473 17.7552 17.1193 17.6524 17.1618C17.5495 17.2044 17.4364 17.2154 17.3272 17.1936C17.2181 17.1718 17.1179 17.1181 17.0392 17.0392L13.8296 13.8296C13.6187 13.6186 13.3326 13.5001 13.0343 13.5H2.25C1.65326 13.5 1.08097 13.2629 0.65901 12.841C0.237053 12.419 0 11.8467 0 11.25V2.25C0 1.65326 0.237053 1.08097 0.65901 0.65901C1.08097 0.237053 1.65326 0 2.25 0L15.75 0Z" fill="#4D4D4D"/>
<path fill-rule="evenodd" clip-rule="evenodd" d="M3.375 3.9375C3.375 3.78832 3.43426 3.64524 3.53975 3.53975C3.64524 3.43426 3.78832 3.375 3.9375 3.375H14.0625C14.2117 3.375 14.3548 3.43426 14.4602 3.53975C14.5657 3.64524 14.625 3.78832 14.625 3.9375C14.625 4.08668 14.5657 4.22976 14.4602 4.33525C14.3548 4.44074 14.2117 4.5 14.0625 4.5H3.9375C3.78832 4.5 3.64524 4.44074 3.53975 4.33525C3.43426 4.22976 3.375 4.08668 3.375 3.9375ZM3.375 6.75C3.375 6.60082 3.43426 6.45774 3.53975 6.35225C3.64524 6.24676 3.78832 6.1875 3.9375 6.1875H14.0625C14.2117 6.1875 14.3548 6.24676 14.4602 6.35225C14.5657 6.45774 14.625 6.60082 14.625 6.75C14.625 6.89918 14.5657 7.04226 14.4602 7.14775C14.3548 7.25324 14.2117 7.3125 14.0625 7.3125H3.9375C3.78832 7.3125 3.64524 7.25324 3.53975 7.14775C3.43426 7.04226 3.375 6.89918 3.375 6.75ZM3.375 9.5625C3.375 9.41332 3.43426 9.27024 3.53975 9.16475C3.64524 9.05926 3.78832 9 3.9375 9H9.5625C9.71168 9 9.85476 9.05926 9.96025 9.16475C10.0657 9.27024 10.125 9.41332 10.125 9.5625C10.125 9.71168 10.0657 9.85476 9.96025 9.96025C9.85476 10.0657 9.71168 10.125 9.5625 10.125H3.9375C3.78832 10.125 3.64524 10.0657 3.53975 9.96025C3.43426 9.85476 3.375 9.71168 3.375 9.5625Z" fill="#4D4D4D"/>
</g>
<defs>
<clipPath id="clip0_79_1344">
<rect width="18" height="18" fill="white"/>
</clipPath>
</defs>
</svg>
