<svg width="18" height="18" viewBox="0 0 18 18" fill="none" xmlns="http://www.w3.org/2000/svg">
<path fill-rule="evenodd" clip-rule="evenodd" d="M10.6896 5.63958C10.6647 5.62864 10.6375 5.62412 10.6104 5.62644C10.5834 5.62876 10.5574 5.63784 10.5347 5.65285C10.5121 5.66786 10.4936 5.68832 10.481 5.71234C10.4683 5.73636 10.4619 5.76318 10.4623 5.79033V7.08745C10.4623 7.23664 10.403 7.37971 10.2976 7.4852C10.1921 7.59069 10.049 7.64995 9.8998 7.64995C9.14943 7.64995 7.63518 7.65558 6.1873 8.5747C5.0803 9.2767 3.94855 10.5547 3.26793 12.9352C4.41543 11.8293 5.72605 11.2297 6.87355 10.9125C7.57888 10.7177 8.30374 10.6022 9.03468 10.5682C9.33387 10.5551 9.63356 10.5581 9.93243 10.5772H9.94705L9.95268 10.5783H9.9538L9.8998 11.1375L9.95605 10.5772C10.0949 10.5912 10.2236 10.6562 10.3172 10.7598C10.4107 10.8633 10.4624 10.9979 10.4623 11.1375V12.4346C10.4623 12.5561 10.5861 12.6326 10.6896 12.5853L15.1716 9.2857C15.1868 9.27441 15.2025 9.26389 15.2188 9.2542C15.2433 9.2395 15.2635 9.21872 15.2776 9.19389C15.2916 9.16905 15.299 9.14099 15.299 9.11245C15.299 9.08392 15.2916 9.05586 15.2776 9.03102C15.2635 9.00618 15.2433 8.9854 15.2188 8.9707C15.2025 8.96102 15.1868 8.9505 15.1716 8.9392L10.6896 5.63958ZM9.3373 11.6842C8.60596 11.6969 7.87911 11.8016 7.17393 11.9958C5.68218 12.4098 3.91593 13.347 2.74143 15.4608C2.67791 15.5749 2.57671 15.6633 2.45517 15.7109C2.33362 15.7585 2.1993 15.7624 2.07522 15.7218C1.95114 15.6812 1.84504 15.5988 1.77508 15.4886C1.70513 15.3784 1.67569 15.2472 1.6918 15.1177C2.2138 10.944 3.81355 8.74795 5.5843 7.6252C6.98493 6.73645 8.42718 6.56545 9.3373 6.53283V5.79033C9.3372 5.55866 9.39963 5.33125 9.51801 5.13211C9.63639 4.93296 9.80634 4.76947 10.0099 4.65887C10.2135 4.54827 10.4431 4.49467 10.6746 4.50373C10.9061 4.51279 11.1309 4.58416 11.3252 4.71033L15.8184 8.01783C16.0042 8.13378 16.1574 8.2951 16.2636 8.4866C16.3698 8.6781 16.4255 8.89348 16.4255 9.11245C16.4255 9.33143 16.3698 9.54681 16.2636 9.73831C16.1574 9.92981 16.0042 10.0911 15.8184 10.2071L11.3252 13.5146C11.1309 13.6407 10.9061 13.7121 10.6746 13.7212C10.4431 13.7302 10.2135 13.6766 10.0099 13.566C9.80634 13.4554 9.63639 13.2919 9.51801 13.0928C9.39963 12.8937 9.3372 12.6663 9.3373 12.4346V11.6842Z" fill="#4D4D4D"/>
</svg>
