<svg width="18" height="18" viewBox="0 0 18 18" fill="none" xmlns="http://www.w3.org/2000/svg">
<path fill-rule="evenodd" clip-rule="evenodd" d="M2.25 1.125H15.75C16.0484 1.125 16.3345 1.24353 16.5455 1.4545C16.7565 1.66548 16.875 1.95163 16.875 2.25V15.2843L14.625 13.0343C14.2031 12.6123 13.6309 12.3751 13.0343 12.375H2.25C1.95163 12.375 1.66548 12.2565 1.4545 12.0455C1.24353 11.8345 1.125 11.5484 1.125 11.25V2.25C1.125 1.95163 1.24353 1.66548 1.4545 1.4545C1.66548 1.24353 1.95163 1.125 2.25 1.125ZM15.75 0C16.3467 0 16.919 0.237053 17.341 0.65901C17.7629 1.08097 18 1.65326 18 2.25V16.6421C18 16.7534 17.9669 16.8622 17.9051 16.9547C17.8432 17.0473 17.7552 17.1193 17.6524 17.1618C17.5495 17.2044 17.4364 17.2154 17.3272 17.1936C17.2181 17.1718 17.1179 17.1181 17.0392 17.0392L13.8296 13.8296C13.6187 13.6186 13.3326 13.5001 13.0343 13.5H2.25C1.65326 13.5 1.08097 13.2629 0.65901 12.841C0.237053 12.419 0 11.8467 0 11.25V2.25C0 1.65326 0.237053 1.08097 0.65901 0.65901C1.08097 0.237053 1.65326 0 2.25 0L15.75 0Z" fill="#4D4D4D"/>
</svg>
