<svg width="15" height="15" viewBox="0 0 15 15" fill="none" xmlns="http://www.w3.org/2000/svg">
<path fill-rule="evenodd" clip-rule="evenodd" d="M7.3125 13.5C8.12505 13.5 8.92965 13.34 9.68035 13.029C10.4311 12.7181 11.1132 12.2623 11.6877 11.6877C12.2623 11.1132 12.7181 10.4311 13.029 9.68035C13.34 8.92965 13.5 8.12505 13.5 7.3125C13.5 6.49995 13.34 5.69535 13.029 4.94465C12.7181 4.19394 12.2623 3.51184 11.6877 2.93728C11.1132 2.36271 10.4311 1.90695 9.68035 1.596C8.92965 1.28504 8.12505 1.125 7.3125 1.125C5.67147 1.125 4.09766 1.7769 2.93728 2.93728C1.7769 4.09766 1.125 5.67147 1.125 7.3125C1.125 8.95353 1.7769 10.5273 2.93728 11.6877C4.09766 12.8481 5.67147 13.5 7.3125 13.5ZM14.625 7.3125C14.625 9.2519 13.8546 11.1119 12.4832 12.4832C11.1119 13.8546 9.2519 14.625 7.3125 14.625C5.3731 14.625 3.51314 13.8546 2.14178 12.4832C0.770422 11.1119 0 9.2519 0 7.3125C0 5.3731 0.770422 3.51314 2.14178 2.14178C3.51314 0.770422 5.3731 0 7.3125 0C9.2519 0 11.1119 0.770422 12.4832 2.14178C13.8546 3.51314 14.625 5.3731 14.625 7.3125Z" fill="#4D4D4D"/>
</svg>
