<svg width="16" height="16" viewBox="0 0 16 16" fill="none" xmlns="http://www.w3.org/2000/svg">
<path fill-rule="evenodd" clip-rule="evenodd" d="M7.60175 0.289157C7.654 0.236773 7.71608 0.195213 7.78441 0.166855C7.85275 0.138498 7.92601 0.123901 8 0.123901C8.07399 0.123901 8.14725 0.138498 8.21559 0.166855C8.28393 0.195213 8.346 0.236773 8.39825 0.289157L15.1483 7.03916C15.2005 7.09149 15.2418 7.1536 15.27 7.22193C15.2982 7.29027 15.3126 7.36349 15.3125 7.43741V15.3124C15.3125 15.4616 15.2532 15.6047 15.1478 15.7102C15.0423 15.8156 14.8992 15.8749 14.75 15.8749H9.6875C9.53832 15.8749 9.39524 15.8156 9.28975 15.7102C9.18427 15.6047 9.125 15.4616 9.125 15.3124V10.8124H6.875V15.3124C6.875 15.4616 6.81574 15.6047 6.71025 15.7102C6.60476 15.8156 6.46169 15.8749 6.3125 15.8749H1.25C1.10082 15.8749 0.957743 15.8156 0.852253 15.7102C0.746764 15.6047 0.687501 15.4616 0.687501 15.3124V7.43741C0.687369 7.36349 0.701807 7.29027 0.72999 7.22193C0.758173 7.1536 0.799549 7.09149 0.851751 7.03916L7.60175 0.289157ZM1.8125 7.67028V14.7499H5.75V10.2499C5.75 10.1007 5.80927 9.95765 5.91475 9.85216C6.02024 9.74667 6.16332 9.68741 6.3125 9.68741H9.6875C9.83669 9.68741 9.97976 9.74667 10.0852 9.85216C10.1907 9.95765 10.25 10.1007 10.25 10.2499V14.7499H14.1875V7.67028L8 1.48278L1.8125 7.67028Z" fill="#4D4D4D"/>
</svg>
