<svg width="24" height="19" viewBox="0 0 24 19" fill="none" xmlns="http://www.w3.org/2000/svg">
<path fill-rule="evenodd" clip-rule="evenodd" d="M10.5 18.5C10.5 18.5 9 18.5 9 17C9 15.5 10.5 11 16.5 11C22.5 11 24 15.5 24 17C24 18.5 22.5 18.5 22.5 18.5H10.5ZM16.5 9.5C17.6935 9.5 18.8381 9.02589 19.682 8.18198C20.5259 7.33807 21 6.19347 21 5C21 3.80653 20.5259 2.66193 19.682 1.81802C18.8381 0.974106 17.6935 0.5 16.5 0.5C15.3065 0.5 14.1619 0.974106 13.318 1.81802C12.4741 2.66193 12 3.80653 12 5C12 6.19347 12.4741 7.33807 13.318 8.18198C14.1619 9.02589 15.3065 9.5 16.5 9.5ZM7.824 18.5C7.60163 18.0317 7.49074 17.5183 7.5 17C7.5 14.9675 8.52 12.875 10.404 11.42C9.46364 11.1303 8.48392 10.9886 7.5 11C1.5 11 0 15.5 0 17C0 18.5 1.5 18.5 1.5 18.5H7.824ZM6.75 9.5C7.74456 9.5 8.69839 9.10491 9.40165 8.40165C10.1049 7.69839 10.5 6.74456 10.5 5.75C10.5 4.75544 10.1049 3.80161 9.40165 3.09835C8.69839 2.39509 7.74456 2 6.75 2C5.75544 2 4.80161 2.39509 4.09835 3.09835C3.39509 3.80161 3 4.75544 3 5.75C3 6.74456 3.39509 7.69839 4.09835 8.40165C4.80161 9.10491 5.75544 9.5 6.75 9.5Z" fill="#F5F5F5"/>
</svg>
