<svg width="22" height="22" viewBox="0 0 22 22" fill="none" xmlns="http://www.w3.org/2000/svg">
<path fill-rule="evenodd" clip-rule="evenodd" d="M0.5 19.25C0.5 19.8467 0.737053 20.419 1.15901 20.841C1.58097 21.2629 2.15326 21.5 2.75 21.5H19.25C19.8467 21.5 20.419 21.2629 20.841 20.841C21.2629 20.419 21.5 19.8467 21.5 19.25V10.25C21.5 10.0511 21.421 9.86032 21.2803 9.71967C21.1397 9.57902 20.9489 9.5 20.75 9.5C20.5511 9.5 20.3603 9.57902 20.2197 9.71967C20.079 9.86032 20 10.0511 20 10.25V19.25C20 19.4489 19.921 19.6397 19.7803 19.7803C19.6397 19.921 19.4489 20 19.25 20H2.75C2.55109 20 2.36032 19.921 2.21967 19.7803C2.07902 19.6397 2 19.4489 2 19.25V2.75C2 2.55109 2.07902 2.36032 2.21967 2.21967C2.36032 2.07902 2.55109 2 2.75 2H12.5C12.6989 2 12.8897 1.92098 13.0303 1.78033C13.171 1.63968 13.25 1.44891 13.25 1.25C13.25 1.05109 13.171 0.860322 13.0303 0.71967C12.8897 0.579018 12.6989 0.5 12.5 0.5H2.75C2.15326 0.5 1.58097 0.737053 1.15901 1.15901C0.737053 1.58097 0.5 2.15326 0.5 2.75V19.25Z" fill="#4D4D4D"/>
</svg>
