<svg width="14" height="16" viewBox="0 0 14 16" fill="none" xmlns="http://www.w3.org/2000/svg">
<path fill-rule="evenodd" clip-rule="evenodd" d="M0.25 13.6875V6.375H1.375V13.6875C1.375 13.8367 1.43426 13.9798 1.53975 14.0852C1.64524 14.1907 1.78832 14.25 1.9375 14.25H12.0625C12.2117 14.25 12.3548 14.1907 12.4602 14.0852C12.5657 13.9798 12.625 13.8367 12.625 13.6875V6.375H13.75V13.6875C13.75 14.1351 13.5722 14.5643 13.2557 14.8807C12.9393 15.1972 12.5101 15.375 12.0625 15.375H1.9375C1.48995 15.375 1.06072 15.1972 0.744257 14.8807C0.42779 14.5643 0.25 14.1351 0.25 13.6875V13.6875ZM12.625 1.3125V5.25L10.375 3V1.3125C10.375 1.16332 10.4343 1.02024 10.5398 0.914753C10.6452 0.809263 10.7883 0.75 10.9375 0.75H12.0625C12.2117 0.75 12.3548 0.809263 12.4602 0.914753C12.5657 1.02024 12.625 1.16332 12.625 1.3125Z" fill="#4D4D4D"/>
</svg>
