<svg width="15" height="15" viewBox="0 0 15 15" fill="none" xmlns="http://www.w3.org/2000/svg">
<path fill-rule="evenodd" clip-rule="evenodd" d="M9.75 4.125C9.75 4.72174 9.51295 5.29403 9.09099 5.71599C8.66903 6.13795 8.09674 6.375 7.5 6.375C6.90326 6.375 6.33097 6.13795 5.90901 5.71599C5.48705 5.29403 5.25 4.72174 5.25 4.125C5.25 3.52826 5.48705 2.95597 5.90901 2.53401C6.33097 2.11205 6.90326 1.875 7.5 1.875C8.09674 1.875 8.66903 2.11205 9.09099 2.53401C9.51295 2.95597 9.75 3.52826 9.75 4.125ZM7.5 7.5C8.39511 7.5 9.25355 7.14442 9.88649 6.51149C10.5194 5.87855 10.875 5.02011 10.875 4.125C10.875 3.22989 10.5194 2.37145 9.88649 1.73851C9.25355 1.10558 8.39511 0.75 7.5 0.75C6.60489 0.75 5.74645 1.10558 5.11351 1.73851C4.48058 2.37145 4.125 3.22989 4.125 4.125C4.125 5.02011 4.48058 5.87855 5.11351 6.51149C5.74645 7.14442 6.60489 7.5 7.5 7.5ZM14.25 13.125C14.25 14.25 13.125 14.25 13.125 14.25H1.875C1.875 14.25 0.75 14.25 0.75 13.125C0.75 12 1.875 8.625 7.5 8.625C13.125 8.625 14.25 12 14.25 13.125ZM13.125 13.1205C13.1239 12.8438 12.9517 12.0112 12.189 11.2485C11.4555 10.515 10.0751 9.75 7.5 9.75C4.92375 9.75 3.5445 10.515 2.811 11.2485C2.04825 12.0112 1.87725 12.8438 1.875 13.1205H13.125Z" fill="#4D4D4D"/>
</svg>
