<svg width="18" height="15" viewBox="0 0 18 15" fill="none" xmlns="http://www.w3.org/2000/svg">
<path fill-rule="evenodd" clip-rule="evenodd" d="M16.875 14.25C16.875 14.25 18 14.25 18 13.125C18 12 16.875 8.625 12.375 8.625C7.875 8.625 6.75 12 6.75 13.125C6.75 14.25 7.875 14.25 7.875 14.25H16.875ZM7.89975 13.125H16.8503C16.8555 13.1244 16.8608 13.1236 16.866 13.1228L16.875 13.1205C16.8727 12.8235 16.6871 11.9618 16.02 11.1855C15.399 10.4576 14.3077 9.75 12.375 9.75C10.4434 9.75 9.35213 10.4587 8.73 11.1855C8.06287 11.9618 7.87612 12.8246 7.875 13.1205C7.88323 13.1221 7.89148 13.1236 7.89975 13.125ZM12.375 6.375C12.9717 6.375 13.544 6.13795 13.966 5.71599C14.3879 5.29403 14.625 4.72174 14.625 4.125C14.625 3.52826 14.3879 2.95597 13.966 2.53401C13.544 2.11205 12.9717 1.875 12.375 1.875C11.7783 1.875 11.206 2.11205 10.784 2.53401C10.3621 2.95597 10.125 3.52826 10.125 4.125C10.125 4.72174 10.3621 5.29403 10.784 5.71599C11.206 6.13795 11.7783 6.375 12.375 6.375ZM15.75 4.125C15.75 4.56821 15.6627 5.00708 15.4931 5.41656C15.3235 5.82603 15.0749 6.19809 14.7615 6.51149C14.4481 6.82488 14.076 7.07348 13.6666 7.24309C13.2571 7.4127 12.8182 7.5 12.375 7.5C11.9318 7.5 11.4929 7.4127 11.0834 7.24309C10.674 7.07348 10.3019 6.82488 9.98851 6.51149C9.67512 6.19809 9.42652 5.82603 9.25691 5.41656C9.0873 5.00708 9 4.56821 9 4.125C9 3.22989 9.35558 2.37145 9.98851 1.73851C10.6214 1.10558 11.4799 0.75 12.375 0.75C13.2701 0.75 14.1286 1.10558 14.7615 1.73851C15.3944 2.37145 15.75 3.22989 15.75 4.125ZM7.803 8.94C7.35298 8.79829 6.88909 8.70514 6.41925 8.66213C6.15525 8.63702 5.89019 8.62463 5.625 8.625C1.125 8.625 0 12 0 13.125C0 13.8754 0.374625 14.25 1.125 14.25H5.868C5.70122 13.8988 5.61805 13.5137 5.625 13.125C5.625 11.9888 6.04913 10.8277 6.85125 9.858C7.12463 9.52725 7.443 9.21787 7.803 8.94ZM5.535 9.75C3.6585 9.7725 2.59313 10.47 1.98 11.1855C1.30838 11.9663 1.125 12.8314 1.125 13.125H4.5C4.5 11.9494 4.86338 10.7782 5.535 9.75ZM1.6875 4.6875C1.6875 3.79239 2.04308 2.93395 2.67601 2.30101C3.30895 1.66808 4.16739 1.3125 5.0625 1.3125C5.95761 1.3125 6.81605 1.66808 7.44899 2.30101C8.08192 2.93395 8.4375 3.79239 8.4375 4.6875C8.4375 5.58261 8.08192 6.44105 7.44899 7.07399C6.81605 7.70692 5.95761 8.0625 5.0625 8.0625C4.16739 8.0625 3.30895 7.70692 2.67601 7.07399C2.04308 6.44105 1.6875 5.58261 1.6875 4.6875ZM5.0625 2.4375C4.46576 2.4375 3.89347 2.67455 3.47151 3.09651C3.04955 3.51847 2.8125 4.09076 2.8125 4.6875C2.8125 5.28424 3.04955 5.85653 3.47151 6.27849C3.89347 6.70045 4.46576 6.9375 5.0625 6.9375C5.65924 6.9375 6.23153 6.70045 6.65349 6.27849C7.07545 5.85653 7.3125 5.28424 7.3125 4.6875C7.3125 4.09076 7.07545 3.51847 6.65349 3.09651C6.23153 2.67455 5.65924 2.4375 5.0625 2.4375Z" fill="#4D4D4D"/>
</svg>
