<svg width="14" height="14" viewBox="0 0 14 14" fill="none" xmlns="http://www.w3.org/2000/svg">
<path fill-rule="evenodd" clip-rule="evenodd" d="M5.25079 0.4375C5.25079 0.321468 5.29688 0.210188 5.37893 0.128141C5.46098 0.0460936 5.57226 0 5.68829 0L8.31329 0C8.42932 0 8.5406 0.0460936 8.62265 0.128141C8.7047 0.210188 8.75079 0.321468 8.75079 0.4375C8.75079 0.553532 8.7047 0.664812 8.62265 0.746859C8.5406 0.828906 8.42932 0.875 8.31329 0.875H7.87579V1.81125C9.40839 2.03276 10.8002 2.82649 11.7713 4.03273C12.7423 5.23896 13.2205 6.7682 13.1096 8.31276C12.9988 9.85731 12.307 11.3026 11.1737 12.3577C10.0403 13.4129 8.54932 13.9997 7.00079 14C5.45035 14.0028 3.95655 13.4175 2.8207 12.3622C1.68486 11.3069 0.991494 9.86004 0.880478 8.31358C0.769462 6.76712 1.24905 5.23611 2.22251 4.02936C3.19597 2.82262 4.59085 2.02995 6.12579 1.81125V0.875H5.68829C5.57226 0.875 5.46098 0.828906 5.37893 0.746859C5.29688 0.664812 5.25079 0.553532 5.25079 0.4375ZM7.00079 2.625C6.31135 2.62506 5.62867 2.76091 4.99173 3.0248C4.3548 3.28869 3.77607 3.67545 3.28861 4.163C2.30412 5.14765 1.75111 6.48305 1.75123 7.87544C1.75134 9.26782 2.30458 10.6031 3.28922 11.5876C4.27387 12.5721 5.60928 13.1251 7.00166 13.125C8.39405 13.1249 9.72936 12.5716 10.7138 11.587C11.6983 10.6024 12.2513 9.26695 12.2512 7.87456C12.2511 6.48218 11.6979 5.14686 10.7132 4.16238C9.72858 3.1779 8.39318 2.62488 7.00079 2.625ZM7.00079 4.4625C7.11682 4.4625 7.2281 4.50859 7.31015 4.59064C7.3922 4.67269 7.43829 4.78397 7.43829 4.9V7.875C7.43829 7.99103 7.3922 8.10231 7.31015 8.18436C7.2281 8.26641 7.11682 8.3125 7.00079 8.3125H3.93829C3.82226 8.3125 3.71098 8.26641 3.62893 8.18436C3.54688 8.10231 3.50079 7.99103 3.50079 7.875C3.50079 7.75897 3.54688 7.64769 3.62893 7.56564C3.71098 7.48359 3.82226 7.4375 3.93829 7.4375H6.56329V4.9C6.56329 4.78397 6.60938 4.67269 6.69143 4.59064C6.77348 4.50859 6.88476 4.4625 7.00079 4.4625Z" fill="#828282"/>
</svg>
