<svg width="234" height="234" viewBox="0 0 234 234" fill="none" xmlns="http://www.w3.org/2000/svg">
<path fill-rule="evenodd" clip-rule="evenodd" d="M117 234C181.617 234 234 181.617 234 117C234 52.3827 181.617 0 117 0C52.3827 0 0 52.3827 0 117C0 181.617 52.3827 234 117 234ZM60.8818 53.6215C67.0521 48.0936 76.5353 48.6145 82.0631 54.7848L117.227 94.0356L152.391 54.7848C157.919 48.6145 167.402 48.0936 173.572 53.6215L174.527 54.4771C180.698 60.0049 181.218 69.488 175.691 75.6583L138.227 117.476L175.69 159.294C181.218 165.464 180.698 174.948 174.527 180.476L173.572 181.331C167.402 186.859 157.919 186.338 152.391 180.168L117.227 140.917L82.0631 180.168C76.5354 186.338 67.0521 186.859 60.8818 181.331L59.9268 180.476C53.7565 174.948 53.2357 165.464 58.7634 159.294L96.2271 117.476L58.7634 75.6583C53.2356 69.488 53.7565 60.0049 59.9268 54.4771L60.8818 53.6215Z" fill="black"/>
</svg>
