<svg width="16" height="12" viewBox="0 0 16 12" fill="none" xmlns="http://www.w3.org/2000/svg">
<path fill-rule="evenodd" clip-rule="evenodd" d="M9.68955 1.63958C9.6647 1.62864 9.6375 1.62412 9.61045 1.62644C9.58339 1.62876 9.55736 1.63784 9.53473 1.65285C9.5121 1.66786 9.49361 1.68832 9.48096 1.71234C9.4683 1.73636 9.46189 1.76318 9.4623 1.79033V3.08745C9.4623 3.23664 9.40304 3.37971 9.29755 3.4852C9.19206 3.59069 9.04899 3.64995 8.8998 3.64995C8.14943 3.64995 6.63518 3.65558 5.1873 4.5747C4.0803 5.2767 2.94855 6.5547 2.26793 8.9352C3.41543 7.82933 4.72605 7.2297 5.87355 6.91245C6.57888 6.71766 7.30374 6.60219 8.03468 6.5682C8.33387 6.55506 8.63356 6.55807 8.93243 6.57721H8.94705L8.95268 6.57833H8.9538L8.8998 7.13745L8.95605 6.57721C9.0949 6.59116 9.2236 6.65622 9.31715 6.75976C9.41071 6.8633 9.46244 6.99791 9.4623 7.13745V8.43458C9.4623 8.55608 9.58605 8.63258 9.68955 8.58533L14.1716 5.2857C14.1868 5.27441 14.2025 5.26389 14.2188 5.2542C14.2433 5.2395 14.2635 5.21872 14.2776 5.19389C14.2916 5.16905 14.299 5.14099 14.299 5.11245C14.299 5.08392 14.2916 5.05586 14.2776 5.03102C14.2635 5.00618 14.2433 4.9854 14.2188 4.9707C14.2025 4.96102 14.1868 4.9505 14.1716 4.9392L9.68955 1.63958ZM8.3373 7.6842C7.60596 7.69686 6.87911 7.80156 6.17393 7.99583C4.68218 8.40983 2.91593 9.34696 1.74143 11.4608C1.67791 11.5749 1.57671 11.6633 1.45517 11.7109C1.33362 11.7585 1.1993 11.7624 1.07522 11.7218C0.951143 11.6812 0.845036 11.5988 0.775084 11.4886C0.705131 11.3784 0.675689 11.2472 0.691803 11.1177C1.2138 6.94395 2.81355 4.74795 4.5843 3.6252C5.98493 2.73645 7.42718 2.56545 8.3373 2.53283V1.79033C8.3372 1.55866 8.39963 1.33125 8.51801 1.13211C8.63639 0.932964 8.80634 0.769468 9.0099 0.65887C9.21347 0.548272 9.44312 0.494674 9.67462 0.503731C9.90611 0.512788 10.1309 0.584164 10.3252 0.710329L14.8184 4.01783C15.0042 4.13378 15.1574 4.2951 15.2636 4.4866C15.3698 4.6781 15.4255 4.89348 15.4255 5.11245C15.4255 5.33143 15.3698 5.54681 15.2636 5.73831C15.1574 5.92981 15.0042 6.09113 14.8184 6.20708L10.3252 9.51458C10.1309 9.64074 9.90611 9.71212 9.67462 9.72118C9.44312 9.73024 9.21347 9.67664 9.0099 9.56604C8.80634 9.45544 8.63639 9.29195 8.51801 9.0928C8.39963 8.89366 8.3372 8.66625 8.3373 8.43458V7.6842Z" fill="#4D4D4D"/>
</svg>
