<svg width="23" height="24" viewBox="0 0 23 24" fill="none" xmlns="http://www.w3.org/2000/svg">
<path fill-rule="evenodd" clip-rule="evenodd" d="M20 24C20.7956 24 21.5587 23.6839 22.1213 23.1213C22.6839 22.5587 23 21.7956 23 21L23 3C23 2.20435 22.6839 1.44129 22.1213 0.878681C21.5587 0.316071 20.7956 0 20 0L3.5 0C2.70435 0 1.94129 0.316071 1.37868 0.878681C0.816071 1.44129 0.5 2.20435 0.5 3L0.5 21C0.5 21.7956 0.816071 22.5587 1.37868 23.1213C1.94129 23.6839 2.70435 24 3.5 24L20 24ZM12.5 21C12.8978 21 13.2794 20.842 13.5607 20.5607C13.842 20.2794 14 19.8978 14 19.5L14 15C14 14.6022 13.842 14.2206 13.5607 13.9393C13.2794 13.658 12.8978 13.5 12.5 13.5H11C10.6022 13.5 10.2206 13.658 9.93934 13.9393C9.65804 14.2206 9.5 14.6022 9.5 15L9.5 19.5C9.5 19.8978 9.65804 20.2794 9.93934 20.5607C10.2206 20.842 10.6022 21 11 21H12.5ZM20 19.5C20 19.8978 19.842 20.2794 19.5607 20.5607C19.2794 20.842 18.8978 21 18.5 21H17C16.6022 21 16.2206 20.842 15.9393 20.5607C15.658 20.2794 15.5 19.8978 15.5 19.5L15.5 9C15.5 8.60218 15.658 8.22064 15.9393 7.93934C16.2206 7.65804 16.6022 7.5 17 7.5H18.5C18.8978 7.5 19.2794 7.65804 19.5607 7.93934C19.842 8.22064 20 8.60218 20 9V19.5ZM6.5 21C6.89783 21 7.27936 20.842 7.56066 20.5607C7.84196 20.2794 8 19.8978 8 19.5L8 4.5C8 4.10217 7.84196 3.72064 7.56066 3.43934C7.27936 3.15804 6.89783 3 6.5 3H5C4.60217 3 4.22064 3.15804 3.93934 3.43934C3.65804 3.72064 3.5 4.10217 3.5 4.5L3.5 19.5C3.5 19.8978 3.65804 20.2794 3.93934 20.5607C4.22064 20.842 4.60217 21 5 21H6.5Z" fill="#4D4D4D"/>
</svg>
