<svg width="24" height="17" viewBox="0 0 24 17" fill="none" xmlns="http://www.w3.org/2000/svg">
<path fill-rule="evenodd" clip-rule="evenodd" d="M20.7145 2H3.28449C3.07612 1.99999 2.87003 2.04339 2.67936 2.12744C2.48869 2.21149 2.31763 2.33434 2.17707 2.48816C2.03651 2.64199 1.92954 2.82341 1.86299 3.02086C1.79643 3.21832 1.77174 3.42747 1.79049 3.635L2.74599 14.135C2.77967 14.5077 2.95144 14.8543 3.22758 15.1069C3.50372 15.3594 3.86428 15.4996 4.23849 15.5H19.7605C20.1347 15.4996 20.4953 15.3594 20.7714 15.1069C21.0475 14.8543 21.2193 14.5077 21.253 14.135L22.2085 3.635C22.2272 3.42747 22.2026 3.21832 22.136 3.02086C22.0694 2.82341 21.9625 2.64199 21.8219 2.48816C21.6814 2.33434 21.5103 2.21149 21.3196 2.12744C21.129 2.04339 20.9229 1.99999 20.7145 2ZM3.28449 0.5C2.86761 0.499957 2.4553 0.586799 2.07385 0.754987C1.6924 0.923174 1.35019 1.16902 1.06905 1.47683C0.787913 1.78465 0.574013 2.14768 0.440995 2.54276C0.307977 2.93785 0.258763 3.35633 0.296491 3.7715L1.25199 14.2715C1.31972 15.0169 1.66363 15.71 2.21619 16.2148C2.76874 16.7197 3.49005 16.9997 4.23849 17H19.7605C20.5089 16.9997 21.2302 16.7197 21.7828 16.2148C22.3354 15.71 22.6793 15.0169 22.747 14.2715L23.7025 3.7715C23.7402 3.35633 23.691 2.93785 23.558 2.54276C23.425 2.14768 23.2111 1.78465 22.9299 1.47683C22.6488 1.16902 22.3066 0.923174 21.9251 0.754987C21.5437 0.586799 21.1314 0.499957 20.7145 0.5H3.28449Z" fill="#F5F5F5"/>
</svg>
