<svg width="21" height="21" viewBox="0 0 21 21" fill="none" xmlns="http://www.w3.org/2000/svg">
<path d="M4.67505 0.5C4.84081 0.5 4.99978 0.565848 5.11699 0.683058C5.2342 0.800269 5.30005 0.95924 5.30005 1.125V1.75H15.3V1.125C15.3 0.95924 15.3659 0.800269 15.4831 0.683058C15.6003 0.565848 15.7593 0.5 15.925 0.5C16.0908 0.5 16.2498 0.565848 16.367 0.683058C16.4842 0.800269 16.55 0.95924 16.55 1.125V1.75H17.8C18.4631 1.75 19.099 2.01339 19.5678 2.48223C20.0367 2.95107 20.3 3.58696 20.3 4.25V18C20.3 18.663 20.0367 19.2989 19.5678 19.7678C19.099 20.2366 18.4631 20.5 17.8 20.5H2.80005C2.13701 20.5 1.50112 20.2366 1.03228 19.7678C0.563441 19.2989 0.300049 18.663 0.300049 18V6.75H20.3V5.5H0.300049V4.25C0.300049 3.58696 0.563441 2.95107 1.03228 2.48223C1.50112 2.01339 2.13701 1.75 2.80005 1.75H4.05005V1.125C4.05005 0.95924 4.1159 0.800269 4.23311 0.683058C4.35032 0.565848 4.50929 0.5 4.67505 0.5V0.5Z" fill="#4D4D4D"/>
</svg>
