<svg width="97" height="98" viewBox="0 0 97 98" fill="none" xmlns="http://www.w3.org/2000/svg">
<path d="M0.5 17.8251V4.77059C0.5 2.46694 2.46115 0.650858 4.75801 0.82754L6.16931 0.936101C11.0469 1.3113 15.8816 2.11746 20.617 3.34516C24.8656 4.44665 29.0201 5.88377 33.0411 7.64299L36.4345 9.12757C40.8059 11.0401 45.0348 13.263 49.0889 15.7793L50.5984 16.7162C55.1915 19.5671 59.5397 22.7949 63.5981 26.3663L64.3651 27.0413C68.1146 30.3408 71.5689 33.9612 74.689 37.8612C78.221 42.2763 81.3083 47.0294 83.9059 52.0514L87.5 59L90.4985 66.9961C92.4959 72.3223 94.0351 77.8093 95.0995 83.3972L95.5 85.5L96.139 93.1678C96.3333 95.4999 94.493 97.5 92.1528 97.5H79.8603C78.2336 97.5 76.8686 96.2735 76.6953 94.656C75.9024 87.2553 74.075 80.0024 71.2668 73.1094L70 70L68.1905 66.3809C64.7417 59.4835 60.5067 53.0081 55.5699 47.0839L53 44L47.3794 38.8478C43.1431 34.9646 38.4373 31.6271 33.3716 28.9133C29.1355 26.644 24.6734 24.8245 20.0584 23.4847L19.5059 23.3243C14.1874 21.7802 8.70449 20.8729 3.17214 20.6215C1.67713 20.5535 0.5 19.3217 0.5 17.8251Z" fill="#66CC99" stroke="#66CC99"/>
</svg>
