<svg width="13" height="8" viewBox="0 0 13 8" fill="none" xmlns="http://www.w3.org/2000/svg">
<path fill-rule="evenodd" clip-rule="evenodd" d="M0.164157 4.39811C0.111773 4.34586 0.0702125 4.28378 0.0418553 4.21544C0.013498 4.14711 -0.00109863 4.07384 -0.00109863 3.99986C-0.00109863 3.92587 0.013498 3.85261 0.0418553 3.78427C0.0702125 3.71593 0.111773 3.65386 0.164157 3.60161L3.53916 0.226606C3.59146 0.174307 3.65354 0.132821 3.72188 0.104517C3.79021 0.0762134 3.86345 0.0616455 3.93741 0.0616455C4.01137 0.0616455 4.08461 0.0762134 4.15294 0.104517C4.22127 0.132821 4.28336 0.174307 4.33566 0.226606C4.38796 0.278905 4.42944 0.340993 4.45775 0.409325C4.48605 0.477657 4.50062 0.550894 4.50062 0.624856C4.50062 0.698818 4.48605 0.772056 4.45775 0.840388C4.42944 0.90872 4.38796 0.970807 4.33566 1.02311L1.92028 3.43736H11.8124C11.9616 3.43736 12.1047 3.49662 12.2102 3.60211C12.3156 3.7076 12.3749 3.85067 12.3749 3.99986C12.3749 4.14904 12.3156 4.29212 12.2102 4.3976C12.1047 4.50309 11.9616 4.56236 11.8124 4.56236H1.92028L4.33566 6.97661C4.38796 7.0289 4.42944 7.09099 4.45775 7.15932C4.48605 7.22766 4.50062 7.30089 4.50062 7.37486C4.50062 7.44882 4.48605 7.52206 4.45775 7.59039C4.42944 7.65872 4.38796 7.72081 4.33566 7.77311C4.28336 7.82541 4.22127 7.86689 4.15294 7.8952C4.08461 7.9235 4.01137 7.93807 3.93741 7.93807C3.86345 7.93807 3.79021 7.9235 3.72188 7.8952C3.65354 7.86689 3.59146 7.82541 3.53916 7.77311L0.164157 4.39811Z" fill="#4D4D4D"/>
</svg>
