<svg width="17" height="18" viewBox="0 0 17 18" fill="none" xmlns="http://www.w3.org/2000/svg">
<path fill-rule="evenodd" clip-rule="evenodd" d="M6.25052 0.5625C6.25052 0.413316 6.30979 0.270242 6.41528 0.164752C6.52077 0.0592632 6.66384 0 6.81302 0L10.188 0C10.3372 0 10.4803 0.0592632 10.5858 0.164752C10.6913 0.270242 10.7505 0.413316 10.7505 0.5625C10.7505 0.711684 10.6913 0.854758 10.5858 0.960248C10.4803 1.06574 10.3372 1.125 10.188 1.125H9.62552V2.32875C11.596 2.61355 13.3855 3.63406 14.634 5.18493C15.8825 6.73581 16.4973 8.70197 16.3548 10.6878C16.2122 12.6737 15.3229 14.5319 13.8656 15.8885C12.4084 17.2452 10.4915 17.9996 8.50052 18C6.50711 18.0036 4.58651 17.2511 3.12613 15.8942C1.66576 14.5374 0.77429 12.6772 0.631555 10.6889C0.48882 8.70059 1.10544 6.73214 2.35703 5.18061C3.60862 3.62908 5.40204 2.60993 7.37552 2.32875V1.125H6.81302C6.66384 1.125 6.52077 1.06574 6.41528 0.960248C6.30979 0.854758 6.25052 0.711684 6.25052 0.5625ZM8.50052 3.375C7.6141 3.37507 6.73637 3.54974 5.91745 3.88903C5.09854 4.22832 4.35446 4.72558 3.72772 5.35243C2.46195 6.6184 1.75094 8.33535 1.75109 10.1256C1.75124 11.9158 2.46254 13.6326 3.72851 14.8984C4.99449 16.1641 6.71144 16.8751 8.50165 16.875C10.2919 16.8749 12.0087 16.1635 13.2745 14.8976C14.5402 13.6316 15.2512 11.9146 15.2511 10.1244C15.2509 8.33423 14.5396 6.6174 13.2737 5.35163C12.0077 4.08587 10.2907 3.37485 8.50052 3.375ZM8.50052 5.7375C8.64971 5.7375 8.79278 5.79676 8.89827 5.90225C9.00376 6.00774 9.06302 6.15082 9.06302 6.3V10.125C9.06302 10.2742 9.00376 10.4173 8.89827 10.5227C8.79278 10.6282 8.64971 10.6875 8.50052 10.6875H4.56303C4.41384 10.6875 4.27077 10.6282 4.16528 10.5227C4.05979 10.4173 4.00053 10.2742 4.00053 10.125C4.00053 9.97582 4.05979 9.83274 4.16528 9.72725C4.27077 9.62176 4.41384 9.5625 4.56303 9.5625H7.93802V6.3C7.93802 6.15082 7.99729 6.00774 8.10278 5.90225C8.20827 5.79676 8.35134 5.7375 8.50052 5.7375Z" fill="#2F2F2F"/>
</svg>
