<svg width="13" height="14" viewBox="0 0 13 14" fill="none" xmlns="http://www.w3.org/2000/svg">
<path fill-rule="evenodd" clip-rule="evenodd" d="M1.75 12.0625C1.75 12.2117 1.80926 12.3548 1.91475 12.4602C2.02024 12.5657 2.16332 12.625 2.3125 12.625H11.3125C11.4617 12.625 11.6048 12.5657 11.7102 12.4602C11.8157 12.3548 11.875 12.2117 11.875 12.0625V1.9375C11.875 1.78832 11.8157 1.64524 11.7102 1.53975C11.6048 1.43426 11.4617 1.375 11.3125 1.375H2.3125C2.16332 1.375 2.02024 1.43426 1.91475 1.53975C1.80926 1.64524 1.75 1.78832 1.75 1.9375V4.1875C1.75 4.33668 1.69074 4.47976 1.58525 4.58525C1.47976 4.69074 1.33668 4.75 1.1875 4.75C1.03832 4.75 0.895242 4.69074 0.789753 4.58525C0.684263 4.47976 0.625 4.33668 0.625 4.1875V1.9375C0.625 1.48995 0.802789 1.06072 1.11926 0.744257C1.43572 0.42779 1.86495 0.25 2.3125 0.25H11.3125C11.7601 0.25 12.1893 0.42779 12.5057 0.744257C12.8222 1.06072 13 1.48995 13 1.9375V12.0625C13 12.5101 12.8222 12.9393 12.5057 13.2557C12.1893 13.5722 11.7601 13.75 11.3125 13.75H2.3125C1.86495 13.75 1.43572 13.5722 1.11926 13.2557C0.802789 12.9393 0.625 12.5101 0.625 12.0625V9.8125C0.625 9.66332 0.684263 9.52024 0.789753 9.41475C0.895242 9.30926 1.03832 9.25 1.1875 9.25C1.33668 9.25 1.47976 9.30926 1.58525 9.41475C1.69074 9.52024 1.75 9.66332 1.75 9.8125V12.0625Z" fill="#4D4D4D"/>
</svg>
