<svg width="20" height="16" viewBox="0 0 20 16" fill="none" xmlns="http://www.w3.org/2000/svg">
<path d="M12.6185 12.3497L19.4705 7.42823C19.6319 7.33286 19.7656 7.19706 19.8585 7.03424C19.9515 6.87142 20.0003 6.68719 20.0003 6.49973C20.0003 6.31226 19.9515 6.12803 19.8585 5.96521C19.7656 5.80239 19.6319 5.6666 19.4705 5.57123L12.6185 0.649726C12.4552 0.553654 12.2693 0.502508 12.0798 0.501481C11.8903 0.500453 11.7039 0.54958 11.5396 0.643876C11.3752 0.738171 11.2387 0.874278 11.1439 1.03838C11.0492 1.20248 10.9995 1.38873 11 1.57823V3.49973C8.75 3.49973 2 3.49973 0.5 15.4997C4.25 8.74973 11 9.49973 11 9.49973V11.4212C11 12.2612 11.909 12.7682 12.6185 12.3512V12.3497Z" fill="#F5F5F5"/>
</svg>
