<svg width="21" height="24" viewBox="0 0 21 24" fill="none" xmlns="http://www.w3.org/2000/svg">
<path fill-rule="evenodd" clip-rule="evenodd" d="M5.967 0.782446C5.94192 0.68431 5.89722 0.592271 5.83561 0.51188C5.77399 0.431489 5.69672 0.364413 5.60847 0.314697C5.52022 0.264981 5.42282 0.233656 5.32213 0.222612C5.22145 0.211567 5.11957 0.221032 5.02264 0.250435C4.92571 0.279838 4.83574 0.328569 4.75816 0.393691C4.68058 0.458812 4.61699 0.538974 4.57124 0.62934C4.52548 0.719706 4.4985 0.818403 4.49193 0.91948C4.48536 1.02056 4.49933 1.12192 4.533 1.21745L5.148 3.24545C3.76916 4.64651 2.99749 6.53419 3 8.49995H18C18.0025 6.53419 17.2308 4.64651 15.852 3.24545L16.467 1.21745C16.5007 1.12192 16.5146 1.02056 16.5081 0.91948C16.5015 0.818403 16.4745 0.719706 16.4288 0.62934C16.383 0.538974 16.3194 0.458812 16.2418 0.393691C16.1643 0.328569 16.0743 0.279838 15.9774 0.250435C15.8804 0.221032 15.7786 0.211567 15.6779 0.222612C15.5772 0.233656 15.4798 0.264981 15.3915 0.314697C15.3033 0.364413 15.226 0.431489 15.1644 0.51188C15.1028 0.592271 15.0581 0.68431 15.033 0.782446L14.5965 2.21645C13.3787 1.42053 11.9549 0.997711 10.5 0.999946C9.04516 0.997798 7.62137 1.42061 6.4035 2.21645L5.9685 0.782446H5.967ZM18 8.49995V9.99995H11.25V23.4624C13.1 23.2765 14.8149 22.4101 16.0622 21.0312C17.3094 19.6523 18 17.8592 18 15.9999H18.75C18.9489 15.9999 19.1397 16.079 19.2803 16.2196C19.421 16.3603 19.5 16.551 19.5 16.7499V17.4999C19.5 17.6989 19.579 17.8896 19.7197 18.0303C19.8603 18.1709 20.0511 18.2499 20.25 18.2499C20.4489 18.2499 20.6397 18.1709 20.7803 18.0303C20.921 17.8896 21 17.6989 21 17.4999V16.7499C21 16.1532 20.7629 15.5809 20.341 15.159C19.919 14.737 19.3467 14.4999 18.75 14.4999H18V12.9999H20.25C20.4489 12.9999 20.6397 12.9209 20.7803 12.7803C20.921 12.6396 21 12.4489 21 12.2499C21 12.051 20.921 11.8603 20.7803 11.7196C20.6397 11.579 20.4489 11.4999 20.25 11.4999H18V9.99995H18.75C19.3467 9.99995 19.919 9.76289 20.341 9.34094C20.7629 8.91898 21 8.34668 21 7.74995V6.99995C21 6.80103 20.921 6.61027 20.7803 6.46962C20.6397 6.32896 20.4489 6.24995 20.25 6.24995C20.0511 6.24995 19.8603 6.32896 19.7197 6.46962C19.579 6.61027 19.5 6.80103 19.5 6.99995V7.74995C19.5 7.94886 19.421 8.13962 19.2803 8.28028C19.1397 8.42093 18.9489 8.49995 18.75 8.49995H18ZM9.75 23.4624V9.99995H3V8.49995H2.25C2.05109 8.49995 1.86032 8.42093 1.71967 8.28028C1.57902 8.13962 1.5 7.94886 1.5 7.74995V6.99995C1.5 6.80103 1.42098 6.61027 1.28033 6.46962C1.13968 6.32896 0.948912 6.24995 0.75 6.24995C0.551088 6.24995 0.360322 6.32896 0.21967 6.46962C0.0790176 6.61027 0 6.80103 0 6.99995V7.74995C0 8.34668 0.237053 8.91898 0.65901 9.34094C1.08097 9.76289 1.65326 9.99995 2.25 9.99995H3V11.4999H0.75C0.551088 11.4999 0.360322 11.579 0.21967 11.7196C0.0790176 11.8603 0 12.051 0 12.2499C0 12.4489 0.0790176 12.6396 0.21967 12.7803C0.360322 12.9209 0.551088 12.9999 0.75 12.9999H3V14.4999H2.25C1.65326 14.4999 1.08097 14.737 0.65901 15.159C0.237053 15.5809 0 16.1532 0 16.7499V17.4999C0 17.6989 0.0790176 17.8896 0.21967 18.0303C0.360322 18.1709 0.551088 18.2499 0.75 18.2499C0.948912 18.2499 1.13968 18.1709 1.28033 18.0303C1.42098 17.8896 1.5 17.6989 1.5 17.4999V16.7499C1.5 16.551 1.57902 16.3603 1.71967 16.2196C1.86032 16.079 2.05109 15.9999 2.25 15.9999H3C2.99998 17.8592 3.69058 19.6523 4.93782 21.0312C6.18506 22.4101 7.90003 23.2765 9.75 23.4624Z" fill="#F5F5F5"/>
</svg>
