<svg width="15" height="5" viewBox="0 0 15 5" fill="none" xmlns="http://www.w3.org/2000/svg">
<path d="M14.242 5C13.0491 4.99935 11.9053 4.5251 11.062 3.6815L9.817 2.4395C9.5365 2.15891 9.15625 2.00088 8.7595 2H3.25C2.85706 1.99993 2.47979 2.15405 2.19929 2.42922C1.91879 2.70439 1.75747 3.07864 1.75 3.4715L1.819 5H0.319L0.25 3.5C0.25 2.70435 0.566071 1.94129 1.12868 1.37868C1.69129 0.816071 2.45435 0.5 3.25 0.5H8.758C9.55358 0.50017 10.3165 0.816352 10.879 1.379L12.121 2.621C12.6835 3.18365 13.4464 3.49983 14.242 3.5V5Z" fill="#4D4D4D"/>
</svg>
