<svg width="25" height="17" viewBox="0 0 25 17" fill="none" xmlns="http://www.w3.org/2000/svg">
<path fill-rule="evenodd" clip-rule="evenodd" d="M21.2145 2H3.78452C3.57615 1.99999 3.37006 2.04339 3.17939 2.12744C2.98873 2.21149 2.81766 2.33434 2.6771 2.48816C2.53654 2.64199 2.42958 2.82341 2.36302 3.02086C2.29646 3.21832 2.27177 3.42747 2.29052 3.635L3.24602 14.135C3.2797 14.5077 3.45147 14.8543 3.72761 15.1069C4.00375 15.3594 4.36431 15.4996 4.73852 15.5H20.2605C20.6347 15.4996 20.9953 15.3594 21.2714 15.1069C21.5476 14.8543 21.7193 14.5077 21.753 14.135L22.7085 3.635C22.7273 3.42747 22.7026 3.21832 22.636 3.02086C22.5695 2.82341 22.4625 2.64199 22.3219 2.48816C22.1814 2.33434 22.0103 2.21149 21.8196 2.12744C21.629 2.04339 21.4229 1.99999 21.2145 2ZM3.78452 0.5C3.36764 0.499957 2.95533 0.586799 2.57388 0.754987C2.19243 0.923174 1.85022 1.16902 1.56908 1.47683C1.28794 1.78465 1.07404 2.14768 0.941026 2.54276C0.808008 2.93785 0.758793 3.35633 0.796521 3.7715L1.75202 14.2715C1.81976 15.0169 2.16366 15.71 2.71622 16.2148C3.26877 16.7197 3.99008 16.9997 4.73852 17H20.2605C21.009 16.9997 21.7303 16.7197 22.2828 16.2148C22.8354 15.71 23.1793 15.0169 23.247 14.2715L24.2025 3.7715C24.2402 3.35633 24.191 2.93785 24.058 2.54276C23.925 2.14768 23.7111 1.78465 23.43 1.47683C23.1488 1.16902 22.8066 0.923174 22.4252 0.754987C22.0437 0.586799 21.6314 0.499957 21.2145 0.5H3.78452Z" fill="#111111"/>
</svg>
