<svg width="23" height="23" viewBox="0 0 23 23" fill="none" xmlns="http://www.w3.org/2000/svg">
<path fill-rule="evenodd" clip-rule="evenodd" d="M0.5 1.25C0.5 1.05109 0.579018 0.860322 0.71967 0.71967C0.860322 0.579018 1.05109 0.5 1.25 0.5H3.5C3.6673 0.500046 3.82978 0.556026 3.9616 0.659037C4.09342 0.762048 4.18701 0.906176 4.2275 1.0685L4.835 3.5H22.25C22.3601 3.5001 22.4689 3.52445 22.5685 3.57133C22.6682 3.6182 22.7563 3.68644 22.8266 3.77121C22.8969 3.85597 22.9477 3.95518 22.9753 4.06178C23.0029 4.16838 23.0068 4.27976 22.9865 4.388L20.7365 16.388C20.7043 16.5599 20.6131 16.7151 20.4786 16.8268C20.3442 16.9386 20.1749 16.9998 20 17H6.5C6.32515 16.9998 6.15585 16.9386 6.02137 16.8268C5.88688 16.7151 5.79567 16.5599 5.7635 16.388L3.515 4.4105L2.915 2H1.25C1.05109 2 0.860322 1.92098 0.71967 1.78033C0.579018 1.63968 0.5 1.44891 0.5 1.25ZM5.153 5L7.1225 15.5H19.3775L21.347 5H5.153ZM8 17C7.20435 17 6.44129 17.3161 5.87868 17.8787C5.31607 18.4413 5 19.2044 5 20C5 20.7956 5.31607 21.5587 5.87868 22.1213C6.44129 22.6839 7.20435 23 8 23C8.79565 23 9.55871 22.6839 10.1213 22.1213C10.6839 21.5587 11 20.7956 11 20C11 19.2044 10.6839 18.4413 10.1213 17.8787C9.55871 17.3161 8.79565 17 8 17ZM18.5 17C17.7044 17 16.9413 17.3161 16.3787 17.8787C15.8161 18.4413 15.5 19.2044 15.5 20C15.5 20.7956 15.8161 21.5587 16.3787 22.1213C16.9413 22.6839 17.7044 23 18.5 23C19.2957 23 20.0587 22.6839 20.6213 22.1213C21.1839 21.5587 21.5 20.7956 21.5 20C21.5 19.2044 21.1839 18.4413 20.6213 17.8787C20.0587 17.3161 19.2957 17 18.5 17ZM8 18.5C7.60218 18.5 7.22065 18.658 6.93934 18.9393C6.65804 19.2206 6.5 19.6022 6.5 20C6.5 20.3978 6.65804 20.7794 6.93934 21.0607C7.22065 21.342 7.60218 21.5 8 21.5C8.39783 21.5 8.77936 21.342 9.06066 21.0607C9.34196 20.7794 9.5 20.3978 9.5 20C9.5 19.6022 9.34196 19.2206 9.06066 18.9393C8.77936 18.658 8.39783 18.5 8 18.5ZM18.5 18.5C18.1022 18.5 17.7206 18.658 17.4393 18.9393C17.158 19.2206 17 19.6022 17 20C17 20.3978 17.158 20.7794 17.4393 21.0607C17.7206 21.342 18.1022 21.5 18.5 21.5C18.8978 21.5 19.2794 21.342 19.5607 21.0607C19.842 20.7794 20 20.3978 20 20C20 19.6022 19.842 19.2206 19.5607 18.9393C19.2794 18.658 18.8978 18.5 18.5 18.5Z" fill="#F5F5F5"/>
</svg>
