<svg width="19" height="18" viewBox="0 0 19 18" fill="none" xmlns="http://www.w3.org/2000/svg">
<path fill-rule="evenodd" clip-rule="evenodd" d="M9.5 18C11.8869 18 14.1761 17.0518 15.864 15.364C17.5518 13.6761 18.5 11.3869 18.5 9C18.5 6.61305 17.5518 4.32387 15.864 2.63604C14.1761 0.948212 11.8869 0 9.5 0C7.11305 0 4.82387 0.948212 3.13604 2.63604C1.44821 4.32387 0.5 6.61305 0.5 9C0.5 11.3869 1.44821 13.6761 3.13604 15.364C4.82387 17.0518 7.11305 18 9.5 18ZM10.5463 7.4115L7.97 7.73438L7.87775 8.16187L8.384 8.25525C8.71475 8.334 8.78 8.45325 8.708 8.78288L7.87775 12.6844C7.6595 13.6935 7.99588 14.1683 8.78675 14.1683C9.39988 14.1683 10.112 13.8848 10.4349 13.4955L10.5339 13.0275C10.3089 13.2255 9.98037 13.3043 9.76213 13.3043C9.45275 13.3043 9.34025 13.0871 9.42013 12.7046L10.5463 7.4115ZM9.5 6.1875C9.79837 6.1875 10.0845 6.06897 10.2955 5.858C10.5065 5.64702 10.625 5.36087 10.625 5.0625C10.625 4.76413 10.5065 4.47798 10.2955 4.267C10.0845 4.05603 9.79837 3.9375 9.5 3.9375C9.20163 3.9375 8.91548 4.05603 8.7045 4.267C8.49353 4.47798 8.375 4.76413 8.375 5.0625C8.375 5.36087 8.49353 5.64702 8.7045 5.858C8.91548 6.06897 9.20163 6.1875 9.5 6.1875Z" fill="#0F85EC"/>
</svg>
