<svg width="12" height="4" viewBox="0 0 12 4" fill="none" xmlns="http://www.w3.org/2000/svg">
<path d="M2.625 2C2.625 2.29837 2.50647 2.58452 2.29549 2.79549C2.08452 3.00647 1.79837 3.125 1.5 3.125C1.20163 3.125 0.915483 3.00647 0.704505 2.79549C0.493526 2.58452 0.375 2.29837 0.375 2C0.375 1.70163 0.493526 1.41548 0.704505 1.20451C0.915483 0.993527 1.20163 0.875 1.5 0.875C1.79837 0.875 2.08452 0.993527 2.29549 1.20451C2.50647 1.41548 2.625 1.70163 2.625 2ZM7.125 2C7.125 2.29837 7.00647 2.58452 6.7955 2.79549C6.58452 3.00647 6.29837 3.125 6 3.125C5.70163 3.125 5.41548 3.00647 5.2045 2.79549C4.99353 2.58452 4.875 2.29837 4.875 2C4.875 1.70163 4.99353 1.41548 5.2045 1.20451C5.41548 0.993527 5.70163 0.875 6 0.875C6.29837 0.875 6.58452 0.993527 6.7955 1.20451C7.00647 1.41548 7.125 1.70163 7.125 2ZM11.625 2C11.625 2.29837 11.5065 2.58452 11.2955 2.79549C11.0845 3.00647 10.7984 3.125 10.5 3.125C10.2016 3.125 9.91548 3.00647 9.7045 2.79549C9.49353 2.58452 9.375 2.29837 9.375 2C9.375 1.70163 9.49353 1.41548 9.7045 1.20451C9.91548 0.993527 10.2016 0.875 10.5 0.875C10.7984 0.875 11.0845 0.993527 11.2955 1.20451C11.5065 1.41548 11.625 1.70163 11.625 2Z" fill="#4D4D4D"/>
</svg>
