<svg width="18" height="19" viewBox="0 0 18 19" fill="none" xmlns="http://www.w3.org/2000/svg">
<path fill-rule="evenodd" clip-rule="evenodd" d="M2.25 15.6875V8.375H3.375V15.6875C3.375 15.8367 3.43426 15.9798 3.53975 16.0852C3.64524 16.1907 3.78832 16.25 3.9375 16.25H14.0625C14.2117 16.25 14.3548 16.1907 14.4602 16.0852C14.5657 15.9798 14.625 15.8367 14.625 15.6875V8.375H15.75V15.6875C15.75 16.1351 15.5722 16.5643 15.2557 16.8807C14.9393 17.1972 14.5101 17.375 14.0625 17.375H3.9375C3.48995 17.375 3.06072 17.1972 2.74426 16.8807C2.42779 16.5643 2.25 16.1351 2.25 15.6875ZM14.625 3.3125V7.25L12.375 5V3.3125C12.375 3.16332 12.4343 3.02024 12.5398 2.91475C12.6452 2.80926 12.7883 2.75 12.9375 2.75H14.0625C14.2117 2.75 14.3548 2.80926 14.4602 2.91475C14.5657 3.02024 14.625 3.16332 14.625 3.3125Z" fill="#4D4D4D"/>
<path fill-rule="evenodd" clip-rule="evenodd" d="M8.20534 2.18754C8.4163 1.97663 8.7024 1.85815 9.00071 1.85815C9.29902 1.85815 9.58512 1.97663 9.79609 2.18754L17.274 9.66429C17.3796 9.76991 17.4389 9.91317 17.4389 10.0625C17.4389 10.2119 17.3796 10.3552 17.274 10.4608C17.1683 10.5664 17.0251 10.6257 16.8757 10.6257C16.7263 10.6257 16.5831 10.5664 16.4775 10.4608L9.00071 2.98291L1.52396 10.4608C1.41834 10.5664 1.27508 10.6257 1.12571 10.6257C0.976338 10.6257 0.833083 10.5664 0.727461 10.4608C0.621838 10.3552 0.5625 10.2119 0.5625 10.0625C0.5625 9.91317 0.621838 9.76991 0.727461 9.66429L8.20534 2.18754Z" fill="#4D4D4D"/>
</svg>
