<svg width="12" height="11" viewBox="0 0 12 11" fill="none" xmlns="http://www.w3.org/2000/svg">
<path fill-rule="evenodd" clip-rule="evenodd" d="M0.25 10.4375C0.25 10.2883 0.309263 10.1452 0.414753 10.0398C0.520242 9.93426 0.663316 9.875 0.8125 9.875H10.9375C11.0867 9.875 11.2298 9.93426 11.3352 10.0398C11.4407 10.1452 11.5 10.2883 11.5 10.4375C11.5 10.5867 11.4407 10.7298 11.3352 10.8352C11.2298 10.9407 11.0867 11 10.9375 11H0.8125C0.663316 11 0.520242 10.9407 0.414753 10.8352C0.309263 10.7298 0.25 10.5867 0.25 10.4375ZM0.25 5.9375C0.25 5.78832 0.309263 5.64524 0.414753 5.53975C0.520242 5.43426 0.663316 5.375 0.8125 5.375H10.9375C11.0867 5.375 11.2298 5.43426 11.3352 5.53975C11.4407 5.64524 11.5 5.78832 11.5 5.9375C11.5 6.08668 11.4407 6.22976 11.3352 6.33525C11.2298 6.44074 11.0867 6.5 10.9375 6.5H0.8125C0.663316 6.5 0.520242 6.44074 0.414753 6.33525C0.309263 6.22976 0.25 6.08668 0.25 5.9375ZM0.25 1.4375C0.25 1.28832 0.309263 1.14524 0.414753 1.03975C0.520242 0.934263 0.663316 0.875 0.8125 0.875H10.9375C11.0867 0.875 11.2298 0.934263 11.3352 1.03975C11.4407 1.14524 11.5 1.28832 11.5 1.4375C11.5 1.58668 11.4407 1.72976 11.3352 1.83525C11.2298 1.94074 11.0867 2 10.9375 2H0.8125C0.663316 2 0.520242 1.94074 0.414753 1.83525C0.309263 1.72976 0.25 1.58668 0.25 1.4375Z" fill="#F5F5F5"/>
</svg>
