<svg width="18" height="19" viewBox="0 0 18 19" fill="none" xmlns="http://www.w3.org/2000/svg">
<path fill-rule="evenodd" clip-rule="evenodd" d="M5.25 13.4375C5.25 13.2883 5.30926 13.1452 5.41475 13.0398C5.52024 12.9343 5.66332 12.875 5.8125 12.875H15.9375C16.0867 12.875 16.2298 12.9343 16.3352 13.0398C16.4407 13.1452 16.5 13.2883 16.5 13.4375C16.5 13.5867 16.4407 13.7298 16.3352 13.8352C16.2298 13.9407 16.0867 14 15.9375 14H5.8125C5.66332 14 5.52024 13.9407 5.41475 13.8352C5.30926 13.7298 5.25 13.5867 5.25 13.4375ZM5.25 8.9375C5.25 8.78832 5.30926 8.64524 5.41475 8.53975C5.52024 8.43426 5.66332 8.375 5.8125 8.375H15.9375C16.0867 8.375 16.2298 8.43426 16.3352 8.53975C16.4407 8.64524 16.5 8.78832 16.5 8.9375C16.5 9.08668 16.4407 9.22976 16.3352 9.33525C16.2298 9.44074 16.0867 9.5 15.9375 9.5H5.8125C5.66332 9.5 5.52024 9.44074 5.41475 9.33525C5.30926 9.22976 5.25 9.08668 5.25 8.9375ZM5.25 4.4375C5.25 4.28832 5.30926 4.14524 5.41475 4.03975C5.52024 3.93426 5.66332 3.875 5.8125 3.875H15.9375C16.0867 3.875 16.2298 3.93426 16.3352 4.03975C16.4407 4.14524 16.5 4.28832 16.5 4.4375C16.5 4.58668 16.4407 4.72976 16.3352 4.83525C16.2298 4.94074 16.0867 5 15.9375 5H5.8125C5.66332 5 5.52024 4.94074 5.41475 4.83525C5.30926 4.72976 5.25 4.58668 5.25 4.4375Z" fill="#F5F5F5"/>
<path d="M1.55213 13.8481V13.3149H1.875C2.11913 13.3149 2.28337 13.1607 2.28337 12.9582C2.28337 12.7501 2.10563 12.6095 1.87725 12.6095C1.62638 12.6095 1.46437 12.7805 1.45762 12.9582H0.793875C0.811875 12.4329 1.2135 12.0729 1.90313 12.0729C2.56463 12.0706 2.97638 12.4002 2.97975 12.8637C2.98188 13.0227 2.92736 13.1772 2.82594 13.2997C2.72453 13.4221 2.58284 13.5045 2.42625 13.532V13.5691C2.60379 13.5823 2.76939 13.6635 2.88861 13.7957C3.00783 13.9279 3.0715 14.101 3.06638 14.279C3.06975 14.8786 2.50162 15.179 1.884 15.179C1.146 15.179 0.759 14.7627 0.75 14.2857H1.40475C1.41375 14.486 1.614 14.63 1.8795 14.6334C2.16525 14.6334 2.3565 14.4702 2.35425 14.2396C2.352 14.0202 2.17988 13.8481 1.8885 13.8481H1.551H1.55213ZM1.54763 8.56173H0.868125V8.52236C0.868125 8.06336 1.2 7.57286 1.94587 7.57286C2.60175 7.57286 3.02588 7.93961 3.02588 8.42336C3.02588 8.86098 2.73675 9.11748 2.49037 9.37736L1.88625 10.0209V10.0546H3.072V10.625H0.910875V10.1806L1.9875 9.06686C2.14275 8.90711 2.31712 8.72486 2.31712 8.49536C2.31712 8.29286 2.15175 8.13536 1.93238 8.13536C1.88173 8.1335 1.83124 8.14203 1.78402 8.16042C1.7368 8.17882 1.69384 8.20668 1.6578 8.24231C1.62175 8.27793 1.59338 8.32055 1.57443 8.36756C1.55549 8.41456 1.54636 8.46495 1.54763 8.51561V8.56173ZM2.5095 6.12498H1.79513V3.78948H1.76025L1.0875 4.26198V3.62411L1.79513 3.12573H2.5095V6.12498Z" fill="#F5F5F5"/>
</svg>
