<svg width="45" height="34" viewBox="0 0 45 34" fill="none" xmlns="http://www.w3.org/2000/svg">
<path fill-rule="evenodd" clip-rule="evenodd" d="M19.6875 33.5C19.6875 33.5 16.875 33.5 16.875 30.75C16.875 28 19.6875 19.75 30.9375 19.75C42.1875 19.75 45 28 45 30.75C45 33.5 42.1875 33.5 42.1875 33.5H19.6875ZM30.9375 17C33.1753 17 35.3214 16.1308 36.9037 14.5836C38.4861 13.0365 39.375 10.938 39.375 8.75C39.375 6.56196 38.4861 4.46354 36.9037 2.91637C35.3214 1.36919 33.1753 0.5 30.9375 0.5C28.6997 0.5 26.5536 1.36919 24.9713 2.91637C23.3889 4.46354 22.5 6.56196 22.5 8.75C22.5 10.938 23.3889 13.0365 24.9713 14.5836C26.5536 16.1308 28.6997 17 30.9375 17V17ZM14.67 33.5C14.2531 32.6415 14.0451 31.7002 14.0625 30.75C14.0625 27.0237 15.975 23.1875 19.5075 20.52C17.7443 19.9888 15.9074 19.729 14.0625 19.75C2.8125 19.75 0 28 0 30.75C0 33.5 2.8125 33.5 2.8125 33.5H14.67ZM12.6562 17C14.5211 17 16.3095 16.2757 17.6281 14.9864C18.9467 13.697 19.6875 11.9484 19.6875 10.125C19.6875 8.30164 18.9467 6.55295 17.6281 5.26364C16.3095 3.97433 14.5211 3.25 12.6562 3.25C10.7914 3.25 9.00302 3.97433 7.68441 5.26364C6.36579 6.55295 5.625 8.30164 5.625 10.125C5.625 11.9484 6.36579 13.697 7.68441 14.9864C9.00302 16.2757 10.7914 17 12.6562 17V17Z" fill="#F5F5F5"/>
</svg>
