<svg width="12" height="13" viewBox="0 0 12 13" fill="none" xmlns="http://www.w3.org/2000/svg">
<path fill-rule="evenodd" clip-rule="evenodd" d="M2.14849 11.6374C2.08999 11.9704 2.41849 12.2306 2.70799 12.0821L6.00049 10.3901L9.29224 12.0821C9.58174 12.2306 9.91024 11.9704 9.85174 11.6381L9.22924 8.09063L11.8715 5.57363C12.1182 5.33813 11.99 4.90763 11.6592 4.86113L7.98574 4.33913L6.34774 1.09388C6.31654 1.0281 6.26731 0.972519 6.20577 0.933601C6.14424 0.894683 6.07292 0.874023 6.00012 0.874023C5.92731 0.874023 5.85599 0.894683 5.79446 0.933601C5.73292 0.972519 5.68369 1.0281 5.65249 1.09388L4.01449 4.33988L0.34099 4.86188C0.0102401 4.90838 -0.11801 5.33888 0.12874 5.57438L2.77099 8.09138L2.14849 11.6389V11.6374ZM5.82724 9.56213L3.06274 10.9826L3.58324 8.01488C3.59543 7.94657 3.59066 7.8763 3.56935 7.81026C3.54803 7.74422 3.51082 7.68443 3.46099 7.63613L1.28149 5.55863L4.32049 5.12663C4.38342 5.11713 4.44311 5.09251 4.49444 5.05489C4.54577 5.01728 4.58722 4.96777 4.61524 4.91063L6.00049 2.16713L7.38499 4.91063C7.41301 4.96777 7.45446 5.01728 7.50579 5.05489C7.55712 5.09251 7.61681 5.11713 7.67974 5.12663L10.7187 5.55788L8.53924 7.63538C8.48924 7.68371 8.45192 7.74363 8.4306 7.80982C8.40928 7.87602 8.4046 7.94645 8.41699 8.01488L8.93749 10.9826L6.17299 9.56213C6.11953 9.53457 6.06026 9.52019 6.00012 9.52019C5.93997 9.52019 5.8807 9.53457 5.82724 9.56213Z" fill="#4D4D4D"/>
</svg>
