<svg width="14" height="14" viewBox="0 0 14 14" fill="none" xmlns="http://www.w3.org/2000/svg">
<path fill-rule="evenodd" clip-rule="evenodd" d="M2.50657 12.9937C2.43832 13.3822 2.82157 13.6858 3.15932 13.5125L7.00057 11.5385L10.8409 13.5125C11.1787 13.6858 11.5619 13.3822 11.4937 12.9945L10.7674 8.85578L13.8501 5.91928C14.1379 5.64453 13.9883 5.14228 13.6024 5.08803L9.3167 4.47903L7.4057 0.692902C7.36929 0.616155 7.31186 0.551312 7.24007 0.505908C7.16828 0.460504 7.08508 0.436401 7.00013 0.436401C6.91519 0.436401 6.83199 0.460504 6.7602 0.505908C6.68841 0.551312 6.63098 0.616155 6.59457 0.692902L4.68357 4.4799L0.397822 5.0889C0.0119467 5.14315 -0.137678 5.6454 0.150197 5.92015L3.23282 8.85665L2.50657 12.9954V12.9937ZM6.79845 10.5725L3.5732 12.2298L4.18045 8.7674C4.19467 8.6877 4.18911 8.60573 4.16424 8.52868C4.13937 8.45163 4.09596 8.38187 4.03782 8.32553L1.49507 5.90178L5.04057 5.39778C5.11399 5.38669 5.18362 5.35797 5.24351 5.31409C5.3034 5.2702 5.35176 5.21244 5.38445 5.14578L7.00057 1.94503L8.61582 5.14578C8.64851 5.21244 8.69687 5.2702 8.75676 5.31409C8.81665 5.35797 8.88628 5.38669 8.9597 5.39778L12.5052 5.9009L9.96245 8.32465C9.90411 8.38104 9.86058 8.45094 9.8357 8.52817C9.81082 8.6054 9.80537 8.68757 9.81982 8.7674L10.4271 12.2298L7.20182 10.5725C7.13946 10.5404 7.0703 10.5236 7.00013 10.5236C6.92997 10.5236 6.86081 10.5404 6.79845 10.5725Z" fill="#828282"/>
</svg>
