<svg width="12" height="9" viewBox="0 0 12 9" fill="none" xmlns="http://www.w3.org/2000/svg">
<path fill-rule="evenodd" clip-rule="evenodd" d="M4.5 1.125C4.5 0.826631 4.61853 0.540483 4.8295 0.329505C5.04048 0.118526 5.32663 0 5.625 0H6.375C6.67337 0 6.95952 0.118526 7.1705 0.329505C7.38147 0.540483 7.5 0.826631 7.5 1.125V1.875C7.5 2.17337 7.38147 2.45952 7.1705 2.6705C6.95952 2.88147 6.67337 3 6.375 3V3.75H10.5C10.5995 3.75 10.6948 3.78951 10.7652 3.85984C10.8355 3.93016 10.875 4.02554 10.875 4.125V4.875C10.875 4.97446 10.8355 5.06984 10.7652 5.14017C10.6948 5.21049 10.5995 5.25 10.5 5.25C10.4005 5.25 10.3052 5.21049 10.2348 5.14017C10.1645 5.06984 10.125 4.97446 10.125 4.875V4.5H6.375V4.875C6.375 4.97446 6.33549 5.06984 6.26517 5.14017C6.19484 5.21049 6.09946 5.25 6 5.25C5.90054 5.25 5.80516 5.21049 5.73484 5.14017C5.66451 5.06984 5.625 4.97446 5.625 4.875V4.5H1.875V4.875C1.875 4.97446 1.83549 5.06984 1.76516 5.14017C1.69484 5.21049 1.59946 5.25 1.5 5.25C1.40054 5.25 1.30516 5.21049 1.23483 5.14017C1.16451 5.06984 1.125 4.97446 1.125 4.875V4.125C1.125 4.02554 1.16451 3.93016 1.23483 3.85984C1.30516 3.78951 1.40054 3.75 1.5 3.75H5.625V3C5.32663 3 5.04048 2.88147 4.8295 2.6705C4.61853 2.45952 4.5 2.17337 4.5 1.875V1.125ZM6.375 2.25C6.47446 2.25 6.56984 2.21049 6.64017 2.14016C6.71049 2.06984 6.75 1.97446 6.75 1.875V1.125C6.75 1.02554 6.71049 0.930161 6.64017 0.859835C6.56984 0.789509 6.47446 0.75 6.375 0.75H5.625C5.52554 0.75 5.43016 0.789509 5.35984 0.859835C5.28951 0.930161 5.25 1.02554 5.25 1.125V1.875C5.25 1.97446 5.28951 2.06984 5.35984 2.14016C5.43016 2.21049 5.52554 2.25 5.625 2.25H6.375ZM0 7.125C0 6.82663 0.118526 6.54048 0.329505 6.3295C0.540483 6.11853 0.826631 6 1.125 6H1.875C2.17337 6 2.45952 6.11853 2.6705 6.3295C2.88147 6.54048 3 6.82663 3 7.125V7.875C3 8.17337 2.88147 8.45952 2.6705 8.6705C2.45952 8.88147 2.17337 9 1.875 9H1.125C0.826631 9 0.540483 8.88147 0.329505 8.6705C0.118526 8.45952 0 8.17337 0 7.875L0 7.125ZM1.125 6.75C1.02554 6.75 0.930161 6.78951 0.859835 6.85983C0.789509 6.93016 0.75 7.02554 0.75 7.125V7.875C0.75 7.97446 0.789509 8.06984 0.859835 8.14017C0.930161 8.21049 1.02554 8.25 1.125 8.25H1.875C1.97446 8.25 2.06984 8.21049 2.14016 8.14017C2.21049 8.06984 2.25 7.97446 2.25 7.875V7.125C2.25 7.02554 2.21049 6.93016 2.14016 6.85983C2.06984 6.78951 1.97446 6.75 1.875 6.75H1.125ZM4.5 7.125C4.5 6.82663 4.61853 6.54048 4.8295 6.3295C5.04048 6.11853 5.32663 6 5.625 6H6.375C6.67337 6 6.95952 6.11853 7.1705 6.3295C7.38147 6.54048 7.5 6.82663 7.5 7.125V7.875C7.5 8.17337 7.38147 8.45952 7.1705 8.6705C6.95952 8.88147 6.67337 9 6.375 9H5.625C5.32663 9 5.04048 8.88147 4.8295 8.6705C4.61853 8.45952 4.5 8.17337 4.5 7.875V7.125ZM5.625 6.75C5.52554 6.75 5.43016 6.78951 5.35984 6.85983C5.28951 6.93016 5.25 7.02554 5.25 7.125V7.875C5.25 7.97446 5.28951 8.06984 5.35984 8.14017C5.43016 8.21049 5.52554 8.25 5.625 8.25H6.375C6.47446 8.25 6.56984 8.21049 6.64017 8.14017C6.71049 8.06984 6.75 7.97446 6.75 7.875V7.125C6.75 7.02554 6.71049 6.93016 6.64017 6.85983C6.56984 6.78951 6.47446 6.75 6.375 6.75H5.625ZM9 7.125C9 6.82663 9.11853 6.54048 9.3295 6.3295C9.54048 6.11853 9.82663 6 10.125 6H10.875C11.1734 6 11.4595 6.11853 11.6705 6.3295C11.8815 6.54048 12 6.82663 12 7.125V7.875C12 8.17337 11.8815 8.45952 11.6705 8.6705C11.4595 8.88147 11.1734 9 10.875 9H10.125C9.82663 9 9.54048 8.88147 9.3295 8.6705C9.11853 8.45952 9 8.17337 9 7.875V7.125ZM10.125 6.75C10.0255 6.75 9.93016 6.78951 9.85983 6.85983C9.78951 6.93016 9.75 7.02554 9.75 7.125V7.875C9.75 7.97446 9.78951 8.06984 9.85983 8.14017C9.93016 8.21049 10.0255 8.25 10.125 8.25H10.875C10.9745 8.25 11.0698 8.21049 11.1402 8.14017C11.2105 8.06984 11.25 7.97446 11.25 7.875V7.125C11.25 7.02554 11.2105 6.93016 11.1402 6.85983C11.0698 6.78951 10.9745 6.75 10.875 6.75H10.125Z" fill="#4D4D4D"/>
</svg>
