<svg width="18" height="18" viewBox="0 0 18 18" fill="none" xmlns="http://www.w3.org/2000/svg">
<path fill-rule="evenodd" clip-rule="evenodd" d="M0.875 0.875C0.875 0.70924 0.940848 0.550269 1.05806 0.433058C1.17527 0.315848 1.33424 0.25 1.5 0.25H16.5C16.6658 0.25 16.8247 0.315848 16.9419 0.433058C17.0592 0.550269 17.125 0.70924 17.125 0.875V3.375C17.125 3.52914 17.068 3.67782 16.965 3.7925L11.5 9.865V15.875C11.4999 16.0061 11.4586 16.1339 11.3818 16.2402C11.3051 16.3466 11.1969 16.4261 11.0725 16.4675L7.3225 17.7175C7.22859 17.7488 7.1286 17.7573 7.03075 17.7424C6.9329 17.7275 6.84 17.6895 6.75969 17.6316C6.67938 17.5738 6.61395 17.4977 6.56881 17.4096C6.52366 17.3215 6.50008 17.224 6.5 17.125V9.865L1.035 3.7925C0.93201 3.67782 0.875028 3.52914 0.875 3.375V0.875Z" fill="#4D4D4D"/>
</svg>
