<svg width="13" height="15" viewBox="0 0 13 15" fill="none" xmlns="http://www.w3.org/2000/svg">
<path d="M2.75 0.75C3.34674 0.75 3.91903 0.987053 4.34099 1.40901C4.76295 1.83097 5 2.40326 5 3V12C5 12.5967 4.76295 13.169 4.34099 13.591C3.91903 14.0129 3.34674 14.25 2.75 14.25C2.15326 14.25 1.58097 14.0129 1.15901 13.591C0.737053 13.169 0.5 12.5967 0.5 12V3C0.5 2.40326 0.737053 1.83097 1.15901 1.40901C1.58097 0.987053 2.15326 0.75 2.75 0.75ZM10.25 0.75C10.8467 0.75 11.419 0.987053 11.841 1.40901C12.2629 1.83097 12.5 2.40326 12.5 3V12C12.5 12.5967 12.2629 13.169 11.841 13.591C11.419 14.0129 10.8467 14.25 10.25 14.25C9.65326 14.25 9.08097 14.0129 8.65901 13.591C8.23705 13.169 8 12.5967 8 12V3C8 2.40326 8.23705 1.83097 8.65901 1.40901C9.08097 0.987053 9.65326 0.75 10.25 0.75Z" fill="#F5F5F5"/>
</svg>
