<svg width="15" height="19" viewBox="0 0 15 19" fill="none" xmlns="http://www.w3.org/2000/svg">
<path fill-rule="evenodd" clip-rule="evenodd" d="M3 0.5H12C12.5967 0.5 13.169 0.737053 13.591 1.15901C14.0129 1.58097 14.25 2.15326 14.25 2.75V16.25C14.25 16.8467 14.0129 17.419 13.591 17.841C13.169 18.2629 12.5967 18.5 12 18.5H3C2.40326 18.5 1.83097 18.2629 1.40901 17.841C0.987053 17.419 0.75 16.8467 0.75 16.25V2.75C0.75 2.15326 0.987053 1.58097 1.40901 1.15901C1.83097 0.737053 2.40326 0.5 3 0.5V0.5ZM3 1.625C2.70163 1.625 2.41548 1.74353 2.2045 1.9545C1.99353 2.16548 1.875 2.45163 1.875 2.75V16.25C1.875 16.5484 1.99353 16.8345 2.2045 17.0455C2.41548 17.2565 2.70163 17.375 3 17.375H12C12.2984 17.375 12.5845 17.2565 12.7955 17.0455C13.0065 16.8345 13.125 16.5484 13.125 16.25V2.75C13.125 2.45163 13.0065 2.16548 12.7955 1.9545C12.5845 1.74353 12.2984 1.625 12 1.625H3Z" fill="#F5F5F5"/>
</svg>
