<svg width="11" height="12" viewBox="0 0 11 12" fill="none" xmlns="http://www.w3.org/2000/svg">
<path fill-rule="evenodd" clip-rule="evenodd" d="M1.125 11.25C1.125 11.25 0.25 11.25 0.25 10.375C0.25 9.5 1.125 6.875 5.5 6.875C9.875 6.875 10.75 9.5 10.75 10.375C10.75 11.25 9.875 11.25 9.875 11.25H1.125ZM5.5 6C6.19619 6 6.86387 5.72344 7.35616 5.23116C7.84844 4.73887 8.125 4.07119 8.125 3.375C8.125 2.67881 7.84844 2.01113 7.35616 1.51884C6.86387 1.02656 6.19619 0.75 5.5 0.75C4.80381 0.75 4.13613 1.02656 3.64384 1.51884C3.15156 2.01113 2.875 2.67881 2.875 3.375C2.875 4.07119 3.15156 4.73887 3.64384 5.23116C4.13613 5.72344 4.80381 6 5.5 6Z" fill="#4D4D4D"/>
</svg>
