<svg width="4" height="13" viewBox="0 0 4 13" fill="none" xmlns="http://www.w3.org/2000/svg">
<path d="M1.55213 10.8481V10.3149H1.875C2.11913 10.3149 2.28337 10.1607 2.28337 9.95823C2.28337 9.75011 2.10563 9.60948 1.87725 9.60948C1.62638 9.60948 1.46437 9.78048 1.45762 9.95823H0.793875C0.811875 9.43286 1.2135 9.07286 1.90313 9.07286C2.56463 9.07061 2.97638 9.40023 2.97975 9.86373C2.98188 10.0227 2.92736 10.1772 2.82594 10.2997C2.72453 10.4221 2.58284 10.5045 2.42625 10.532V10.5691C2.60379 10.5823 2.76939 10.6635 2.88861 10.7957C3.00783 10.9279 3.0715 11.101 3.06638 11.279C3.06975 11.8786 2.50162 12.179 1.884 12.179C1.146 12.179 0.759 11.7627 0.75 11.2857H1.40475C1.41375 11.486 1.614 11.63 1.8795 11.6334C2.16525 11.6334 2.3565 11.4702 2.35425 11.2396C2.352 11.0202 2.17988 10.8481 1.8885 10.8481H1.551H1.55213ZM1.54763 5.56173H0.868125V5.52236C0.868125 5.06336 1.2 4.57286 1.94587 4.57286C2.60175 4.57286 3.02588 4.93961 3.02588 5.42336C3.02588 5.86098 2.73675 6.11748 2.49037 6.37736L1.88625 7.02086V7.05461H3.072V7.62498H0.910875V7.18061L1.9875 6.06686C2.14275 5.90711 2.31712 5.72486 2.31712 5.49536C2.31712 5.29286 2.15175 5.13536 1.93238 5.13536C1.88173 5.1335 1.83124 5.14203 1.78402 5.16042C1.7368 5.17882 1.69384 5.20668 1.6578 5.24231C1.62175 5.27793 1.59338 5.32055 1.57443 5.36756C1.55549 5.41456 1.54636 5.46495 1.54763 5.51561V5.56173ZM2.5095 3.12498H1.79513V0.789482H1.76025L1.0875 1.26198V0.624107L1.79513 0.125732H2.5095V3.12498Z" fill="#F5F5F5"/>
</svg>
