<svg width="16" height="19" viewBox="0 0 16 19" fill="none" xmlns="http://www.w3.org/2000/svg">
<path fill-rule="evenodd" clip-rule="evenodd" d="M5.75101 1.0625C5.75101 0.913316 5.81028 0.770242 5.91577 0.664752C6.02126 0.559263 6.16433 0.5 6.31351 0.5H9.68851C9.8377 0.5 9.98077 0.559263 10.0863 0.664752C10.1917 0.770242 10.251 0.913316 10.251 1.0625C10.251 1.21168 10.1917 1.35476 10.0863 1.46025C9.98077 1.56574 9.8377 1.625 9.68851 1.625H9.12601V2.82875C11.0965 3.11355 12.886 4.13406 14.1345 5.68493C15.383 7.23581 15.9978 9.20197 15.8553 11.1878C15.7127 13.1737 14.8233 15.0319 13.3661 16.3885C11.9089 17.7452 9.99198 18.4996 8.00101 18.5C6.0076 18.5036 4.08699 17.7511 2.62662 16.3942C1.16624 15.0374 0.274779 13.1772 0.132043 11.1889C-0.010692 9.20059 0.605926 7.23214 1.85752 5.68061C3.10911 4.12908 4.90253 3.10993 6.87601 2.82875V1.625H6.31351C6.16433 1.625 6.02126 1.56574 5.91577 1.46025C5.81028 1.35476 5.75101 1.21168 5.75101 1.0625ZM8.00101 3.875C7.11459 3.87507 6.23686 4.04974 5.41794 4.38903C4.59902 4.72832 3.85495 5.22558 3.22821 5.85243C1.96244 7.1184 1.25143 8.83535 1.25158 10.6256C1.25173 12.4158 1.96303 14.1326 3.229 15.3984C4.49498 16.6641 6.21193 17.3751 8.00214 17.375C9.79235 17.3749 11.5092 16.6635 12.7749 15.3976C14.0407 14.1316 14.7517 12.4146 14.7516 10.6244C14.7514 8.83423 14.0401 7.1174 12.7741 5.85163C11.5082 4.58587 9.79122 3.87485 8.00101 3.875ZM8.00101 6.2375C8.1502 6.2375 8.29327 6.29676 8.39876 6.40225C8.50425 6.50774 8.56351 6.65082 8.56351 6.8V10.625C8.56351 10.7742 8.50425 10.9173 8.39876 11.0227C8.29327 11.1282 8.1502 11.1875 8.00101 11.1875H4.06351C3.91433 11.1875 3.77126 11.1282 3.66577 11.0227C3.56028 10.9173 3.50101 10.7742 3.50101 10.625C3.50101 10.4758 3.56028 10.3327 3.66577 10.2273C3.77126 10.1218 3.91433 10.0625 4.06351 10.0625H7.43851V6.8C7.43851 6.65082 7.49778 6.50774 7.60327 6.40225C7.70876 6.29676 7.85183 6.2375 8.00101 6.2375Z" fill="#F5F5F5"/>
</svg>
