<svg width="2" height="7" viewBox="0 0 2 7" fill="none" xmlns="http://www.w3.org/2000/svg">
<path d="M0.251465 6.25009C0.251465 6.1516 0.270864 6.05407 0.308555 5.96308C0.346246 5.87208 0.401491 5.7894 0.471135 5.71976C0.540779 5.65011 0.623458 5.59487 0.714452 5.55718C0.805447 5.51949 0.902973 5.50009 1.00146 5.50009C1.09996 5.50009 1.19748 5.51949 1.28848 5.55718C1.37947 5.59487 1.46215 5.65011 1.53179 5.71976C1.60144 5.7894 1.65668 5.87208 1.69437 5.96308C1.73207 6.05407 1.75146 6.1516 1.75146 6.25009C1.75146 6.449 1.67245 6.63977 1.53179 6.78042C1.39114 6.92107 1.20038 7.00009 1.00146 7.00009C0.802552 7.00009 0.611787 6.92107 0.471135 6.78042C0.330483 6.63977 0.251465 6.449 0.251465 6.25009ZM0.324965 1.74634C0.314977 1.65172 0.324994 1.55606 0.354365 1.46556C0.383736 1.37506 0.431805 1.29175 0.495454 1.22103C0.559103 1.15031 0.636908 1.09376 0.723823 1.05505C0.810738 1.01634 0.90482 0.996338 0.999965 0.996338C1.09511 0.996338 1.18919 1.01634 1.27611 1.05505C1.36302 1.09376 1.44083 1.15031 1.50448 1.22103C1.56812 1.29175 1.61619 1.37506 1.64556 1.46556C1.67494 1.55606 1.68495 1.65172 1.67496 1.74634L1.41247 4.37659C1.40365 4.47992 1.35637 4.57617 1.27998 4.64632C1.2036 4.71646 1.10367 4.75538 0.999965 4.75538C0.896261 4.75538 0.796333 4.71646 0.719948 4.64632C0.643563 4.57617 0.596285 4.47992 0.587465 4.37659L0.324965 1.74634Z" fill="#F5F5F5"/>
</svg>
