<svg width="15" height="5" viewBox="0 0 15 5" fill="none" xmlns="http://www.w3.org/2000/svg">
<path d="M14.742 5C13.5491 4.99935 12.4053 4.5251 11.562 3.6815L10.317 2.4395C10.0365 2.15891 9.65625 2.00088 9.2595 2H3.75C3.35706 1.99993 2.97979 2.15405 2.69929 2.42922C2.41879 2.70439 2.25747 3.07864 2.25 3.4715L2.319 5H0.819L0.75 3.5C0.75 2.70435 1.06607 1.94129 1.62868 1.37868C2.19129 0.816071 2.95435 0.5 3.75 0.5H9.258C10.0536 0.50017 10.8165 0.816352 11.379 1.379L12.621 2.621C13.1835 3.18365 13.9464 3.49983 14.742 3.5V5Z" fill="#F5F5F5"/>
</svg>
