<svg width="8" height="8" viewBox="0 0 8 8" fill="none" xmlns="http://www.w3.org/2000/svg">
<path fill-rule="evenodd" clip-rule="evenodd" d="M3.50045 0.25C3.50045 0.183696 3.52679 0.120107 3.57367 0.0732233C3.62056 0.0263392 3.68415 0 3.75045 0L5.25045 0C5.31675 0 5.38034 0.0263392 5.42723 0.0732233C5.47411 0.120107 5.50045 0.183696 5.50045 0.25C5.50045 0.316304 5.47411 0.379893 5.42723 0.426777C5.38034 0.473661 5.31675 0.5 5.25045 0.5H5.00045V1.035C5.87622 1.16158 6.67157 1.61514 7.22645 2.30442C7.78133 2.99369 8.05459 3.86754 7.99123 4.75015C7.92787 5.63275 7.5326 6.45861 6.88495 7.06156C6.2373 7.66451 5.38532 7.99981 4.50045 8C3.61449 8.0016 2.76089 7.66714 2.11183 7.0641C1.46278 6.46106 1.06657 5.63431 1.00313 4.75062C0.939692 3.86693 1.21374 2.99206 1.77001 2.30249C2.32627 1.61292 3.12334 1.15997 4.00045 1.035V0.5H3.75045C3.68415 0.5 3.62056 0.473661 3.57367 0.426777C3.52679 0.379893 3.50045 0.316304 3.50045 0.25ZM4.50045 1.5C4.10648 1.50003 3.71638 1.57766 3.35242 1.72846C2.98846 1.87925 2.65776 2.10026 2.3792 2.37886C1.81664 2.94151 1.50063 3.7046 1.5007 4.50025C1.50077 5.2959 1.8169 6.05894 2.37956 6.6215C2.94221 7.18406 3.7053 7.50007 4.50095 7.5C5.2966 7.49993 6.05964 7.1838 6.6222 6.62114C7.18476 6.05849 7.50077 5.2954 7.5007 4.49975C7.50063 3.7041 7.1845 2.94107 6.62184 2.3785C6.05919 1.81594 5.2961 1.49993 4.50045 1.5ZM4.50045 2.55C4.56675 2.55 4.63034 2.57634 4.67723 2.62322C4.72411 2.67011 4.75045 2.7337 4.75045 2.8V4.5C4.75045 4.5663 4.72411 4.62989 4.67723 4.67678C4.63034 4.72366 4.56675 4.75 4.50045 4.75H2.75045C2.68415 4.75 2.62056 4.72366 2.57367 4.67678C2.52679 4.62989 2.50045 4.5663 2.50045 4.5C2.50045 4.4337 2.52679 4.37011 2.57367 4.32322C2.62056 4.27634 2.68415 4.25 2.75045 4.25H4.25045V2.8C4.25045 2.7337 4.27679 2.67011 4.32367 2.62322C4.37056 2.57634 4.43415 2.55 4.50045 2.55Z" fill="#F5F5F5"/>
</svg>
