<svg width="9" height="7" viewBox="0 0 9 7" fill="none" xmlns="http://www.w3.org/2000/svg">
<path d="M2.75063 6.149V0.14825H2.0385C1.52847 0.420127 1.03555 0.722942 0.5625 1.055V1.83687C0.984375 1.54775 1.65262 1.13937 1.97775 0.96275H1.99125V6.149H2.75063ZM4.08713 4.68087C4.14 5.40087 4.75538 6.26262 6.003 6.26262C7.41825 6.26262 8.253 5.06337 8.253 3.03275C8.253 0.857 7.37438 0.03125 6.05588 0.03125C5.01413 0.03125 4.03425 0.78725 4.03425 2.06637C4.03425 3.37137 4.96125 4.05763 5.91975 4.05763C6.759 4.05763 7.3035 3.63462 7.47563 3.16887H7.506C7.5015 4.64937 6.98738 5.60337 6.03788 5.60337C5.29087 5.60337 4.90388 5.09713 4.85663 4.68087H4.08713ZM7.40925 2.07425C7.40925 2.85725 6.78038 3.40175 6.07725 3.40175C5.40113 3.40175 4.79025 2.97087 4.79025 2.05175C4.79025 1.12587 5.445 0.6905 6.10425 0.6905C6.81638 0.6905 7.40925 1.13825 7.40925 2.07425Z" fill="#2F2F2F"/>
</svg>
